{"glyphs":{"0":{"ha":551,"x_min":60,"x_max":492,"o":"m 275 -11 q 128 26 172 -11 q 72 159 85 64 q 60 478 60 254 q 72 797 60 701 q 128 929 85 892 q 275 967 172 967 q 427 929 383 967 q 481 801 471 892 q 492 478 492 710 q 479 159 492 254 q 423 26 467 64 q 275 -11 379 -11 m 275 78 q 359 99 336 78 q 390 199 382 121 q 397 478 397 276 q 390 757 397 679 q 359 856 382 835 q 275 878 336 878 q 192 856 215 878 q 162 757 169 835 q 154 478 154 679 q 162 199 154 276 q 192 99 169 121 q 275 78 215 78 z "},"1":{"ha":322,"x_min":33,"x_max":240,"o":"m 143 0 l 143 833 l 33 778 l 33 872 l 167 956 l 240 956 l 240 0 l 143 0 z "},"2":{"ha":497,"x_min":49,"x_max":449,"o":"m 144 89 l 449 89 l 449 0 l 49 0 l 49 104 q 53 284 49 232 q 75 369 57 336 q 139 435 93 403 l 288 540 q 340 602 326 567 q 353 713 353 638 q 342 818 353 783 q 306 865 332 853 q 228 878 281 878 q 60 865 160 878 l 60 947 q 147 961 93 956 q 249 967 201 967 q 357 951 315 967 q 424 883 399 936 q 449 725 449 831 q 438 597 449 644 q 407 521 428 549 q 349 467 386 493 l 192 356 q 154 311 165 339 q 146 262 147 293 q 144 154 144 231 l 144 89 z "},"3":{"ha":476,"x_min":25,"x_max":424,"o":"m 203 -11 q 114 -5 164 -11 q 25 10 64 1 l 25 92 q 185 78 119 78 q 267 91 238 78 q 313 142 297 104 q 328 256 328 181 q 303 399 328 358 q 219 440 279 440 l 113 440 l 113 528 l 219 528 q 293 565 267 528 q 319 703 319 601 q 306 815 319 778 q 263 865 293 853 q 178 878 233 878 q 28 864 104 878 l 28 946 q 115 961 65 956 q 203 967 164 967 q 328 943 282 967 q 395 865 374 919 q 417 717 417 810 q 390 562 417 615 q 311 492 364 508 l 311 486 q 395 419 367 472 q 424 254 424 367 q 405 103 424 161 q 338 17 386 46 q 203 -11 289 -11 z "},"4":{"ha":535,"x_min":33,"x_max":499,"o":"m 321 0 l 321 224 l 33 224 l 33 303 l 219 956 l 318 956 l 128 313 l 322 313 l 339 669 l 418 669 l 418 313 l 499 313 l 499 224 l 418 224 l 418 0 l 321 0 z "},"5":{"ha":497,"x_min":58,"x_max":457,"o":"m 58 92 q 214 78 151 78 q 307 96 276 78 q 349 156 338 114 q 360 282 360 197 q 349 413 360 374 q 306 466 338 453 q 203 479 275 479 q 64 463 147 479 l 64 956 l 418 956 l 418 867 l 156 867 l 156 557 q 261 568 193 568 q 385 538 343 568 q 442 451 428 508 q 457 296 457 393 q 439 112 457 176 q 374 18 421 47 q 236 -11 326 -11 q 147 -5 197 -11 q 58 10 97 1 l 58 92 z "},"6":{"ha":539,"x_min":60,"x_max":492,"o":"m 283 -11 q 181 1 221 -11 q 116 48 142 14 q 74 144 90 82 q 63 252 65 178 q 60 468 60 326 q 64 679 60 600 q 81 801 68 758 q 157 929 106 892 q 307 967 208 967 q 384 960 340 967 q 464 944 428 954 l 464 863 q 322 878 388 878 q 210 850 244 878 q 164 747 175 822 q 153 501 153 671 l 161 501 q 208 551 175 532 q 306 571 240 571 q 417 553 379 571 q 474 479 456 536 q 492 303 492 422 q 475 112 492 178 q 415 17 458 46 q 283 -11 371 -11 m 278 76 q 355 90 331 76 q 389 146 379 104 q 399 276 399 188 q 390 418 399 376 q 358 471 381 460 q 278 482 335 482 q 197 467 222 482 q 163 419 171 453 q 156 314 156 386 q 166 160 156 210 q 201 93 176 110 q 278 76 226 76 z "},"7":{"ha":458,"x_min":26,"x_max":432,"o":"m 92 0 l 332 867 l 26 867 l 26 956 l 432 956 l 432 879 l 190 0 l 92 0 z "},"8":{"ha":554,"x_min":53,"x_max":501,"o":"m 276 -11 q 139 16 188 -11 q 72 100 90 43 q 53 254 53 157 q 65 381 53 335 q 99 450 76 428 q 161 485 122 472 l 161 490 q 84 560 108 506 q 60 717 60 614 q 80 865 60 811 q 147 942 100 918 q 276 967 194 967 q 406 942 358 967 q 474 865 453 918 q 494 717 494 811 q 470 560 494 614 q 392 490 446 506 l 392 485 q 454 450 431 472 q 490 381 478 428 q 501 254 501 335 q 482 100 501 157 q 414 16 463 43 q 276 -11 365 -11 m 276 525 q 355 540 329 525 q 390 591 381 554 q 400 703 400 628 q 390 815 400 778 q 355 866 381 851 q 276 881 329 881 q 198 866 224 881 q 163 815 172 851 q 154 703 154 778 q 164 591 154 628 q 199 540 174 554 q 276 525 224 525 m 276 75 q 356 89 329 75 q 393 141 382 103 q 404 257 404 179 q 394 377 404 339 q 358 428 385 415 q 276 442 332 442 q 195 428 221 442 q 160 377 169 415 q 150 257 150 339 q 161 141 150 179 q 199 89 172 103 q 276 75 225 75 z "},"9":{"ha":539,"x_min":47,"x_max":479,"o":"m 232 -11 q 153 -5 197 -11 q 75 11 108 1 l 75 93 q 215 78 149 78 q 329 106 294 78 q 375 209 364 133 q 386 454 386 285 l 378 454 q 233 385 347 385 q 121 402 158 385 q 65 476 83 419 q 47 653 47 533 q 63 844 47 778 q 124 938 79 910 q 256 967 168 967 q 396 935 350 967 q 463 818 442 904 q 476 700 474 775 q 479 488 479 625 q 474 262 479 343 q 454 135 469 181 q 376 22 428 56 q 232 -11 325 -11 m 261 474 q 342 488 317 474 q 376 536 368 503 q 383 642 383 569 q 373 796 383 746 q 338 863 363 846 q 261 879 313 879 q 183 865 208 879 q 149 810 158 851 q 139 679 139 768 q 148 538 139 579 q 181 485 157 496 q 261 474 204 474 z "},"\u0000":{"ha":0,"x_min":0,"x_max":0,"o":""},"\r":{"ha":224,"x_min":0,"x_max":0,"o":""}," ":{"ha":224,"x_min":0,"x_max":0,"o":""},"A":{"ha":567,"x_min":21,"x_max":544,"o":"m 447 0 l 393 265 l 171 265 l 118 0 l 21 0 l 217 956 l 350 956 l 544 0 l 447 0 m 286 828 l 278 828 l 185 351 l 379 351 l 286 828 z "},"Á":{"ha":567,"x_min":21,"x_max":544,"o":"m 447 0 l 393 265 l 171 265 l 118 0 l 21 0 l 217 956 l 350 956 l 544 0 l 447 0 m 286 828 l 278 828 l 185 351 l 379 351 l 286 828 m 242 1042 l 242 1049 l 289 1238 l 383 1238 l 383 1231 l 311 1042 l 242 1042 z "},"Ă":{"ha":567,"x_min":21,"x_max":544,"o":"m 447 0 l 393 265 l 171 265 l 118 0 l 21 0 l 217 956 l 350 956 l 544 0 l 447 0 m 286 828 l 278 828 l 185 351 l 379 351 l 286 828 m 425 1233 q 417 1128 425 1167 q 377 1065 408 1089 q 282 1042 346 1042 q 188 1065 218 1042 q 150 1128 158 1089 q 142 1233 142 1167 l 210 1233 q 213 1156 210 1181 q 232 1117 217 1131 q 282 1103 247 1103 q 333 1117 317 1103 q 353 1157 349 1132 q 357 1233 357 1182 l 425 1233 z "},"Ắ":{"ha":567,"x_min":21,"x_max":544,"o":"m 447 0 l 393 265 l 171 265 l 118 0 l 21 0 l 217 956 l 350 956 l 544 0 l 447 0 m 286 828 l 278 828 l 185 351 l 379 351 l 286 828 m 425 1233 q 417 1128 425 1167 q 377 1065 408 1089 q 282 1042 346 1042 q 188 1065 218 1042 q 150 1128 158 1089 q 142 1233 142 1167 l 210 1233 q 213 1156 210 1181 q 232 1117 217 1131 q 282 1103 247 1103 q 333 1117 317 1103 q 353 1157 349 1132 q 357 1233 357 1182 l 425 1233 m 247 1278 l 247 1285 l 294 1474 l 389 1474 l 389 1467 l 317 1278 l 247 1278 z "},"Ặ":{"ha":567,"x_min":21,"x_max":544,"o":"m 447 0 l 393 265 l 171 265 l 118 0 l 21 0 l 217 956 l 350 956 l 544 0 l 447 0 m 286 828 l 278 828 l 185 351 l 379 351 l 286 828 m 231 -207 l 231 -86 l 336 -86 l 336 -207 l 231 -207 m 425 1233 q 417 1128 425 1167 q 377 1065 408 1089 q 282 1042 346 1042 q 188 1065 218 1042 q 150 1128 158 1089 q 142 1233 142 1167 l 210 1233 q 213 1156 210 1181 q 232 1117 217 1131 q 282 1103 247 1103 q 333 1117 317 1103 q 353 1157 349 1132 q 357 1233 357 1182 l 425 1233 z "},"Ằ":{"ha":567,"x_min":21,"x_max":544,"o":"m 447 0 l 393 265 l 171 265 l 118 0 l 21 0 l 217 956 l 350 956 l 544 0 l 447 0 m 286 828 l 278 828 l 185 351 l 379 351 l 286 828 m 425 1233 q 417 1128 425 1167 q 377 1065 408 1089 q 282 1042 346 1042 q 188 1065 218 1042 q 150 1128 158 1089 q 142 1233 142 1167 l 210 1233 q 213 1156 210 1181 q 232 1117 217 1131 q 282 1103 247 1103 q 333 1117 317 1103 q 353 1157 349 1132 q 357 1233 357 1182 l 425 1233 m 250 1278 l 178 1467 l 178 1474 l 272 1474 l 319 1285 l 319 1278 l 250 1278 z "},"Ẳ":{"ha":567,"x_min":21,"x_max":544,"o":"m 447 0 l 393 265 l 171 265 l 118 0 l 21 0 l 217 956 l 350 956 l 544 0 l 447 0 m 286 828 l 278 828 l 185 351 l 379 351 l 286 828 m 419 1233 q 411 1128 419 1167 q 372 1065 403 1089 q 276 1042 340 1042 q 183 1065 213 1042 q 144 1128 153 1089 q 136 1233 136 1167 l 204 1233 q 208 1156 204 1181 q 226 1117 211 1131 q 276 1103 242 1103 q 327 1117 311 1103 q 347 1157 343 1132 q 351 1233 351 1182 l 419 1233 m 229 1256 q 240 1295 229 1283 q 276 1317 250 1307 l 292 1321 q 338 1341 326 1331 q 350 1376 350 1351 q 345 1403 350 1394 q 325 1415 340 1411 q 275 1418 310 1418 q 164 1414 228 1418 l 164 1471 q 288 1483 239 1483 q 391 1463 361 1483 q 421 1390 421 1442 q 412 1326 421 1347 q 364 1292 403 1306 l 351 1286 q 311 1271 322 1276 q 297 1258 300 1265 q 294 1236 294 1251 l 229 1236 l 229 1256 z "},"Ẵ":{"ha":567,"x_min":21,"x_max":544,"o":"m 447 0 l 393 265 l 171 265 l 118 0 l 21 0 l 217 956 l 350 956 l 544 0 l 447 0 m 286 828 l 278 828 l 185 351 l 379 351 l 286 828 m 422 1233 q 414 1128 422 1167 q 374 1065 406 1089 q 279 1042 343 1042 q 185 1065 215 1042 q 147 1128 156 1089 q 139 1233 139 1167 l 207 1233 q 210 1156 207 1181 q 229 1117 214 1131 q 279 1103 244 1103 q 330 1117 314 1103 q 350 1157 346 1132 q 354 1233 354 1182 l 422 1233 m 451 1474 q 438 1358 451 1390 q 375 1326 424 1326 q 276 1357 338 1326 q 233 1378 250 1371 q 199 1385 215 1385 q 178 1369 183 1385 q 174 1310 174 1353 l 113 1310 q 127 1426 113 1393 q 189 1458 142 1458 q 237 1449 213 1458 q 292 1425 261 1440 q 333 1406 317 1413 q 365 1400 350 1400 q 387 1415 382 1400 q 392 1474 392 1431 l 451 1474 z "},"Ǎ":{"ha":567,"x_min":21,"x_max":544,"o":"m 447 0 l 393 265 l 171 265 l 118 0 l 21 0 l 217 956 l 350 956 l 544 0 l 447 0 m 286 828 l 278 828 l 185 351 l 379 351 l 286 828 m 232 1047 l 139 1225 l 139 1233 l 204 1233 l 282 1104 l 361 1233 l 426 1233 l 426 1225 l 333 1047 l 232 1047 z "},"Â":{"ha":567,"x_min":21,"x_max":544,"o":"m 447 0 l 393 265 l 171 265 l 118 0 l 21 0 l 217 956 l 350 956 l 544 0 l 447 0 m 286 828 l 278 828 l 185 351 l 379 351 l 286 828 m 139 1042 l 139 1050 l 232 1228 l 333 1228 l 426 1050 l 426 1042 l 361 1042 l 282 1171 l 204 1042 l 139 1042 z "},"Ấ":{"ha":567,"x_min":21,"x_max":544,"o":"m 447 0 l 393 265 l 171 265 l 118 0 l 21 0 l 217 956 l 350 956 l 544 0 l 447 0 m 286 828 l 278 828 l 185 351 l 379 351 l 286 828 m 139 1022 l 139 1031 l 232 1208 l 333 1208 l 426 1031 l 426 1022 l 361 1022 l 282 1151 l 204 1022 l 139 1022 m 351 1218 l 351 1225 l 399 1414 l 493 1414 l 493 1407 l 421 1218 l 351 1218 z "},"Ậ":{"ha":567,"x_min":21,"x_max":544,"o":"m 447 0 l 393 265 l 171 265 l 118 0 l 21 0 l 217 956 l 350 956 l 544 0 l 447 0 m 286 828 l 278 828 l 185 351 l 379 351 l 286 828 m 231 -207 l 231 -86 l 336 -86 l 336 -207 l 231 -207 m 139 1047 l 139 1056 l 232 1233 l 333 1233 l 426 1056 l 426 1047 l 361 1047 l 282 1176 l 204 1047 l 139 1047 z "},"Ầ":{"ha":567,"x_min":21,"x_max":544,"o":"m 447 0 l 393 265 l 171 265 l 118 0 l 21 0 l 217 956 l 350 956 l 544 0 l 447 0 m 286 828 l 278 828 l 185 351 l 379 351 l 286 828 m 135 1022 l 135 1031 l 228 1208 l 329 1208 l 422 1031 l 422 1022 l 357 1022 l 278 1151 l 200 1022 l 135 1022 m 354 1218 l 282 1407 l 282 1414 l 376 1414 l 424 1225 l 424 1218 l 354 1218 z "},"Ẩ":{"ha":567,"x_min":21,"x_max":544,"o":"m 447 0 l 393 265 l 171 265 l 118 0 l 21 0 l 217 956 l 350 956 l 544 0 l 447 0 m 286 828 l 278 828 l 185 351 l 379 351 l 286 828 m 139 1024 l 139 1032 l 232 1210 l 333 1210 l 426 1032 l 426 1024 l 361 1024 l 282 1153 l 204 1024 l 139 1024 m 343 1236 q 353 1276 343 1264 q 390 1297 364 1288 l 406 1301 q 452 1322 440 1311 q 464 1357 464 1332 q 459 1383 464 1375 q 439 1395 454 1392 q 389 1399 424 1399 q 278 1394 342 1399 l 278 1451 q 401 1464 353 1464 q 505 1443 475 1464 q 535 1371 535 1422 q 526 1307 535 1328 q 478 1272 517 1286 l 465 1267 q 425 1251 436 1257 q 411 1239 414 1246 q 408 1217 408 1232 l 343 1217 l 343 1236 z "},"Ẫ":{"ha":567,"x_min":21,"x_max":544,"o":"m 447 0 l 393 265 l 171 265 l 118 0 l 21 0 l 217 956 l 350 956 l 544 0 l 447 0 m 286 828 l 278 828 l 185 351 l 379 351 l 286 828 m 136 1024 l 136 1032 l 229 1210 l 331 1210 l 424 1032 l 424 1024 l 358 1024 l 279 1153 l 201 1024 l 136 1024 m 451 1450 q 438 1335 451 1367 q 375 1303 424 1303 q 276 1333 338 1303 q 233 1354 250 1347 q 199 1361 215 1361 q 178 1345 183 1361 q 174 1286 174 1329 l 113 1286 q 127 1402 113 1369 q 189 1435 142 1435 q 237 1426 213 1435 q 292 1401 261 1417 q 333 1383 317 1389 q 365 1376 350 1376 q 387 1392 382 1376 q 392 1450 392 1407 l 451 1450 z "},"Ȁ":{"ha":567,"x_min":21,"x_max":544,"o":"m 447 0 l 393 265 l 171 265 l 118 0 l 21 0 l 217 956 l 350 956 l 544 0 l 447 0 m 286 828 l 278 828 l 185 351 l 379 351 l 286 828 m 238 1050 l 176 1050 l 113 1208 l 113 1214 l 197 1214 l 238 1057 l 238 1050 m 389 1050 l 328 1050 l 264 1208 l 264 1214 l 349 1214 l 389 1057 l 389 1050 z "},"Ä":{"ha":567,"x_min":21,"x_max":544,"o":"m 447 0 l 393 265 l 171 265 l 118 0 l 21 0 l 217 956 l 350 956 l 544 0 l 447 0 m 286 828 l 278 828 l 185 351 l 379 351 l 286 828 m 124 1072 l 124 1176 l 213 1176 l 213 1072 l 124 1072 m 356 1072 l 356 1176 l 444 1176 l 444 1072 l 356 1072 z "},"Ạ":{"ha":567,"x_min":21,"x_max":544,"o":"m 447 0 l 393 265 l 171 265 l 118 0 l 21 0 l 217 956 l 350 956 l 544 0 l 447 0 m 286 828 l 278 828 l 185 351 l 379 351 l 286 828 m 231 -207 l 231 -86 l 336 -86 l 336 -207 l 231 -207 z "},"À":{"ha":567,"x_min":21,"x_max":544,"o":"m 447 0 l 393 265 l 171 265 l 118 0 l 21 0 l 217 956 l 350 956 l 544 0 l 447 0 m 286 828 l 278 828 l 185 351 l 379 351 l 286 828 m 254 1042 l 182 1231 l 182 1238 l 276 1238 l 324 1049 l 324 1042 l 254 1042 z "},"Ả":{"ha":567,"x_min":21,"x_max":544,"o":"m 447 0 l 393 265 l 171 265 l 118 0 l 21 0 l 217 956 l 350 956 l 544 0 l 447 0 m 286 828 l 278 828 l 185 351 l 379 351 l 286 828 m 219 1046 q 230 1085 219 1074 q 267 1107 240 1097 l 282 1111 q 328 1131 317 1121 q 340 1167 340 1142 q 335 1193 340 1185 q 315 1205 331 1201 q 265 1208 300 1208 q 154 1204 218 1208 l 154 1261 q 278 1274 229 1274 q 381 1253 351 1274 q 411 1181 411 1232 q 402 1116 411 1136 q 354 1082 393 1096 l 342 1076 q 301 1061 313 1067 q 288 1049 290 1056 q 285 1026 285 1042 l 219 1026 l 219 1046 z "},"Ȃ":{"ha":567,"x_min":21,"x_max":544,"o":"m 447 0 l 393 265 l 171 265 l 118 0 l 21 0 l 217 956 l 350 956 l 544 0 l 447 0 m 286 828 l 278 828 l 185 351 l 379 351 l 286 828 m 142 1050 q 150 1156 142 1117 q 190 1218 158 1194 q 285 1242 221 1242 q 378 1218 349 1242 q 417 1156 408 1194 q 425 1050 425 1117 l 357 1050 q 353 1128 357 1103 q 335 1167 350 1153 q 285 1181 319 1181 q 234 1166 250 1181 q 214 1126 218 1151 q 210 1050 210 1101 l 142 1050 z "},"Ā":{"ha":567,"x_min":21,"x_max":544,"o":"m 447 0 l 393 265 l 171 265 l 118 0 l 21 0 l 217 956 l 350 956 l 544 0 l 447 0 m 286 828 l 278 828 l 185 351 l 379 351 l 286 828 m 167 1146 l 167 1233 l 400 1233 l 400 1146 l 167 1146 z "},"Ą":{"ha":567,"x_min":21,"x_max":544,"o":"m 443 -149 q 503 -210 443 -210 l 524 -208 l 524 -269 q 481 -272 496 -272 q 394 -243 421 -272 q 367 -165 367 -214 q 389 -79 367 -125 q 446 4 411 -33 l 393 265 l 171 265 l 118 0 l 21 0 l 217 956 l 350 956 l 544 0 l 517 0 q 466 -70 489 -26 q 443 -149 443 -114 m 185 351 l 379 351 l 286 828 l 278 828 l 185 351 z "},"Å":{"ha":567,"x_min":21,"x_max":544,"o":"m 544 0 l 447 0 l 393 265 l 171 265 l 118 0 l 21 0 l 215 949 q 164 983 175 958 q 153 1068 153 1008 q 161 1147 153 1121 q 197 1185 169 1172 q 283 1197 224 1197 q 370 1185 343 1197 q 406 1147 397 1172 q 414 1068 414 1121 q 402 985 414 1011 q 353 950 390 958 l 544 0 m 283 1142 q 242 1135 256 1142 q 226 1115 229 1129 q 222 1068 222 1100 q 226 1022 222 1036 q 242 1003 229 1008 q 283 997 254 997 q 334 1010 324 997 q 344 1068 344 1024 q 334 1127 344 1113 q 283 1142 324 1142 m 185 351 l 379 351 l 286 828 l 278 828 l 185 351 z "},"Ǻ":{"ha":567,"x_min":21,"x_max":544,"o":"m 544 0 l 447 0 l 393 265 l 171 265 l 118 0 l 21 0 l 215 949 q 164 983 175 958 q 153 1068 153 1008 q 161 1147 153 1121 q 197 1185 169 1172 q 283 1197 224 1197 q 370 1185 343 1197 q 406 1147 397 1172 q 414 1068 414 1121 q 402 985 414 1011 q 353 950 390 958 l 544 0 m 283 1142 q 242 1135 256 1142 q 226 1115 229 1129 q 222 1068 222 1100 q 226 1022 222 1036 q 242 1003 229 1008 q 283 997 254 997 q 334 1010 324 997 q 344 1068 344 1024 q 334 1127 344 1113 q 283 1142 324 1142 m 185 351 l 379 351 l 286 828 l 278 828 l 185 351 m 249 1279 l 249 1286 l 296 1475 l 390 1475 l 390 1468 l 318 1279 l 249 1279 z "},"Ã":{"ha":567,"x_min":21,"x_max":544,"o":"m 447 0 l 393 265 l 171 265 l 118 0 l 21 0 l 217 956 l 350 956 l 544 0 l 447 0 m 286 828 l 278 828 l 185 351 l 379 351 l 286 828 m 453 1204 q 439 1089 453 1121 q 376 1057 425 1057 q 278 1088 339 1057 q 234 1108 251 1101 q 200 1115 217 1115 q 180 1099 185 1115 q 175 1040 175 1083 l 114 1040 q 128 1156 114 1124 q 190 1189 143 1189 q 239 1180 215 1189 q 293 1156 263 1171 q 335 1137 318 1143 q 367 1131 351 1131 q 388 1146 383 1131 q 393 1204 393 1161 l 453 1204 z "},"Æ":{"ha":760,"x_min":-6,"x_max":719,"o":"m 422 0 l 386 265 l 163 265 l 90 0 l -6 0 l 254 956 l 719 956 l 719 867 l 401 867 l 450 528 l 686 528 l 686 439 l 460 439 l 510 89 l 719 89 l 719 0 l 422 0 m 315 828 l 308 828 l 179 351 l 376 351 l 315 828 z "},"Ǽ":{"ha":760,"x_min":-6,"x_max":719,"o":"m 422 0 l 386 265 l 163 265 l 90 0 l -6 0 l 254 956 l 719 956 l 719 867 l 401 867 l 450 528 l 686 528 l 686 439 l 460 439 l 510 89 l 719 89 l 719 0 l 422 0 m 315 828 l 308 828 l 179 351 l 376 351 l 315 828 m 346 1038 l 346 1044 l 393 1233 l 488 1233 l 488 1226 l 415 1038 l 346 1038 z "},"B":{"ha":561,"x_min":78,"x_max":510,"o":"m 78 956 l 301 956 q 456 894 410 956 q 503 717 503 833 q 472 563 503 618 q 376 492 442 508 l 376 486 q 481 411 453 469 q 510 251 510 353 q 464 67 510 133 q 296 0 418 0 l 78 0 l 78 956 m 283 528 q 377 568 346 528 q 408 697 408 608 q 398 799 408 763 q 360 851 388 835 q 283 867 333 867 l 174 867 l 174 528 l 283 528 m 286 89 q 387 128 360 89 q 414 265 414 167 q 385 401 414 363 q 286 440 356 440 l 174 440 l 174 89 l 286 89 z "},"C":{"ha":442,"x_min":60,"x_max":410,"o":"m 410 7 q 354 -6 388 -1 q 290 -11 321 -11 q 139 26 186 -11 q 76 163 92 64 q 60 478 60 263 q 76 791 60 692 q 140 928 93 890 q 290 967 188 967 q 354 961 321 967 q 407 949 388 956 l 407 867 q 307 878 360 878 q 203 852 233 878 q 165 749 174 826 q 156 478 156 671 q 165 207 156 285 q 203 103 174 129 q 307 78 233 78 q 410 89 368 78 l 410 7 z "},"Ć":{"ha":442,"x_min":60,"x_max":410,"o":"m 410 7 q 354 -6 388 -1 q 290 -11 321 -11 q 139 26 186 -11 q 76 163 92 64 q 60 478 60 263 q 76 791 60 692 q 140 928 93 890 q 290 967 188 967 q 354 961 321 967 q 407 949 388 956 l 407 867 q 307 878 360 878 q 203 852 233 878 q 165 749 174 826 q 156 478 156 671 q 165 207 156 285 q 203 103 174 129 q 307 78 233 78 q 410 89 368 78 l 410 7 m 186 1038 l 186 1044 l 233 1233 l 328 1233 l 328 1226 l 256 1038 l 186 1038 z "},"Č":{"ha":442,"x_min":60,"x_max":410,"o":"m 410 7 q 354 -6 388 -1 q 290 -11 321 -11 q 139 26 186 -11 q 76 163 92 64 q 60 478 60 263 q 76 791 60 692 q 140 928 93 890 q 290 967 188 967 q 354 961 321 967 q 407 949 388 956 l 407 867 q 307 878 360 878 q 203 852 233 878 q 165 749 174 826 q 156 478 156 671 q 165 207 156 285 q 203 103 174 129 q 307 78 233 78 q 410 89 368 78 l 410 7 m 169 1047 l 76 1225 l 76 1233 l 142 1233 l 219 1104 l 299 1233 l 364 1233 l 364 1225 l 271 1047 l 169 1047 z "},"Ç":{"ha":442,"x_min":60,"x_max":410,"o":"m 307 78 q 410 89 368 78 l 410 7 q 354 -6 388 -1 q 290 -11 321 -11 q 250 -10 263 -11 l 196 -262 l 108 -262 l 108 -256 l 189 1 q 106 67 133 18 q 69 210 79 117 q 60 478 60 303 q 76 791 60 692 q 140 928 93 890 q 290 967 188 967 q 354 961 321 967 q 407 949 388 956 l 407 867 q 307 878 360 878 q 203 852 233 878 q 165 749 174 826 q 156 478 156 671 q 165 207 156 285 q 203 103 174 129 q 307 78 233 78 z "},"Ĉ":{"ha":442,"x_min":60,"x_max":410,"o":"m 410 7 q 354 -6 388 -1 q 290 -11 321 -11 q 139 26 186 -11 q 76 163 92 64 q 60 478 60 263 q 76 791 60 692 q 140 928 93 890 q 290 967 188 967 q 354 961 321 967 q 407 949 388 956 l 407 867 q 307 878 360 878 q 203 852 233 878 q 165 749 174 826 q 156 478 156 671 q 165 207 156 285 q 203 103 174 129 q 307 78 233 78 q 410 89 368 78 l 410 7 m 76 1047 l 76 1056 l 169 1233 l 271 1233 l 364 1056 l 364 1047 l 299 1047 l 219 1176 l 142 1047 l 76 1047 z "},"Ċ":{"ha":442,"x_min":60,"x_max":410,"o":"m 410 7 q 354 -6 388 -1 q 290 -11 321 -11 q 139 26 186 -11 q 76 163 92 64 q 60 478 60 263 q 76 791 60 692 q 140 928 93 890 q 290 967 188 967 q 354 961 321 967 q 407 949 388 956 l 407 867 q 307 878 360 878 q 203 852 233 878 q 165 749 174 826 q 156 478 156 671 q 165 207 156 285 q 203 103 174 129 q 307 78 233 78 q 410 89 368 78 l 410 7 m 175 1111 l 175 1215 l 264 1215 l 264 1111 l 175 1111 z "},"D":{"ha":568,"x_min":78,"x_max":508,"o":"m 78 956 l 274 956 q 433 919 385 956 q 494 788 481 882 q 508 478 508 694 q 494 168 508 263 q 433 37 481 74 q 274 0 385 0 l 78 0 l 78 956 m 274 89 q 367 110 340 89 q 403 208 393 131 q 413 478 413 286 q 403 747 413 669 q 367 846 393 825 q 274 867 340 867 l 174 867 l 174 89 l 274 89 z "},"Ǳ":{"ha":1043,"x_min":78,"x_max":1014,"o":"m 78 956 l 274 956 q 433 919 385 956 q 494 788 481 882 q 508 478 508 694 q 494 168 508 263 q 433 37 481 74 q 274 0 385 0 l 78 0 l 78 956 m 274 89 q 367 110 340 89 q 403 208 393 131 q 413 478 413 286 q 403 747 413 669 q 367 846 393 825 q 274 867 340 867 l 174 867 l 174 89 l 274 89 m 597 0 l 597 83 l 906 867 l 607 867 l 607 956 l 1008 956 l 1008 872 l 701 89 l 1014 89 l 1014 0 l 597 0 z "},"Ǆ":{"ha":1043,"x_min":78,"x_max":1014,"o":"m 78 956 l 274 956 q 433 919 385 956 q 494 788 481 882 q 508 478 508 694 q 494 168 508 263 q 433 37 481 74 q 274 0 385 0 l 78 0 l 78 956 m 274 89 q 367 110 340 89 q 403 208 393 131 q 413 478 413 286 q 403 747 413 669 q 367 846 393 825 q 274 867 340 867 l 174 867 l 174 89 l 274 89 m 597 0 l 597 83 l 906 867 l 607 867 l 607 956 l 1008 956 l 1008 872 l 701 89 l 1014 89 l 1014 0 l 597 0 m 760 1047 l 667 1225 l 667 1233 l 732 1233 l 810 1104 l 889 1233 l 954 1233 l 954 1225 l 861 1047 l 760 1047 z "},"Ð":{"ha":568,"x_min":11,"x_max":508,"o":"m 78 439 l 11 439 l 11 529 l 78 529 l 78 956 l 274 956 q 433 919 385 956 q 494 788 481 882 q 508 478 508 694 q 494 168 508 263 q 433 37 481 74 q 274 0 385 0 l 78 0 l 78 439 m 274 89 q 367 110 340 89 q 403 208 393 131 q 413 478 413 286 q 403 747 413 669 q 367 846 393 825 q 274 867 340 867 l 174 867 l 174 529 l 301 529 l 301 439 l 174 439 l 174 89 l 274 89 z "},"Ď":{"ha":568,"x_min":78,"x_max":508,"o":"m 78 956 l 274 956 q 433 919 385 956 q 494 788 481 882 q 508 478 508 694 q 494 168 508 263 q 433 37 481 74 q 274 0 385 0 l 78 0 l 78 956 m 274 89 q 367 110 340 89 q 403 208 393 131 q 413 478 413 286 q 403 747 413 669 q 367 846 393 825 q 274 867 340 867 l 174 867 l 174 89 l 274 89 m 233 1047 l 140 1225 l 140 1233 l 206 1233 l 283 1104 l 363 1233 l 428 1233 l 428 1225 l 335 1047 l 233 1047 z "},"Đ":{"ha":568,"x_min":11,"x_max":508,"o":"m 78 439 l 11 439 l 11 529 l 78 529 l 78 956 l 274 956 q 433 919 385 956 q 494 788 481 882 q 508 478 508 694 q 494 168 508 263 q 433 37 481 74 q 274 0 385 0 l 78 0 l 78 439 m 274 89 q 367 110 340 89 q 403 208 393 131 q 413 478 413 286 q 403 747 413 669 q 367 846 393 825 q 274 867 340 867 l 174 867 l 174 529 l 301 529 l 301 439 l 174 439 l 174 89 l 274 89 z "},"Ḍ":{"ha":568,"x_min":78,"x_max":508,"o":"m 78 956 l 274 956 q 433 919 385 956 q 494 788 481 882 q 508 478 508 694 q 494 168 508 263 q 433 37 481 74 q 274 0 385 0 l 78 0 l 78 956 m 274 89 q 367 110 340 89 q 403 208 393 131 q 413 478 413 286 q 403 747 413 669 q 367 846 393 825 q 274 867 340 867 l 174 867 l 174 89 l 274 89 m 232 -207 l 232 -86 l 338 -86 l 338 -207 l 232 -207 z "},"ǲ":{"ha":1001,"x_min":78,"x_max":965,"o":"m 78 956 l 274 956 q 433 919 385 956 q 494 788 481 882 q 508 478 508 694 q 494 168 508 263 q 433 37 481 74 q 274 0 385 0 l 78 0 l 78 956 m 274 89 q 367 110 340 89 q 403 208 393 131 q 413 478 413 286 q 403 747 413 669 q 367 846 393 825 q 274 867 340 867 l 174 867 l 174 89 l 274 89 m 604 0 l 604 72 l 861 628 l 613 628 l 613 708 l 964 708 l 964 636 l 707 81 l 965 81 l 965 0 l 604 0 z "},"ǅ":{"ha":1001,"x_min":78,"x_max":965,"o":"m 78 956 l 274 956 q 433 919 385 956 q 494 788 481 882 q 508 478 508 694 q 494 168 508 263 q 433 37 481 74 q 274 0 385 0 l 78 0 l 78 956 m 274 89 q 367 110 340 89 q 403 208 393 131 q 413 478 413 286 q 403 747 413 669 q 367 846 393 825 q 274 867 340 867 l 174 867 l 174 89 l 274 89 m 604 0 l 604 72 l 861 628 l 613 628 l 613 708 l 964 708 l 964 636 l 707 81 l 965 81 l 965 0 l 604 0 m 740 846 l 647 1024 l 647 1032 l 713 1032 l 790 903 l 869 1032 l 935 1032 l 935 1024 l 842 846 l 740 846 z "},"E":{"ha":482,"x_min":78,"x_max":442,"o":"m 78 0 l 78 956 l 442 956 l 442 867 l 175 867 l 175 528 l 408 528 l 408 439 l 175 439 l 175 89 l 442 89 l 442 0 l 78 0 z "},"É":{"ha":482,"x_min":78,"x_max":442,"o":"m 78 0 l 78 956 l 442 956 l 442 867 l 175 867 l 175 528 l 408 528 l 408 439 l 175 439 l 175 89 l 442 89 l 442 0 l 78 0 m 229 1042 l 229 1049 l 276 1238 l 371 1238 l 371 1231 l 299 1042 l 229 1042 z "},"Ĕ":{"ha":482,"x_min":78,"x_max":442,"o":"m 78 0 l 78 956 l 442 956 l 442 867 l 175 867 l 175 528 l 408 528 l 408 439 l 175 439 l 175 89 l 442 89 l 442 0 l 78 0 m 401 1233 q 393 1128 401 1167 q 353 1065 385 1089 q 258 1042 322 1042 q 165 1065 194 1042 q 126 1128 135 1089 q 118 1233 118 1167 l 186 1233 q 190 1156 186 1181 q 208 1117 193 1131 q 258 1103 224 1103 q 309 1117 293 1103 q 329 1157 325 1132 q 333 1233 333 1182 l 401 1233 z "},"Ě":{"ha":482,"x_min":78,"x_max":442,"o":"m 78 0 l 78 956 l 442 956 l 442 867 l 175 867 l 175 528 l 408 528 l 408 439 l 175 439 l 175 89 l 442 89 l 442 0 l 78 0 m 208 1047 l 115 1225 l 115 1233 l 181 1233 l 258 1104 l 338 1233 l 403 1233 l 403 1225 l 310 1047 l 208 1047 z "},"Ê":{"ha":482,"x_min":78,"x_max":442,"o":"m 78 0 l 78 956 l 442 956 l 442 867 l 175 867 l 175 528 l 408 528 l 408 439 l 175 439 l 175 89 l 442 89 l 442 0 l 78 0 m 117 1042 l 117 1050 l 210 1228 l 311 1228 l 404 1050 l 404 1042 l 339 1042 l 260 1171 l 182 1042 l 117 1042 z "},"Ế":{"ha":482,"x_min":78,"x_max":469,"o":"m 78 0 l 78 956 l 442 956 l 442 867 l 175 867 l 175 528 l 408 528 l 408 439 l 175 439 l 175 89 l 442 89 l 442 0 l 78 0 m 115 1022 l 115 1031 l 208 1208 l 310 1208 l 403 1031 l 403 1022 l 338 1022 l 258 1151 l 181 1022 l 115 1022 m 328 1218 l 328 1225 l 375 1414 l 469 1414 l 469 1407 l 397 1218 l 328 1218 z "},"Ệ":{"ha":482,"x_min":78,"x_max":442,"o":"m 78 0 l 78 956 l 442 956 l 442 867 l 175 867 l 175 528 l 408 528 l 408 439 l 175 439 l 175 89 l 442 89 l 442 0 l 78 0 m 207 -207 l 207 -86 l 313 -86 l 313 -207 l 207 -207 m 115 1047 l 115 1056 l 208 1233 l 310 1233 l 403 1056 l 403 1047 l 338 1047 l 258 1176 l 181 1047 l 115 1047 z "},"Ề":{"ha":482,"x_min":78,"x_max":442,"o":"m 78 0 l 78 956 l 442 956 l 442 867 l 175 867 l 175 528 l 408 528 l 408 439 l 175 439 l 175 89 l 442 89 l 442 0 l 78 0 m 111 1022 l 111 1031 l 204 1208 l 306 1208 l 399 1031 l 399 1022 l 333 1022 l 254 1151 l 176 1022 l 111 1022 m 331 1218 l 258 1407 l 258 1414 l 353 1414 l 400 1225 l 400 1218 l 331 1218 z "},"Ể":{"ha":482,"x_min":78,"x_max":511,"o":"m 78 0 l 78 956 l 442 956 l 442 867 l 175 867 l 175 528 l 408 528 l 408 439 l 175 439 l 175 89 l 442 89 l 442 0 l 78 0 m 115 1024 l 115 1032 l 208 1210 l 310 1210 l 403 1032 l 403 1024 l 338 1024 l 258 1153 l 181 1024 l 115 1024 m 319 1236 q 330 1276 319 1264 q 367 1297 340 1288 l 382 1301 q 428 1322 417 1311 q 440 1357 440 1332 q 435 1383 440 1375 q 415 1395 431 1392 q 365 1399 400 1399 q 254 1394 318 1399 l 254 1451 q 378 1464 329 1464 q 481 1443 451 1464 q 511 1371 511 1422 q 502 1307 511 1328 q 454 1272 493 1286 l 442 1267 q 401 1251 413 1257 q 388 1239 390 1246 q 385 1217 385 1232 l 319 1217 l 319 1236 z "},"Ễ":{"ha":482,"x_min":78,"x_max":442,"o":"m 78 0 l 78 956 l 442 956 l 442 867 l 175 867 l 175 528 l 408 528 l 408 439 l 175 439 l 175 89 l 442 89 l 442 0 l 78 0 m 113 1024 l 113 1032 l 206 1210 l 307 1210 l 400 1032 l 400 1024 l 335 1024 l 256 1153 l 178 1024 l 113 1024 m 428 1450 q 414 1335 428 1367 q 351 1303 400 1303 q 253 1333 314 1303 q 209 1354 226 1347 q 175 1361 192 1361 q 155 1345 160 1361 q 150 1286 150 1329 l 89 1286 q 103 1402 89 1369 q 165 1435 118 1435 q 213 1426 189 1435 q 268 1401 238 1417 q 310 1383 293 1389 q 342 1376 326 1376 q 363 1392 358 1376 q 368 1450 368 1407 l 428 1450 z "},"Ȅ":{"ha":482,"x_min":78,"x_max":442,"o":"m 78 0 l 78 956 l 442 956 l 442 867 l 175 867 l 175 528 l 408 528 l 408 439 l 175 439 l 175 89 l 442 89 l 442 0 l 78 0 m 214 1050 l 153 1050 l 89 1208 l 89 1214 l 174 1214 l 214 1057 l 214 1050 m 365 1050 l 304 1050 l 240 1208 l 240 1214 l 325 1214 l 365 1057 l 365 1050 z "},"Ë":{"ha":482,"x_min":78,"x_max":442,"o":"m 78 0 l 78 956 l 442 956 l 442 867 l 175 867 l 175 528 l 408 528 l 408 439 l 175 439 l 175 89 l 442 89 l 442 0 l 78 0 m 101 1072 l 101 1176 l 190 1176 l 190 1072 l 101 1072 m 333 1072 l 333 1176 l 422 1176 l 422 1072 l 333 1072 z "},"Ė":{"ha":482,"x_min":78,"x_max":442,"o":"m 78 0 l 78 956 l 442 956 l 442 867 l 175 867 l 175 528 l 408 528 l 408 439 l 175 439 l 175 89 l 442 89 l 442 0 l 78 0 m 214 1111 l 214 1215 l 303 1215 l 303 1111 l 214 1111 z "},"Ẹ":{"ha":482,"x_min":78,"x_max":442,"o":"m 78 0 l 78 956 l 442 956 l 442 867 l 175 867 l 175 528 l 408 528 l 408 439 l 175 439 l 175 89 l 442 89 l 442 0 l 78 0 m 207 -207 l 207 -86 l 313 -86 l 313 -207 l 207 -207 z "},"È":{"ha":482,"x_min":78,"x_max":442,"o":"m 78 0 l 78 956 l 442 956 l 442 867 l 175 867 l 175 528 l 408 528 l 408 439 l 175 439 l 175 89 l 442 89 l 442 0 l 78 0 m 242 1042 l 169 1231 l 169 1238 l 264 1238 l 311 1049 l 311 1042 l 242 1042 z "},"Ẻ":{"ha":482,"x_min":78,"x_max":442,"o":"m 78 0 l 78 956 l 442 956 l 442 867 l 175 867 l 175 528 l 408 528 l 408 439 l 175 439 l 175 89 l 442 89 l 442 0 l 78 0 m 196 1046 q 206 1085 196 1074 q 243 1107 217 1097 l 258 1111 q 305 1131 293 1121 q 317 1167 317 1142 q 312 1193 317 1185 q 292 1205 307 1201 q 242 1208 276 1208 q 131 1204 194 1208 l 131 1261 q 254 1274 206 1274 q 358 1253 328 1274 q 388 1181 388 1232 q 378 1116 388 1136 q 331 1082 369 1096 l 318 1076 q 278 1061 289 1067 q 264 1049 267 1056 q 261 1026 261 1042 l 196 1026 l 196 1046 z "},"Ȇ":{"ha":482,"x_min":78,"x_max":442,"o":"m 78 0 l 78 956 l 442 956 l 442 867 l 175 867 l 175 528 l 408 528 l 408 439 l 175 439 l 175 89 l 442 89 l 442 0 l 78 0 m 118 1050 q 126 1156 118 1117 q 166 1218 135 1194 q 261 1242 197 1242 q 355 1218 325 1242 q 393 1156 385 1194 q 401 1050 401 1117 l 333 1050 q 330 1128 333 1103 q 311 1167 326 1153 q 261 1181 296 1181 q 210 1166 226 1181 q 190 1126 194 1151 q 186 1050 186 1101 l 118 1050 z "},"Ē":{"ha":482,"x_min":78,"x_max":442,"o":"m 78 0 l 78 956 l 442 956 l 442 867 l 175 867 l 175 528 l 408 528 l 408 439 l 175 439 l 175 89 l 442 89 l 442 0 l 78 0 m 143 1146 l 143 1233 l 376 1233 l 376 1146 l 143 1146 z "},"Ę":{"ha":482,"x_min":78,"x_max":442,"o":"m 392 -272 q 304 -243 332 -272 q 276 -169 276 -214 q 302 -81 276 -125 q 368 0 328 -36 l 78 0 l 78 956 l 442 956 l 442 867 l 175 867 l 175 528 l 408 528 l 408 439 l 175 439 l 175 89 l 442 89 l 442 0 q 381 -69 410 -25 q 353 -151 353 -112 q 413 -210 353 -210 l 433 -208 l 433 -269 q 392 -272 406 -272 z "},"Ẽ":{"ha":482,"x_min":78,"x_max":442,"o":"m 78 0 l 78 956 l 442 956 l 442 867 l 175 867 l 175 528 l 408 528 l 408 439 l 175 439 l 175 89 l 442 89 l 442 0 l 78 0 m 428 1233 q 414 1118 428 1150 q 351 1086 400 1086 q 253 1117 314 1086 q 209 1138 226 1131 q 175 1144 192 1144 q 155 1128 160 1144 q 150 1069 150 1113 l 89 1069 q 103 1185 89 1153 q 165 1218 118 1218 q 213 1209 189 1218 q 268 1185 238 1200 q 310 1166 293 1172 q 342 1160 326 1160 q 363 1175 358 1160 q 368 1233 368 1190 l 428 1233 z "},"F":{"ha":454,"x_min":78,"x_max":425,"o":"m 78 0 l 78 956 l 425 956 l 425 867 l 175 867 l 175 508 l 397 508 l 397 419 l 175 419 l 175 0 l 78 0 z "},"G":{"ha":551,"x_min":60,"x_max":493,"o":"m 289 422 l 289 510 l 493 510 l 493 14 q 399 -4 451 3 q 303 -11 346 -11 q 149 26 200 -11 q 79 164 99 63 q 60 478 60 265 q 79 790 60 689 q 150 929 99 892 q 310 967 201 967 q 406 960 354 967 q 492 940 457 953 l 492 858 q 410 872 453 867 q 343 878 368 878 q 219 857 254 878 q 169 756 183 836 q 156 478 156 675 q 165 213 156 293 q 205 104 175 133 q 304 75 235 75 q 403 88 363 75 l 403 422 l 289 422 z "},"Ǵ":{"ha":551,"x_min":60,"x_max":493,"o":"m 289 422 l 289 510 l 493 510 l 493 14 q 399 -4 451 3 q 303 -11 346 -11 q 149 26 200 -11 q 79 164 99 63 q 60 478 60 265 q 79 790 60 689 q 150 929 99 892 q 310 967 201 967 q 406 960 354 967 q 492 940 457 953 l 492 858 q 410 872 453 867 q 343 878 368 878 q 219 857 254 878 q 169 756 183 836 q 156 478 156 675 q 165 213 156 293 q 205 104 175 133 q 304 75 235 75 q 403 88 363 75 l 403 422 l 289 422 m 240 1038 l 240 1044 l 288 1233 l 382 1233 l 382 1226 l 310 1038 l 240 1038 z "},"Ğ":{"ha":551,"x_min":60,"x_max":493,"o":"m 289 422 l 289 510 l 493 510 l 493 14 q 399 -4 451 3 q 303 -11 346 -11 q 149 26 200 -11 q 79 164 99 63 q 60 478 60 265 q 79 790 60 689 q 150 929 99 892 q 310 967 201 967 q 406 960 354 967 q 492 940 457 953 l 492 858 q 410 872 453 867 q 343 878 368 878 q 219 857 254 878 q 169 756 183 836 q 156 478 156 675 q 165 213 156 293 q 205 104 175 133 q 304 75 235 75 q 403 88 363 75 l 403 422 l 289 422 m 417 1233 q 408 1128 417 1167 q 369 1065 400 1089 q 274 1042 338 1042 q 180 1065 210 1042 q 142 1128 150 1089 q 133 1233 133 1167 l 201 1233 q 205 1156 201 1181 q 224 1117 208 1131 q 274 1103 239 1103 q 324 1117 308 1103 q 344 1157 340 1132 q 349 1233 349 1182 l 417 1233 z "},"Ǧ":{"ha":551,"x_min":60,"x_max":493,"o":"m 289 422 l 289 510 l 493 510 l 493 14 q 399 -4 451 3 q 303 -11 346 -11 q 149 26 200 -11 q 79 164 99 63 q 60 478 60 265 q 79 790 60 689 q 150 929 99 892 q 310 967 201 967 q 406 960 354 967 q 492 940 457 953 l 492 858 q 410 872 453 867 q 343 878 368 878 q 219 857 254 878 q 169 756 183 836 q 156 478 156 675 q 165 213 156 293 q 205 104 175 133 q 304 75 235 75 q 403 88 363 75 l 403 422 l 289 422 m 224 1047 l 131 1225 l 131 1233 l 196 1233 l 274 1104 l 353 1233 l 418 1233 l 418 1225 l 325 1047 l 224 1047 z "},"Ĝ":{"ha":551,"x_min":60,"x_max":493,"o":"m 289 422 l 289 510 l 493 510 l 493 14 q 399 -4 451 3 q 303 -11 346 -11 q 149 26 200 -11 q 79 164 99 63 q 60 478 60 265 q 79 790 60 689 q 150 929 99 892 q 310 967 201 967 q 406 960 354 967 q 492 940 457 953 l 492 858 q 410 872 453 867 q 343 878 368 878 q 219 857 254 878 q 169 756 183 836 q 156 478 156 675 q 165 213 156 293 q 205 104 175 133 q 304 75 235 75 q 403 88 363 75 l 403 422 l 289 422 m 131 1047 l 131 1056 l 224 1233 l 325 1233 l 418 1056 l 418 1047 l 353 1047 l 274 1176 l 196 1047 l 131 1047 z "},"Ģ":{"ha":551,"x_min":60,"x_max":493,"o":"m 289 422 l 289 510 l 493 510 l 493 14 q 399 -4 451 3 q 303 -11 346 -11 q 149 26 200 -11 q 79 164 99 63 q 60 478 60 265 q 79 790 60 689 q 150 929 99 892 q 310 967 201 967 q 406 960 354 967 q 492 940 457 953 l 492 858 q 410 872 453 867 q 343 878 368 878 q 219 857 254 878 q 169 756 183 836 q 156 478 156 675 q 165 213 156 293 q 205 104 175 133 q 304 75 235 75 q 403 88 363 75 l 403 422 l 289 422 m 213 -294 q 265 -279 254 -294 q 276 -214 276 -264 l 276 -192 l 235 -192 l 235 -86 l 339 -86 l 339 -183 q 329 -281 339 -249 q 293 -327 319 -314 q 213 -340 267 -340 l 213 -294 z "},"Ġ":{"ha":551,"x_min":60,"x_max":493,"o":"m 289 422 l 289 510 l 493 510 l 493 14 q 399 -4 451 3 q 303 -11 346 -11 q 149 26 200 -11 q 79 164 99 63 q 60 478 60 265 q 79 790 60 689 q 150 929 99 892 q 310 967 201 967 q 406 960 354 967 q 492 940 457 953 l 492 858 q 410 872 453 867 q 343 878 368 878 q 219 857 254 878 q 169 756 183 836 q 156 478 156 675 q 165 213 156 293 q 205 104 175 133 q 304 75 235 75 q 403 88 363 75 l 403 422 l 289 422 m 229 1111 l 229 1215 l 318 1215 l 318 1111 l 229 1111 z "},"H":{"ha":601,"x_min":78,"x_max":524,"o":"m 426 0 l 426 438 l 175 438 l 175 0 l 78 0 l 78 956 l 175 956 l 175 529 l 426 529 l 426 956 l 524 956 l 524 0 l 426 0 z "},"Ħ":{"ha":601,"x_min":78,"x_max":524,"o":"m 426 956 l 524 956 l 524 0 l 426 0 l 426 401 l 175 401 l 175 0 l 78 0 l 78 956 l 175 956 l 175 768 l 426 768 l 426 956 m 175 493 l 426 493 l 426 678 l 175 678 l 175 493 z "},"Ĥ":{"ha":601,"x_min":78,"x_max":524,"o":"m 426 0 l 426 438 l 175 438 l 175 0 l 78 0 l 78 956 l 175 956 l 175 529 l 426 529 l 426 956 l 524 956 l 524 0 l 426 0 m 156 1047 l 156 1056 l 249 1233 l 350 1233 l 443 1056 l 443 1047 l 378 1047 l 299 1176 l 221 1047 l 156 1047 z "},"Ḥ":{"ha":601,"x_min":78,"x_max":524,"o":"m 426 0 l 426 438 l 175 438 l 175 0 l 78 0 l 78 956 l 175 956 l 175 529 l 426 529 l 426 956 l 524 956 l 524 0 l 426 0 m 247 -207 l 247 -86 l 353 -86 l 353 -207 l 247 -207 z "},"I":{"ha":263,"x_min":83,"x_max":179,"o":"m 83 0 l 83 956 l 179 956 l 179 0 l 83 0 z "},"Ĳ":{"ha":544,"x_min":83,"x_max":474,"o":"m 83 0 l 83 956 l 179 956 l 179 0 l 83 0 m 274 85 q 347 99 328 88 q 372 154 367 111 q 376 319 376 197 l 376 956 l 474 956 l 474 353 q 463 107 474 174 q 414 21 451 40 q 274 0 376 1 l 274 85 z "},"Í":{"ha":263,"x_min":83,"x_max":226,"o":"m 83 0 l 83 956 l 179 956 l 179 0 l 83 0 m 85 1042 l 85 1049 l 132 1238 l 226 1238 l 226 1231 l 154 1042 l 85 1042 z "},"Ĭ":{"ha":263,"x_min":-11,"x_max":272,"o":"m 83 0 l 83 956 l 179 956 l 179 0 l 83 0 m 272 1233 q 264 1128 272 1167 q 224 1065 256 1089 q 129 1042 193 1042 q 35 1065 65 1042 q -3 1128 6 1089 q -11 1233 -11 1167 l 57 1233 q 60 1156 57 1181 q 79 1117 64 1131 q 129 1103 94 1103 q 180 1117 164 1103 q 200 1157 196 1132 q 204 1233 204 1182 l 272 1233 z "},"Ǐ":{"ha":263,"x_min":-14,"x_max":274,"o":"m 83 0 l 83 956 l 179 956 l 179 0 l 83 0 m 79 1047 l -14 1225 l -14 1233 l 51 1233 l 129 1104 l 208 1233 l 274 1233 l 274 1225 l 181 1047 l 79 1047 z "},"Î":{"ha":263,"x_min":-12,"x_max":275,"o":"m 83 0 l 83 956 l 179 956 l 179 0 l 83 0 m -12 1042 l -12 1050 l 81 1228 l 182 1228 l 275 1050 l 275 1042 l 210 1042 l 131 1171 l 53 1042 l -12 1042 z "},"Ȉ":{"ha":263,"x_min":-40,"x_max":236,"o":"m 83 0 l 83 956 l 179 956 l 179 0 l 83 0 m 85 1050 l 24 1050 l -40 1208 l -40 1214 l 44 1214 l 85 1057 l 85 1050 m 236 1050 l 175 1050 l 111 1208 l 111 1214 l 196 1214 l 236 1057 l 236 1050 z "},"Ï":{"ha":263,"x_min":-29,"x_max":292,"o":"m 83 0 l 83 956 l 179 956 l 179 0 l 83 0 m -29 1072 l -29 1176 l 60 1176 l 60 1072 l -29 1072 m 203 1072 l 203 1176 l 292 1176 l 292 1072 l 203 1072 z "},"İ":{"ha":263,"x_min":83,"x_max":179,"o":"m 83 0 l 83 956 l 179 956 l 179 0 l 83 0 m 85 1111 l 85 1215 l 174 1215 l 174 1111 l 85 1111 z "},"Ị":{"ha":263,"x_min":78,"x_max":183,"o":"m 83 0 l 83 956 l 179 956 l 179 0 l 83 0 m 78 -207 l 78 -86 l 183 -86 l 183 -207 l 78 -207 z "},"Ì":{"ha":263,"x_min":38,"x_max":179,"o":"m 83 0 l 83 956 l 179 956 l 179 0 l 83 0 m 110 1042 l 38 1231 l 38 1238 l 132 1238 l 179 1049 l 179 1042 l 110 1042 z "},"Ỉ":{"ha":263,"x_min":1,"x_max":258,"o":"m 83 0 l 83 956 l 179 956 l 179 0 l 83 0 m 67 1046 q 77 1085 67 1074 q 114 1107 88 1097 l 129 1111 q 176 1131 164 1121 q 188 1167 188 1142 q 183 1193 188 1185 q 163 1205 178 1201 q 113 1208 147 1208 q 1 1204 65 1208 l 1 1261 q 125 1274 76 1274 q 228 1253 199 1274 q 258 1181 258 1232 q 249 1116 258 1136 q 201 1082 240 1096 l 189 1076 q 149 1061 160 1067 q 135 1049 138 1056 q 132 1026 132 1042 l 67 1026 l 67 1046 z "},"Ȋ":{"ha":263,"x_min":-11,"x_max":272,"o":"m 83 0 l 83 956 l 179 956 l 179 0 l 83 0 m -11 1050 q -3 1156 -11 1117 q 37 1218 6 1194 q 132 1242 68 1242 q 226 1218 196 1242 q 264 1156 256 1194 q 272 1050 272 1117 l 204 1050 q 201 1128 204 1103 q 182 1167 197 1153 q 132 1181 167 1181 q 81 1166 97 1181 q 61 1126 65 1151 q 57 1050 57 1101 l -11 1050 z "},"Ī":{"ha":263,"x_min":14,"x_max":247,"o":"m 83 0 l 83 956 l 179 956 l 179 0 l 83 0 m 14 1146 l 14 1233 l 247 1233 l 247 1146 l 14 1146 z "},"Į":{"ha":263,"x_min":24,"x_max":181,"o":"m 138 -272 q 51 -243 78 -272 q 24 -165 24 -214 q 47 -80 24 -125 q 106 0 69 -35 l 83 0 l 83 956 l 179 956 l 179 0 q 126 -69 151 -25 q 100 -149 100 -112 q 160 -210 100 -210 l 181 -208 l 181 -269 q 138 -272 153 -272 z "},"Ĩ":{"ha":263,"x_min":-40,"x_max":299,"o":"m 83 0 l 83 956 l 179 956 l 179 0 l 83 0 m 299 1233 q 285 1118 299 1150 q 222 1086 271 1086 q 124 1117 185 1086 q 80 1138 97 1131 q 46 1144 63 1144 q 26 1128 31 1144 q 21 1069 21 1113 l -40 1069 q -26 1185 -40 1153 q 36 1218 -11 1218 q 84 1209 60 1218 q 139 1185 108 1200 q 181 1166 164 1172 q 213 1160 197 1160 q 234 1175 229 1160 q 239 1233 239 1190 l 299 1233 z "},"J":{"ha":282,"x_min":11,"x_max":211,"o":"m 11 85 q 85 99 65 88 q 109 154 104 111 q 114 319 114 197 l 114 956 l 211 956 l 211 353 q 200 107 211 174 q 151 21 189 40 q 11 0 114 1 l 11 85 z "},"Ĵ":{"ha":282,"x_min":11,"x_max":306,"o":"m 11 85 q 85 99 65 88 q 109 154 104 111 q 114 319 114 197 l 114 956 l 211 956 l 211 353 q 200 107 211 174 q 151 21 189 40 q 11 0 114 1 l 11 85 m 18 1047 l 18 1056 l 111 1233 l 213 1233 l 306 1056 l 306 1047 l 240 1047 l 161 1176 l 83 1047 l 18 1047 z "},"K":{"ha":547,"x_min":78,"x_max":531,"o":"m 429 0 l 264 439 l 175 439 l 175 0 l 78 0 l 78 956 l 175 956 l 175 531 l 264 531 l 429 956 l 529 956 l 342 489 l 531 0 l 429 0 z "},"Ķ":{"ha":547,"x_min":78,"x_max":531,"o":"m 429 0 l 264 439 l 175 439 l 175 0 l 78 0 l 78 956 l 175 956 l 175 531 l 264 531 l 429 956 l 529 956 l 342 489 l 531 0 l 429 0 m 211 -294 q 264 -279 253 -294 q 275 -214 275 -264 l 275 -192 l 233 -192 l 233 -86 l 338 -86 l 338 -183 q 328 -281 338 -249 q 292 -327 318 -314 q 211 -340 265 -340 l 211 -294 z "},"L":{"ha":422,"x_min":78,"x_max":414,"o":"m 78 0 l 78 956 l 175 956 l 175 90 l 414 90 l 414 0 l 78 0 z "},"Ǉ":{"ha":704,"x_min":78,"x_max":633,"o":"m 78 0 l 78 956 l 175 956 l 175 90 l 414 90 l 414 0 l 78 0 m 433 85 q 507 99 488 88 q 531 154 526 111 q 536 319 536 197 l 536 956 l 633 956 l 633 353 q 622 107 633 174 q 574 21 611 40 q 433 0 536 1 l 433 85 z "},"Ĺ":{"ha":422,"x_min":78,"x_max":414,"o":"m 78 0 l 78 956 l 175 956 l 175 90 l 414 90 l 414 0 l 78 0 m 93 1038 l 93 1044 l 140 1233 l 235 1233 l 235 1226 l 163 1038 l 93 1038 z "},"Ľ":{"ha":422,"x_min":78,"x_max":414,"o":"m 78 0 l 78 956 l 175 956 l 175 90 l 414 90 l 414 0 l 78 0 m 268 617 l 286 850 l 286 956 l 378 956 l 378 850 l 333 617 l 268 617 z "},"Ļ":{"ha":422,"x_min":78,"x_max":414,"o":"m 78 0 l 78 956 l 175 956 l 175 90 l 414 90 l 414 0 l 78 0 m 160 -294 q 213 -279 201 -294 q 224 -214 224 -264 l 224 -192 l 182 -192 l 182 -86 l 286 -86 l 286 -183 q 276 -281 286 -249 q 240 -327 267 -314 q 160 -340 214 -340 l 160 -294 z "},"Ŀ":{"ha":446,"x_min":78,"x_max":418,"o":"m 78 0 l 78 956 l 175 956 l 175 90 l 414 90 l 414 0 l 78 0 m 313 447 l 313 568 l 418 568 l 418 447 l 313 447 z "},"ǈ":{"ha":657,"x_min":78,"x_max":588,"o":"m 78 0 l 78 956 l 175 956 l 175 90 l 414 90 l 414 0 l 78 0 m 492 919 l 492 1032 l 588 1032 l 588 919 l 492 919 m 415 -194 q 468 -187 451 -194 q 489 -166 485 -181 q 493 -118 493 -151 l 493 708 l 585 708 l 585 -79 q 569 -205 585 -165 q 519 -256 553 -244 q 415 -267 486 -267 l 415 -194 z "},"Ł":{"ha":422,"x_min":19,"x_max":414,"o":"m 175 90 l 414 90 l 414 0 l 78 0 l 78 388 l 19 365 l 19 450 l 78 472 l 78 956 l 175 956 l 175 507 l 335 567 l 335 482 l 175 422 l 175 90 z "},"M":{"ha":788,"x_min":78,"x_max":710,"o":"m 615 0 l 615 792 l 608 792 l 443 0 l 340 0 l 178 792 l 169 792 l 169 0 l 78 0 l 78 956 l 225 956 l 390 161 l 399 161 l 565 956 l 710 956 l 710 0 l 615 0 z "},"N":{"ha":603,"x_min":78,"x_max":525,"o":"m 431 0 l 176 711 l 171 711 l 171 0 l 78 0 l 78 956 l 176 956 l 426 260 l 433 260 l 433 956 l 525 956 l 525 0 l 431 0 z "},"Ǌ":{"ha":885,"x_min":78,"x_max":814,"o":"m 431 0 l 176 711 l 171 711 l 171 0 l 78 0 l 78 956 l 176 956 l 426 260 l 433 260 l 433 956 l 525 956 l 525 0 l 431 0 m 614 85 q 688 99 668 88 q 712 154 707 111 q 717 319 717 197 l 717 956 l 814 956 l 814 353 q 803 107 814 174 q 754 21 792 40 q 614 0 717 1 l 614 85 z "},"Ń":{"ha":603,"x_min":78,"x_max":525,"o":"m 431 0 l 176 711 l 171 711 l 171 0 l 78 0 l 78 956 l 176 956 l 426 260 l 433 260 l 433 956 l 525 956 l 525 0 l 431 0 m 267 1038 l 267 1044 l 314 1233 l 408 1233 l 408 1226 l 336 1038 l 267 1038 z "},"Ň":{"ha":603,"x_min":78,"x_max":525,"o":"m 431 0 l 176 711 l 171 711 l 171 0 l 78 0 l 78 956 l 176 956 l 426 260 l 433 260 l 433 956 l 525 956 l 525 0 l 431 0 m 250 1047 l 157 1225 l 157 1233 l 222 1233 l 300 1104 l 379 1233 l 444 1233 l 444 1225 l 351 1047 l 250 1047 z "},"Ņ":{"ha":603,"x_min":78,"x_max":525,"o":"m 431 0 l 176 711 l 171 711 l 171 0 l 78 0 l 78 956 l 176 956 l 426 260 l 433 260 l 433 956 l 525 956 l 525 0 l 431 0 m 239 -294 q 292 -279 281 -294 q 303 -214 303 -264 l 303 -192 l 261 -192 l 261 -86 l 365 -86 l 365 -183 q 356 -281 365 -249 q 319 -327 346 -314 q 239 -340 293 -340 l 239 -294 z "},"Ṅ":{"ha":603,"x_min":78,"x_max":525,"o":"m 431 0 l 176 711 l 171 711 l 171 0 l 78 0 l 78 956 l 176 956 l 426 260 l 433 260 l 433 956 l 525 956 l 525 0 l 431 0 m 256 1111 l 256 1215 l 344 1215 l 344 1111 l 256 1111 z "},"Ŋ":{"ha":603,"x_min":78,"x_max":525,"o":"m 525 956 l 525 -93 q 508 -210 525 -174 q 458 -256 492 -246 q 354 -267 424 -267 l 354 -194 q 407 -187 390 -194 q 428 -165 424 -181 q 433 -118 433 -150 l 433 18 l 176 711 l 171 711 l 171 0 l 78 0 l 78 956 l 176 956 l 426 267 l 433 267 l 433 956 l 525 956 z "},"Ɲ":{"ha":603,"x_min":-1,"x_max":525,"o":"m 525 956 l 525 0 l 431 0 l 176 711 l 171 711 l 171 -79 q 155 -205 171 -165 q 105 -256 139 -244 q -1 -267 71 -267 l -1 -194 q 53 -187 36 -194 q 74 -166 69 -181 q 78 -118 78 -151 l 78 956 l 176 956 l 426 260 l 433 260 l 433 956 l 525 956 z "},"ǋ":{"ha":838,"x_min":78,"x_max":768,"o":"m 431 0 l 176 711 l 171 711 l 171 0 l 78 0 l 78 956 l 176 956 l 426 260 l 433 260 l 433 956 l 525 956 l 525 0 l 431 0 m 672 919 l 672 1032 l 768 1032 l 768 919 l 672 919 m 596 -194 q 649 -187 632 -194 q 669 -166 665 -181 q 674 -118 674 -151 l 674 708 l 765 708 l 765 -79 q 749 -205 765 -165 q 700 -256 733 -244 q 596 -267 667 -267 l 596 -194 z "},"Ñ":{"ha":603,"x_min":78,"x_max":525,"o":"m 431 0 l 176 711 l 171 711 l 171 0 l 78 0 l 78 956 l 176 956 l 426 260 l 433 260 l 433 956 l 525 956 l 525 0 l 431 0 m 471 1206 q 457 1090 471 1122 q 394 1058 443 1058 q 296 1089 357 1058 q 252 1110 269 1103 q 218 1117 235 1117 q 198 1101 203 1117 q 193 1042 193 1085 l 132 1042 q 147 1158 132 1125 q 208 1190 161 1190 q 257 1181 233 1190 q 311 1157 281 1172 q 353 1138 336 1144 q 385 1132 369 1132 q 406 1147 401 1132 q 411 1206 411 1163 l 471 1206 z "},"O":{"ha":589,"x_min":60,"x_max":529,"o":"m 294 -11 q 135 26 183 -11 q 74 160 88 64 q 60 478 60 256 q 74 796 60 700 q 135 929 88 892 q 294 967 183 967 q 453 929 406 967 q 515 796 501 892 q 529 478 529 700 q 515 160 529 256 q 453 26 501 64 q 294 -11 406 -11 m 294 78 q 388 99 361 78 q 424 201 414 121 q 433 478 433 281 q 424 755 433 675 q 388 856 414 835 q 294 878 361 878 q 201 856 228 878 q 165 755 175 835 q 156 478 156 675 q 165 201 156 281 q 201 99 175 121 q 294 78 228 78 z "},"Ó":{"ha":589,"x_min":60,"x_max":529,"o":"m 294 -11 q 135 26 183 -11 q 74 160 88 64 q 60 478 60 256 q 74 796 60 700 q 135 929 88 892 q 294 967 183 967 q 453 929 406 967 q 515 796 501 892 q 529 478 529 700 q 515 160 529 256 q 453 26 501 64 q 294 -11 406 -11 m 294 78 q 388 99 361 78 q 424 201 414 121 q 433 478 433 281 q 424 755 433 675 q 388 856 414 835 q 294 878 361 878 q 201 856 228 878 q 165 755 175 835 q 156 478 156 675 q 165 201 156 281 q 201 99 175 121 q 294 78 228 78 m 254 1042 l 254 1049 l 301 1238 l 396 1238 l 396 1231 l 324 1042 l 254 1042 z "},"Ŏ":{"ha":589,"x_min":60,"x_max":529,"o":"m 294 -11 q 135 26 183 -11 q 74 160 88 64 q 60 478 60 256 q 74 796 60 700 q 135 929 88 892 q 294 967 183 967 q 453 929 406 967 q 515 796 501 892 q 529 478 529 700 q 515 160 529 256 q 453 26 501 64 q 294 -11 406 -11 m 294 78 q 388 99 361 78 q 424 201 414 121 q 433 478 433 281 q 424 755 433 675 q 388 856 414 835 q 294 878 361 878 q 201 856 228 878 q 165 755 175 835 q 156 478 156 675 q 165 201 156 281 q 201 99 175 121 q 294 78 228 78 m 436 1233 q 428 1128 436 1167 q 388 1065 419 1089 q 293 1042 357 1042 q 199 1065 229 1042 q 161 1128 169 1089 q 153 1233 153 1167 l 221 1233 q 224 1156 221 1181 q 243 1117 228 1131 q 293 1103 258 1103 q 344 1117 328 1103 q 364 1157 360 1132 q 368 1233 368 1182 l 436 1233 z "},"Ǒ":{"ha":589,"x_min":60,"x_max":529,"o":"m 294 -11 q 135 26 183 -11 q 74 160 88 64 q 60 478 60 256 q 74 796 60 700 q 135 929 88 892 q 294 967 183 967 q 453 929 406 967 q 515 796 501 892 q 529 478 529 700 q 515 160 529 256 q 453 26 501 64 q 294 -11 406 -11 m 294 78 q 388 99 361 78 q 424 201 414 121 q 433 478 433 281 q 424 755 433 675 q 388 856 414 835 q 294 878 361 878 q 201 856 228 878 q 165 755 175 835 q 156 478 156 675 q 165 201 156 281 q 201 99 175 121 q 294 78 228 78 m 243 1047 l 150 1225 l 150 1233 l 215 1233 l 293 1104 l 372 1233 l 438 1233 l 438 1225 l 344 1047 l 243 1047 z "},"Ô":{"ha":589,"x_min":60,"x_max":529,"o":"m 294 -11 q 135 26 183 -11 q 74 160 88 64 q 60 478 60 256 q 74 796 60 700 q 135 929 88 892 q 294 967 183 967 q 453 929 406 967 q 515 796 501 892 q 529 478 529 700 q 515 160 529 256 q 453 26 501 64 q 294 -11 406 -11 m 294 78 q 388 99 361 78 q 424 201 414 121 q 433 478 433 281 q 424 755 433 675 q 388 856 414 835 q 294 878 361 878 q 201 856 228 878 q 165 755 175 835 q 156 478 156 675 q 165 201 156 281 q 201 99 175 121 q 294 78 228 78 m 150 1042 l 150 1050 l 243 1228 l 344 1228 l 438 1050 l 438 1042 l 372 1042 l 293 1171 l 215 1042 l 150 1042 z "},"Ố":{"ha":589,"x_min":60,"x_max":529,"o":"m 294 -11 q 135 26 183 -11 q 74 160 88 64 q 60 478 60 256 q 74 796 60 700 q 135 929 88 892 q 294 967 183 967 q 453 929 406 967 q 515 796 501 892 q 529 478 529 700 q 515 160 529 256 q 453 26 501 64 q 294 -11 406 -11 m 294 78 q 388 99 361 78 q 424 201 414 121 q 433 478 433 281 q 424 755 433 675 q 388 856 414 835 q 294 878 361 878 q 201 856 228 878 q 165 755 175 835 q 156 478 156 675 q 165 201 156 281 q 201 99 175 121 q 294 78 228 78 m 150 1022 l 150 1031 l 243 1208 l 344 1208 l 438 1031 l 438 1022 l 372 1022 l 293 1151 l 215 1022 l 150 1022 m 363 1218 l 363 1225 l 410 1414 l 504 1414 l 504 1407 l 432 1218 l 363 1218 z "},"Ộ":{"ha":589,"x_min":60,"x_max":529,"o":"m 294 -11 q 135 26 183 -11 q 74 160 88 64 q 60 478 60 256 q 74 796 60 700 q 135 929 88 892 q 294 967 183 967 q 453 929 406 967 q 515 796 501 892 q 529 478 529 700 q 515 160 529 256 q 453 26 501 64 q 294 -11 406 -11 m 294 78 q 388 99 361 78 q 424 201 414 121 q 433 478 433 281 q 424 755 433 675 q 388 856 414 835 q 294 878 361 878 q 201 856 228 878 q 165 755 175 835 q 156 478 156 675 q 165 201 156 281 q 201 99 175 121 q 294 78 228 78 m 242 -207 l 242 -86 l 347 -86 l 347 -207 l 242 -207 m 150 1047 l 150 1056 l 243 1233 l 344 1233 l 438 1056 l 438 1047 l 372 1047 l 293 1176 l 215 1047 l 150 1047 z "},"Ồ":{"ha":589,"x_min":60,"x_max":529,"o":"m 294 -11 q 135 26 183 -11 q 74 160 88 64 q 60 478 60 256 q 74 796 60 700 q 135 929 88 892 q 294 967 183 967 q 453 929 406 967 q 515 796 501 892 q 529 478 529 700 q 515 160 529 256 q 453 26 501 64 q 294 -11 406 -11 m 294 78 q 388 99 361 78 q 424 201 414 121 q 433 478 433 281 q 424 755 433 675 q 388 856 414 835 q 294 878 361 878 q 201 856 228 878 q 165 755 175 835 q 156 478 156 675 q 165 201 156 281 q 201 99 175 121 q 294 78 228 78 m 146 1022 l 146 1031 l 239 1208 l 340 1208 l 433 1031 l 433 1022 l 368 1022 l 289 1151 l 211 1022 l 146 1022 m 365 1218 l 293 1407 l 293 1414 l 388 1414 l 435 1225 l 435 1218 l 365 1218 z "},"Ổ":{"ha":589,"x_min":60,"x_max":546,"o":"m 294 -11 q 135 26 183 -11 q 74 160 88 64 q 60 478 60 256 q 74 796 60 700 q 135 929 88 892 q 294 967 183 967 q 453 929 406 967 q 515 796 501 892 q 529 478 529 700 q 515 160 529 256 q 453 26 501 64 q 294 -11 406 -11 m 294 78 q 388 99 361 78 q 424 201 414 121 q 433 478 433 281 q 424 755 433 675 q 388 856 414 835 q 294 878 361 878 q 201 856 228 878 q 165 755 175 835 q 156 478 156 675 q 165 201 156 281 q 201 99 175 121 q 294 78 228 78 m 150 1024 l 150 1032 l 243 1210 l 344 1210 l 438 1032 l 438 1024 l 372 1024 l 293 1153 l 215 1024 l 150 1024 m 354 1236 q 365 1276 354 1264 q 401 1297 375 1288 l 417 1301 q 463 1322 451 1311 q 475 1357 475 1332 q 470 1383 475 1375 q 450 1395 465 1392 q 400 1399 435 1399 q 289 1394 353 1399 l 289 1451 q 413 1464 364 1464 q 516 1443 486 1464 q 546 1371 546 1422 q 537 1307 546 1328 q 489 1272 528 1286 l 476 1267 q 436 1251 447 1257 q 422 1239 425 1246 q 419 1217 419 1232 l 354 1217 l 354 1236 z "},"Ỗ":{"ha":589,"x_min":60,"x_max":529,"o":"m 294 -11 q 135 26 183 -11 q 74 160 88 64 q 60 478 60 256 q 74 796 60 700 q 135 929 88 892 q 294 967 183 967 q 453 929 406 967 q 515 796 501 892 q 529 478 529 700 q 515 160 529 256 q 453 26 501 64 q 294 -11 406 -11 m 294 78 q 388 99 361 78 q 424 201 414 121 q 433 478 433 281 q 424 755 433 675 q 388 856 414 835 q 294 878 361 878 q 201 856 228 878 q 165 755 175 835 q 156 478 156 675 q 165 201 156 281 q 201 99 175 121 q 294 78 228 78 m 147 1024 l 147 1032 l 240 1210 l 342 1210 l 435 1032 l 435 1024 l 369 1024 l 290 1153 l 213 1024 l 147 1024 m 463 1450 q 449 1335 463 1367 q 386 1303 435 1303 q 288 1333 349 1303 q 244 1354 261 1347 q 210 1361 226 1361 q 190 1345 194 1361 q 185 1286 185 1329 l 124 1286 q 138 1402 124 1369 q 200 1435 153 1435 q 248 1426 224 1435 q 303 1401 272 1417 q 344 1383 328 1389 q 376 1376 361 1376 q 398 1392 393 1376 q 403 1450 403 1407 l 463 1450 z "},"Ȍ":{"ha":589,"x_min":60,"x_max":529,"o":"m 294 -11 q 135 26 183 -11 q 74 160 88 64 q 60 478 60 256 q 74 796 60 700 q 135 929 88 892 q 294 967 183 967 q 453 929 406 967 q 515 796 501 892 q 529 478 529 700 q 515 160 529 256 q 453 26 501 64 q 294 -11 406 -11 m 294 78 q 388 99 361 78 q 424 201 414 121 q 433 478 433 281 q 424 755 433 675 q 388 856 414 835 q 294 878 361 878 q 201 856 228 878 q 165 755 175 835 q 156 478 156 675 q 165 201 156 281 q 201 99 175 121 q 294 78 228 78 m 249 1050 l 188 1050 l 124 1208 l 124 1214 l 208 1214 l 249 1057 l 249 1050 m 400 1050 l 339 1050 l 275 1208 l 275 1214 l 360 1214 l 400 1057 l 400 1050 z "},"Ö":{"ha":589,"x_min":60,"x_max":529,"o":"m 294 -11 q 135 26 183 -11 q 74 160 88 64 q 60 478 60 256 q 74 796 60 700 q 135 929 88 892 q 294 967 183 967 q 453 929 406 967 q 515 796 501 892 q 529 478 529 700 q 515 160 529 256 q 453 26 501 64 q 294 -11 406 -11 m 294 78 q 388 99 361 78 q 424 201 414 121 q 433 478 433 281 q 424 755 433 675 q 388 856 414 835 q 294 878 361 878 q 201 856 228 878 q 165 755 175 835 q 156 478 156 675 q 165 201 156 281 q 201 99 175 121 q 294 78 228 78 m 133 1072 l 133 1176 l 222 1176 l 222 1072 l 133 1072 m 365 1072 l 365 1176 l 454 1176 l 454 1072 l 365 1072 z "},"Ọ":{"ha":589,"x_min":60,"x_max":529,"o":"m 294 -11 q 135 26 183 -11 q 74 160 88 64 q 60 478 60 256 q 74 796 60 700 q 135 929 88 892 q 294 967 183 967 q 453 929 406 967 q 515 796 501 892 q 529 478 529 700 q 515 160 529 256 q 453 26 501 64 q 294 -11 406 -11 m 294 78 q 388 99 361 78 q 424 201 414 121 q 433 478 433 281 q 424 755 433 675 q 388 856 414 835 q 294 878 361 878 q 201 856 228 878 q 165 755 175 835 q 156 478 156 675 q 165 201 156 281 q 201 99 175 121 q 294 78 228 78 m 242 -207 l 242 -86 l 347 -86 l 347 -207 l 242 -207 z "},"Ò":{"ha":589,"x_min":60,"x_max":529,"o":"m 294 -11 q 135 26 183 -11 q 74 160 88 64 q 60 478 60 256 q 74 796 60 700 q 135 929 88 892 q 294 967 183 967 q 453 929 406 967 q 515 796 501 892 q 529 478 529 700 q 515 160 529 256 q 453 26 501 64 q 294 -11 406 -11 m 294 78 q 388 99 361 78 q 424 201 414 121 q 433 478 433 281 q 424 755 433 675 q 388 856 414 835 q 294 878 361 878 q 201 856 228 878 q 165 755 175 835 q 156 478 156 675 q 165 201 156 281 q 201 99 175 121 q 294 78 228 78 m 265 1042 l 193 1231 l 193 1238 l 288 1238 l 335 1049 l 335 1042 l 265 1042 z "},"Ỏ":{"ha":589,"x_min":60,"x_max":529,"o":"m 294 -11 q 135 26 183 -11 q 74 160 88 64 q 60 478 60 256 q 74 796 60 700 q 135 929 88 892 q 294 967 183 967 q 453 929 406 967 q 515 796 501 892 q 529 478 529 700 q 515 160 529 256 q 453 26 501 64 q 294 -11 406 -11 m 294 78 q 388 99 361 78 q 424 201 414 121 q 433 478 433 281 q 424 755 433 675 q 388 856 414 835 q 294 878 361 878 q 201 856 228 878 q 165 755 175 835 q 156 478 156 675 q 165 201 156 281 q 201 99 175 121 q 294 78 228 78 m 231 1046 q 241 1085 231 1074 q 278 1107 251 1097 l 293 1111 q 340 1131 328 1121 q 351 1167 351 1142 q 347 1193 351 1185 q 326 1205 342 1201 q 276 1208 311 1208 q 165 1204 229 1208 l 165 1261 q 289 1274 240 1274 q 392 1253 363 1274 q 422 1181 422 1232 q 413 1116 422 1136 q 365 1082 404 1096 l 353 1076 q 313 1061 324 1067 q 299 1049 301 1056 q 296 1026 296 1042 l 231 1026 l 231 1046 z "},"Ơ":{"ha":589,"x_min":60,"x_max":571,"o":"m 571 1088 l 571 1047 q 552 940 571 969 q 476 904 533 910 q 519 765 510 858 q 529 478 529 672 q 515 160 529 256 q 453 26 501 64 q 294 -11 406 -11 q 135 26 183 -11 q 74 160 88 64 q 60 478 60 256 q 74 796 60 700 q 135 929 88 892 q 294 967 183 967 q 400 956 361 967 l 440 956 q 493 972 482 956 q 504 1033 504 988 l 504 1088 l 571 1088 m 294 78 q 388 99 361 78 q 424 201 414 121 q 433 478 433 281 q 424 755 433 675 q 388 856 414 835 q 294 878 361 878 q 201 856 228 878 q 165 755 175 835 q 156 478 156 675 q 165 201 156 281 q 201 99 175 121 q 294 78 228 78 z "},"Ớ":{"ha":589,"x_min":60,"x_max":571,"o":"m 571 1088 l 571 1047 q 552 940 571 969 q 476 904 533 910 q 519 765 510 858 q 529 478 529 672 q 515 160 529 256 q 453 26 501 64 q 294 -11 406 -11 q 135 26 183 -11 q 74 160 88 64 q 60 478 60 256 q 74 796 60 700 q 135 929 88 892 q 294 967 183 967 q 400 956 361 967 l 440 956 q 493 972 482 956 q 504 1033 504 988 l 504 1088 l 571 1088 m 294 78 q 388 99 361 78 q 424 201 414 121 q 433 478 433 281 q 424 755 433 675 q 388 856 414 835 q 294 878 361 878 q 201 856 228 878 q 165 755 175 835 q 156 478 156 675 q 165 201 156 281 q 201 99 175 121 q 294 78 228 78 m 260 1038 l 260 1044 l 307 1233 l 401 1233 l 401 1226 l 329 1038 l 260 1038 z "},"Ợ":{"ha":589,"x_min":60,"x_max":571,"o":"m 571 1088 l 571 1047 q 552 940 571 969 q 476 904 533 910 q 519 765 510 858 q 529 478 529 672 q 515 160 529 256 q 453 26 501 64 q 294 -11 406 -11 q 135 26 183 -11 q 74 160 88 64 q 60 478 60 256 q 74 796 60 700 q 135 929 88 892 q 294 967 183 967 q 400 956 361 967 l 440 956 q 493 972 482 956 q 504 1033 504 988 l 504 1088 l 571 1088 m 294 78 q 388 99 361 78 q 424 201 414 121 q 433 478 433 281 q 424 755 433 675 q 388 856 414 835 q 294 878 361 878 q 201 856 228 878 q 165 755 175 835 q 156 478 156 675 q 165 201 156 281 q 201 99 175 121 q 294 78 228 78 m 242 -207 l 242 -86 l 347 -86 l 347 -207 l 242 -207 z "},"Ờ":{"ha":589,"x_min":60,"x_max":571,"o":"m 571 1088 l 571 1047 q 552 940 571 969 q 476 904 533 910 q 519 765 510 858 q 529 478 529 672 q 515 160 529 256 q 453 26 501 64 q 294 -11 406 -11 q 135 26 183 -11 q 74 160 88 64 q 60 478 60 256 q 74 796 60 700 q 135 929 88 892 q 294 967 183 967 q 400 956 361 967 l 440 956 q 493 972 482 956 q 504 1033 504 988 l 504 1088 l 571 1088 m 294 78 q 388 99 361 78 q 424 201 414 121 q 433 478 433 281 q 424 755 433 675 q 388 856 414 835 q 294 878 361 878 q 201 856 228 878 q 165 755 175 835 q 156 478 156 675 q 165 201 156 281 q 201 99 175 121 q 294 78 228 78 m 263 1038 l 190 1226 l 190 1233 l 285 1233 l 332 1044 l 332 1038 l 263 1038 z "},"Ở":{"ha":589,"x_min":60,"x_max":571,"o":"m 571 1088 l 571 1047 q 552 940 571 969 q 476 904 533 910 q 519 765 510 858 q 529 478 529 672 q 515 160 529 256 q 453 26 501 64 q 294 -11 406 -11 q 135 26 183 -11 q 74 160 88 64 q 60 478 60 256 q 74 796 60 700 q 135 929 88 892 q 294 967 183 967 q 400 956 361 967 l 440 956 q 493 972 482 956 q 504 1033 504 988 l 504 1088 l 571 1088 m 294 78 q 388 99 361 78 q 424 201 414 121 q 433 478 433 281 q 424 755 433 675 q 388 856 414 835 q 294 878 361 878 q 201 856 228 878 q 165 755 175 835 q 156 478 156 675 q 165 201 156 281 q 201 99 175 121 q 294 78 228 78 m 231 1046 q 241 1085 231 1074 q 278 1107 251 1097 l 293 1111 q 340 1131 328 1121 q 351 1167 351 1142 q 347 1193 351 1185 q 326 1205 342 1201 q 276 1208 311 1208 q 165 1204 229 1208 l 165 1261 q 289 1274 240 1274 q 392 1253 363 1274 q 422 1181 422 1232 q 413 1116 422 1136 q 365 1082 404 1096 l 353 1076 q 313 1061 324 1067 q 299 1049 301 1056 q 296 1026 296 1042 l 231 1026 l 231 1046 z "},"Ỡ":{"ha":589,"x_min":60,"x_max":571,"o":"m 571 1088 l 571 1047 q 552 940 571 969 q 476 904 533 910 q 519 765 510 858 q 529 478 529 672 q 515 160 529 256 q 453 26 501 64 q 294 -11 406 -11 q 135 26 183 -11 q 74 160 88 64 q 60 478 60 256 q 74 796 60 700 q 135 929 88 892 q 294 967 183 967 q 400 956 361 967 l 440 956 q 493 972 482 956 q 504 1033 504 988 l 504 1088 l 571 1088 m 294 78 q 388 99 361 78 q 424 201 414 121 q 433 478 433 281 q 424 755 433 675 q 388 856 414 835 q 294 878 361 878 q 201 856 228 878 q 165 755 175 835 q 156 478 156 675 q 165 201 156 281 q 201 99 175 121 q 294 78 228 78 m 463 1233 q 449 1118 463 1150 q 386 1086 435 1086 q 288 1117 349 1086 q 244 1138 261 1131 q 210 1144 226 1144 q 190 1128 194 1144 q 185 1069 185 1113 l 124 1069 q 138 1185 124 1153 q 200 1218 153 1218 q 248 1209 224 1218 q 303 1185 272 1200 q 344 1166 328 1172 q 376 1160 361 1160 q 398 1175 393 1160 q 403 1233 403 1190 l 463 1233 z "},"Ő":{"ha":589,"x_min":60,"x_max":529,"o":"m 294 -11 q 135 26 183 -11 q 74 160 88 64 q 60 478 60 256 q 74 796 60 700 q 135 929 88 892 q 294 967 183 967 q 453 929 406 967 q 515 796 501 892 q 529 478 529 700 q 515 160 529 256 q 453 26 501 64 q 294 -11 406 -11 m 294 78 q 388 99 361 78 q 424 201 414 121 q 433 478 433 281 q 424 755 433 675 q 388 856 414 835 q 294 878 361 878 q 201 856 228 878 q 165 755 175 835 q 156 478 156 675 q 165 201 156 281 q 201 99 175 121 q 294 78 228 78 m 196 1050 l 196 1057 l 236 1214 l 321 1214 l 321 1208 l 257 1050 l 196 1050 m 347 1050 l 347 1057 l 388 1214 l 472 1214 l 472 1208 l 408 1050 l 347 1050 z "},"Ȏ":{"ha":589,"x_min":60,"x_max":529,"o":"m 294 -11 q 135 26 183 -11 q 74 160 88 64 q 60 478 60 256 q 74 796 60 700 q 135 929 88 892 q 294 967 183 967 q 453 929 406 967 q 515 796 501 892 q 529 478 529 700 q 515 160 529 256 q 453 26 501 64 q 294 -11 406 -11 m 294 78 q 388 99 361 78 q 424 201 414 121 q 433 478 433 281 q 424 755 433 675 q 388 856 414 835 q 294 878 361 878 q 201 856 228 878 q 165 755 175 835 q 156 478 156 675 q 165 201 156 281 q 201 99 175 121 q 294 78 228 78 m 153 1050 q 161 1156 153 1117 q 201 1218 169 1194 q 296 1242 232 1242 q 390 1218 360 1242 q 428 1156 419 1194 q 436 1050 436 1117 l 368 1050 q 365 1128 368 1103 q 346 1167 361 1153 q 296 1181 331 1181 q 245 1166 261 1181 q 225 1126 229 1151 q 221 1050 221 1101 l 153 1050 z "},"Ō":{"ha":589,"x_min":60,"x_max":529,"o":"m 294 -11 q 135 26 183 -11 q 74 160 88 64 q 60 478 60 256 q 74 796 60 700 q 135 929 88 892 q 294 967 183 967 q 453 929 406 967 q 515 796 501 892 q 529 478 529 700 q 515 160 529 256 q 453 26 501 64 q 294 -11 406 -11 m 294 78 q 388 99 361 78 q 424 201 414 121 q 433 478 433 281 q 424 755 433 675 q 388 856 414 835 q 294 878 361 878 q 201 856 228 878 q 165 755 175 835 q 156 478 156 675 q 165 201 156 281 q 201 99 175 121 q 294 78 228 78 m 178 1146 l 178 1233 l 411 1233 l 411 1146 l 178 1146 z "},"Ǫ":{"ha":589,"x_min":60,"x_max":529,"o":"m 394 -272 q 307 -243 335 -272 q 279 -168 279 -214 q 297 -87 279 -129 q 347 -8 315 -44 q 294 -11 317 -11 q 135 26 183 -11 q 74 160 88 64 q 60 478 60 256 q 74 796 60 700 q 135 929 88 892 q 294 967 183 967 q 453 929 406 967 q 515 796 501 892 q 529 478 529 700 q 524 242 529 326 q 503 106 519 158 q 453 26 486 53 q 386 -52 417 1 q 356 -151 356 -106 q 369 -194 356 -178 q 415 -210 383 -210 l 436 -208 l 436 -269 q 394 -272 408 -272 m 294 78 q 388 99 361 78 q 424 201 414 121 q 433 478 433 281 q 424 755 433 675 q 388 856 414 835 q 294 878 361 878 q 201 856 228 878 q 165 755 175 835 q 156 478 156 675 q 165 201 156 281 q 201 99 175 121 q 294 78 228 78 z "},"Ø":{"ha":589,"x_min":60,"x_max":529,"o":"m 482 896 q 520 756 511 849 q 529 478 529 664 q 515 160 529 256 q 453 26 501 64 q 294 -11 406 -11 q 172 6 215 -11 l 144 -76 l 60 -76 l 107 60 q 69 199 78 107 q 60 478 60 292 q 74 796 60 700 q 135 929 88 892 q 294 967 183 967 q 415 950 375 967 l 444 1032 l 529 1032 l 482 896 m 294 78 q 388 99 361 78 q 424 201 414 121 q 433 478 433 281 q 424 755 433 675 q 388 856 414 835 q 294 878 361 878 q 201 856 228 878 q 165 755 175 835 q 156 478 156 675 q 165 201 156 281 q 201 99 175 121 q 294 78 228 78 z "},"Ǿ":{"ha":589,"x_min":60,"x_max":529,"o":"m 482 896 q 520 756 511 849 q 529 478 529 664 q 515 160 529 256 q 453 26 501 64 q 294 -11 406 -11 q 172 6 215 -11 l 144 -76 l 60 -76 l 107 60 q 69 199 78 107 q 60 478 60 292 q 74 796 60 700 q 135 929 88 892 q 294 967 183 967 q 415 950 375 967 l 444 1032 l 529 1032 l 482 896 m 294 78 q 388 99 361 78 q 424 201 414 121 q 433 478 433 281 q 424 755 433 675 q 388 856 414 835 q 294 878 361 878 q 201 856 228 878 q 165 755 175 835 q 156 478 156 675 q 165 201 156 281 q 201 99 175 121 q 294 78 228 78 m 243 1038 l 243 1044 l 290 1233 l 385 1233 l 385 1226 l 313 1038 l 243 1038 z "},"Õ":{"ha":589,"x_min":60,"x_max":529,"o":"m 294 -11 q 135 26 183 -11 q 74 160 88 64 q 60 478 60 256 q 74 796 60 700 q 135 929 88 892 q 294 967 183 967 q 453 929 406 967 q 515 796 501 892 q 529 478 529 700 q 515 160 529 256 q 453 26 501 64 q 294 -11 406 -11 m 294 78 q 388 99 361 78 q 424 201 414 121 q 433 478 433 281 q 424 755 433 675 q 388 856 414 835 q 294 878 361 878 q 201 856 228 878 q 165 755 175 835 q 156 478 156 675 q 165 201 156 281 q 201 99 175 121 q 294 78 228 78 m 464 1204 q 450 1089 464 1121 q 388 1057 436 1057 q 289 1088 350 1057 q 245 1108 263 1101 q 211 1115 228 1115 q 191 1099 196 1115 q 186 1040 186 1083 l 125 1040 q 140 1156 125 1124 q 201 1189 154 1189 q 250 1180 226 1189 q 304 1156 274 1171 q 346 1137 329 1143 q 378 1131 363 1131 q 399 1146 394 1131 q 404 1204 404 1161 l 464 1204 z "},"Œ":{"ha":832,"x_min":60,"x_max":793,"o":"m 294 0 q 135 37 183 0 q 74 167 88 74 q 60 478 60 261 q 74 788 60 694 q 135 919 88 882 q 294 956 183 956 l 793 956 l 793 867 l 544 867 q 472 872 508 867 q 516 758 504 836 q 529 528 528 679 l 758 528 l 758 439 l 529 439 q 516 200 528 281 q 472 83 504 119 q 544 89 503 89 l 793 89 l 793 0 l 294 0 m 294 89 q 388 110 361 89 q 424 208 414 131 q 433 478 433 286 q 424 747 433 669 q 388 846 414 825 q 294 867 361 867 q 201 846 228 867 q 165 747 175 825 q 156 478 156 669 q 165 208 156 286 q 201 110 175 131 q 294 89 228 89 z "},"P":{"ha":533,"x_min":78,"x_max":503,"o":"m 78 956 l 304 956 q 436 918 393 956 q 491 819 479 881 q 503 654 503 757 q 490 493 503 556 q 435 392 478 431 q 304 353 392 353 l 175 353 l 175 0 l 78 0 l 78 956 m 292 442 q 367 464 343 442 q 399 529 392 486 q 407 654 407 572 q 400 780 407 738 q 368 844 393 822 q 292 867 343 867 l 175 867 l 175 442 l 292 442 z "},"Þ":{"ha":533,"x_min":78,"x_max":503,"o":"m 78 956 l 175 956 l 175 789 l 304 789 q 436 751 393 789 q 491 652 479 714 q 503 488 503 590 q 490 325 503 388 q 435 224 478 263 q 304 186 392 186 l 175 186 l 175 0 l 78 0 l 78 956 m 292 275 q 367 297 343 275 q 399 363 392 319 q 407 488 407 406 q 400 613 407 571 q 368 678 393 656 q 292 700 343 700 l 175 700 l 175 275 l 292 275 z "},"Q":{"ha":589,"x_min":60,"x_max":558,"o":"m 379 -3 q 294 -11 353 -11 q 135 26 183 -11 q 74 160 88 64 q 60 478 60 256 q 74 796 60 700 q 135 929 88 892 q 294 967 183 967 q 453 929 406 967 q 515 796 501 892 q 529 478 529 700 q 517 171 529 265 q 460 35 504 76 l 558 -157 l 558 -160 l 457 -160 l 379 -3 m 294 78 q 388 99 361 78 q 424 201 414 121 q 433 478 433 281 q 424 755 433 675 q 388 856 414 835 q 294 878 361 878 q 201 856 228 878 q 165 755 175 835 q 156 478 156 675 q 165 201 156 281 q 201 99 175 121 q 294 78 228 78 z "},"R":{"ha":568,"x_min":78,"x_max":526,"o":"m 426 0 l 325 381 l 303 381 l 175 381 l 175 0 l 78 0 l 78 956 l 310 956 q 442 920 399 956 q 497 826 485 885 q 510 668 510 767 q 492 496 510 561 q 414 403 474 431 l 526 0 l 426 0 m 299 468 q 374 489 350 468 q 406 550 399 510 q 413 668 413 590 q 406 785 413 746 q 374 846 399 825 q 299 867 350 867 l 175 867 l 175 468 l 299 468 z "},"Ŕ":{"ha":568,"x_min":78,"x_max":526,"o":"m 426 0 l 325 381 l 303 381 l 175 381 l 175 0 l 78 0 l 78 956 l 310 956 q 442 920 399 956 q 497 826 485 885 q 510 668 510 767 q 492 496 510 561 q 414 403 474 431 l 526 0 l 426 0 m 299 468 q 374 489 350 468 q 406 550 399 510 q 413 668 413 590 q 406 785 413 746 q 374 846 399 825 q 299 867 350 867 l 175 867 l 175 468 l 299 468 m 250 1038 l 250 1044 l 297 1233 l 392 1233 l 392 1226 l 319 1038 l 250 1038 z "},"Ř":{"ha":568,"x_min":78,"x_max":526,"o":"m 426 0 l 325 381 l 303 381 l 175 381 l 175 0 l 78 0 l 78 956 l 310 956 q 442 920 399 956 q 497 826 485 885 q 510 668 510 767 q 492 496 510 561 q 414 403 474 431 l 526 0 l 426 0 m 299 468 q 374 489 350 468 q 406 550 399 510 q 413 668 413 590 q 406 785 413 746 q 374 846 399 825 q 299 867 350 867 l 175 867 l 175 468 l 299 468 m 233 1047 l 140 1225 l 140 1233 l 206 1233 l 283 1104 l 363 1233 l 428 1233 l 428 1225 l 335 1047 l 233 1047 z "},"Ŗ":{"ha":568,"x_min":78,"x_max":526,"o":"m 426 0 l 325 381 l 303 381 l 175 381 l 175 0 l 78 0 l 78 956 l 310 956 q 442 920 399 956 q 497 826 485 885 q 510 668 510 767 q 492 496 510 561 q 414 403 474 431 l 526 0 l 426 0 m 299 468 q 374 489 350 468 q 406 550 399 510 q 413 668 413 590 q 406 785 413 746 q 374 846 399 825 q 299 867 350 867 l 175 867 l 175 468 l 299 468 m 222 -294 q 275 -279 264 -294 q 286 -214 286 -264 l 286 -192 l 244 -192 l 244 -86 l 349 -86 l 349 -183 q 339 -281 349 -249 q 303 -327 329 -314 q 222 -340 276 -340 l 222 -294 z "},"Ȑ":{"ha":568,"x_min":78,"x_max":526,"o":"m 426 0 l 325 381 l 303 381 l 175 381 l 175 0 l 78 0 l 78 956 l 310 956 q 442 920 399 956 q 497 826 485 885 q 510 668 510 767 q 492 496 510 561 q 414 403 474 431 l 526 0 l 426 0 m 299 468 q 374 489 350 468 q 406 550 399 510 q 413 668 413 590 q 406 785 413 746 q 374 846 399 825 q 299 867 350 867 l 175 867 l 175 468 l 299 468 m 239 1050 l 178 1050 l 114 1208 l 114 1214 l 199 1214 l 239 1057 l 239 1050 m 390 1050 l 329 1050 l 265 1208 l 265 1214 l 350 1214 l 390 1057 l 390 1050 z "},"Ṛ":{"ha":568,"x_min":78,"x_max":526,"o":"m 426 0 l 325 381 l 303 381 l 175 381 l 175 0 l 78 0 l 78 956 l 310 956 q 442 920 399 956 q 497 826 485 885 q 510 668 510 767 q 492 496 510 561 q 414 403 474 431 l 526 0 l 426 0 m 299 468 q 374 489 350 468 q 406 550 399 510 q 413 668 413 590 q 406 785 413 746 q 374 846 399 825 q 299 867 350 867 l 175 867 l 175 468 l 299 468 m 232 -207 l 232 -86 l 338 -86 l 338 -207 l 232 -207 z "},"Ȓ":{"ha":568,"x_min":78,"x_max":526,"o":"m 426 0 l 325 381 l 303 381 l 175 381 l 175 0 l 78 0 l 78 956 l 310 956 q 442 920 399 956 q 497 826 485 885 q 510 668 510 767 q 492 496 510 561 q 414 403 474 431 l 526 0 l 426 0 m 299 468 q 374 489 350 468 q 406 550 399 510 q 413 668 413 590 q 406 785 413 746 q 374 846 399 825 q 299 867 350 867 l 175 867 l 175 468 l 299 468 m 143 1050 q 151 1156 143 1117 q 191 1218 160 1194 q 286 1242 222 1242 q 380 1218 350 1242 q 418 1156 410 1194 q 426 1050 426 1117 l 358 1050 q 355 1128 358 1103 q 336 1167 351 1153 q 286 1181 321 1181 q 235 1166 251 1181 q 215 1126 219 1151 q 211 1050 211 1101 l 143 1050 z "},"S":{"ha":499,"x_min":42,"x_max":458,"o":"m 246 -11 q 149 -6 201 -11 q 57 8 96 0 l 57 93 q 217 78 154 78 q 288 85 261 78 q 333 111 315 92 q 356 163 350 128 q 361 260 361 199 q 356 374 361 343 q 334 417 351 404 q 268 440 317 431 l 136 467 q 74 504 94 475 q 47 579 53 533 q 42 703 42 625 q 92 906 42 844 q 261 967 143 967 q 363 960 315 967 q 429 947 410 954 l 429 864 q 365 874 406 869 q 286 878 325 878 q 206 867 235 878 q 161 835 176 857 q 143 782 147 813 q 139 703 139 751 q 144 608 139 638 q 162 567 149 579 q 207 550 175 556 l 325 525 q 403 495 375 514 q 446 429 431 476 q 456 375 454 410 q 458 275 458 340 q 440 108 458 168 q 377 18 422 47 q 246 -11 332 -11 z "},"Ś":{"ha":499,"x_min":42,"x_max":458,"o":"m 246 -11 q 149 -6 201 -11 q 57 8 96 0 l 57 93 q 217 78 154 78 q 288 85 261 78 q 333 111 315 92 q 356 163 350 128 q 361 260 361 199 q 356 374 361 343 q 334 417 351 404 q 268 440 317 431 l 136 467 q 74 504 94 475 q 47 579 53 533 q 42 703 42 625 q 92 906 42 844 q 261 967 143 967 q 363 960 315 967 q 429 947 410 954 l 429 864 q 365 874 406 869 q 286 878 325 878 q 206 867 235 878 q 161 835 176 857 q 143 782 147 813 q 139 703 139 751 q 144 608 139 638 q 162 567 149 579 q 207 550 175 556 l 325 525 q 403 495 375 514 q 446 429 431 476 q 456 375 454 410 q 458 275 458 340 q 440 108 458 168 q 377 18 422 47 q 246 -11 332 -11 m 215 1038 l 215 1044 l 263 1233 l 357 1233 l 357 1226 l 285 1038 l 215 1038 z "},"Ꞌ":{"ha":147,"x_min":28,"x_max":119,"o":"m 28 394 l 28 956 l 119 956 l 119 714 l 93 394 l 28 394 z "},"Š":{"ha":499,"x_min":42,"x_max":458,"o":"m 246 -11 q 149 -6 201 -11 q 57 8 96 0 l 57 93 q 217 78 154 78 q 288 85 261 78 q 333 111 315 92 q 356 163 350 128 q 361 260 361 199 q 356 374 361 343 q 334 417 351 404 q 268 440 317 431 l 136 467 q 74 504 94 475 q 47 579 53 533 q 42 703 42 625 q 92 906 42 844 q 261 967 143 967 q 363 960 315 967 q 429 947 410 954 l 429 864 q 365 874 406 869 q 286 878 325 878 q 206 867 235 878 q 161 835 176 857 q 143 782 147 813 q 139 703 139 751 q 144 608 139 638 q 162 567 149 579 q 207 550 175 556 l 325 525 q 403 495 375 514 q 446 429 431 476 q 456 375 454 410 q 458 275 458 340 q 440 108 458 168 q 377 18 422 47 q 246 -11 332 -11 m 201 1042 l 108 1219 l 108 1228 l 174 1228 l 251 1099 l 331 1228 l 396 1228 l 396 1219 l 303 1042 l 201 1042 z "},"Ş":{"ha":499,"x_min":42,"x_max":458,"o":"m 458 275 q 443 116 458 175 q 389 26 428 57 q 279 -10 350 -6 l 225 -262 l 138 -262 l 138 -256 l 214 -11 q 57 8 122 -7 l 57 93 q 217 78 154 78 q 288 85 261 78 q 333 111 315 92 q 356 163 350 128 q 361 260 361 199 q 356 374 361 343 q 334 417 351 404 q 268 440 317 431 l 136 467 q 74 504 94 475 q 47 579 53 533 q 42 703 42 625 q 92 906 42 844 q 261 967 143 967 q 363 960 315 967 q 429 947 410 954 l 429 864 q 365 874 406 869 q 286 878 325 878 q 206 867 235 878 q 161 835 176 857 q 143 782 147 813 q 139 703 139 751 q 144 608 139 638 q 162 567 149 579 q 207 550 175 556 l 325 525 q 403 495 375 514 q 446 429 431 476 q 456 375 454 410 q 458 275 458 340 z "},"Ŝ":{"ha":499,"x_min":42,"x_max":458,"o":"m 246 -11 q 149 -6 201 -11 q 57 8 96 0 l 57 93 q 217 78 154 78 q 288 85 261 78 q 333 111 315 92 q 356 163 350 128 q 361 260 361 199 q 356 374 361 343 q 334 417 351 404 q 268 440 317 431 l 136 467 q 74 504 94 475 q 47 579 53 533 q 42 703 42 625 q 92 906 42 844 q 261 967 143 967 q 363 960 315 967 q 429 947 410 954 l 429 864 q 365 874 406 869 q 286 878 325 878 q 206 867 235 878 q 161 835 176 857 q 143 782 147 813 q 139 703 139 751 q 144 608 139 638 q 162 567 149 579 q 207 550 175 556 l 325 525 q 403 495 375 514 q 446 429 431 476 q 456 375 454 410 q 458 275 458 340 q 440 108 458 168 q 377 18 422 47 q 246 -11 332 -11 m 106 1047 l 106 1056 l 199 1233 l 300 1233 l 393 1056 l 393 1047 l 328 1047 l 249 1176 l 171 1047 l 106 1047 z "},"Ș":{"ha":499,"x_min":42,"x_max":458,"o":"m 246 -11 q 149 -6 201 -11 q 57 8 96 0 l 57 93 q 217 78 154 78 q 288 85 261 78 q 333 111 315 92 q 356 163 350 128 q 361 260 361 199 q 356 374 361 343 q 334 417 351 404 q 268 440 317 431 l 136 467 q 74 504 94 475 q 47 579 53 533 q 42 703 42 625 q 92 906 42 844 q 261 967 143 967 q 363 960 315 967 q 429 947 410 954 l 429 864 q 365 874 406 869 q 286 878 325 878 q 206 867 235 878 q 161 835 176 857 q 143 782 147 813 q 139 703 139 751 q 144 608 139 638 q 162 567 149 579 q 207 550 175 556 l 325 525 q 403 495 375 514 q 446 429 431 476 q 456 375 454 410 q 458 275 458 340 q 440 108 458 168 q 377 18 422 47 q 246 -11 332 -11 m 188 -294 q 240 -279 229 -294 q 251 -214 251 -264 l 251 -192 l 210 -192 l 210 -86 l 314 -86 l 314 -183 q 304 -281 314 -249 q 268 -327 294 -314 q 188 -340 242 -340 l 188 -294 z "},"Ṣ":{"ha":499,"x_min":42,"x_max":458,"o":"m 246 -11 q 149 -6 201 -11 q 57 8 96 0 l 57 93 q 217 78 154 78 q 288 85 261 78 q 333 111 315 92 q 356 163 350 128 q 361 260 361 199 q 356 374 361 343 q 334 417 351 404 q 268 440 317 431 l 136 467 q 74 504 94 475 q 47 579 53 533 q 42 703 42 625 q 92 906 42 844 q 261 967 143 967 q 363 960 315 967 q 429 947 410 954 l 429 864 q 365 874 406 869 q 286 878 325 878 q 206 867 235 878 q 161 835 176 857 q 143 782 147 813 q 139 703 139 751 q 144 608 139 638 q 162 567 149 579 q 207 550 175 556 l 325 525 q 403 495 375 514 q 446 429 431 476 q 456 375 454 410 q 458 275 458 340 q 440 108 458 168 q 377 18 422 47 q 246 -11 332 -11 m 197 -207 l 197 -86 l 303 -86 l 303 -207 l 197 -207 z "},"ẞ":{"ha":664,"x_min":71,"x_max":613,"o":"m 417 518 q 565 456 518 518 q 613 254 613 394 q 594 103 613 160 q 528 17 575 46 q 396 -11 481 -11 q 325 -5 365 -11 q 253 10 285 1 l 253 92 q 374 78 322 78 q 456 91 426 78 q 501 142 486 104 q 517 256 517 181 q 491 400 517 360 q 401 440 465 440 l 314 440 l 314 513 l 478 854 q 318 878 407 878 q 217 855 247 878 q 178 763 188 832 q 168 528 168 693 l 168 0 l 71 0 l 71 528 q 88 803 71 714 q 154 930 104 893 q 310 967 204 967 q 457 953 385 967 q 576 921 529 940 l 576 849 l 415 518 l 417 518 z "},"Ə":{"ha":589,"x_min":60,"x_max":529,"o":"m 279 967 q 442 928 390 967 q 511 791 493 890 q 529 478 529 692 q 515 160 529 256 q 453 26 501 64 q 294 -11 406 -11 q 135 26 183 -11 q 74 160 88 64 q 60 478 60 256 l 60 528 l 433 528 q 420 763 432 693 q 372 855 408 832 q 250 878 335 878 q 119 865 194 878 l 119 947 q 279 967 194 967 m 294 78 q 388 97 361 78 q 426 190 415 117 q 438 439 436 263 l 151 439 q 163 190 153 263 q 201 97 174 117 q 294 78 228 78 z "},"T":{"ha":468,"x_min":17,"x_max":451,"o":"m 186 0 l 186 865 l 17 865 l 17 956 l 451 956 l 451 865 l 282 865 l 282 0 l 186 0 z "},"Ŧ":{"ha":468,"x_min":17,"x_max":451,"o":"m 451 865 l 282 865 l 282 525 l 411 525 l 411 444 l 282 444 l 282 0 l 186 0 l 186 444 l 57 444 l 57 525 l 186 525 l 186 865 l 17 865 l 17 956 l 451 956 l 451 865 z "},"Ť":{"ha":468,"x_min":17,"x_max":451,"o":"m 186 0 l 186 865 l 17 865 l 17 956 l 451 956 l 451 865 l 282 865 l 282 0 l 186 0 m 183 1047 l 90 1225 l 90 1233 l 156 1233 l 233 1104 l 313 1233 l 378 1233 l 378 1225 l 285 1047 l 183 1047 z "},"Ţ":{"ha":468,"x_min":17,"x_max":451,"o":"m 17 956 l 451 956 l 451 865 l 282 865 l 282 0 l 265 0 l 210 -262 l 122 -262 l 122 -256 l 203 0 l 186 0 l 186 865 l 17 865 l 17 956 z "},"Ț":{"ha":468,"x_min":17,"x_max":451,"o":"m 186 0 l 186 865 l 17 865 l 17 956 l 451 956 l 451 865 l 282 865 l 282 0 l 186 0 m 172 -294 q 225 -279 214 -294 q 236 -214 236 -264 l 236 -192 l 194 -192 l 194 -86 l 299 -86 l 299 -183 q 289 -281 299 -249 q 253 -327 279 -314 q 172 -340 226 -340 l 172 -294 z "},"Ṭ":{"ha":468,"x_min":17,"x_max":451,"o":"m 186 0 l 186 865 l 17 865 l 17 956 l 451 956 l 451 865 l 282 865 l 282 0 l 186 0 m 182 -207 l 182 -86 l 288 -86 l 288 -207 l 182 -207 z "},"U":{"ha":589,"x_min":71,"x_max":517,"o":"m 517 956 l 517 413 q 504 144 517 228 q 445 25 492 61 q 294 -11 399 -11 q 142 25 189 -11 q 83 144 96 61 q 71 413 71 228 l 71 956 l 168 956 l 168 363 q 175 176 168 232 q 208 99 182 121 q 294 78 233 78 q 381 99 356 78 q 414 176 407 121 q 421 363 421 232 l 421 956 l 517 956 z "},"Ú":{"ha":589,"x_min":71,"x_max":517,"o":"m 517 956 l 517 413 q 504 144 517 228 q 445 25 492 61 q 294 -11 399 -11 q 142 25 189 -11 q 83 144 96 61 q 71 413 71 228 l 71 956 l 168 956 l 168 363 q 175 176 168 232 q 208 99 182 121 q 294 78 233 78 q 381 99 356 78 q 414 176 407 121 q 421 363 421 232 l 421 956 l 517 956 m 258 1042 l 258 1049 l 306 1238 l 400 1238 l 400 1231 l 328 1042 l 258 1042 z "},"Ŭ":{"ha":589,"x_min":71,"x_max":517,"o":"m 517 956 l 517 413 q 504 144 517 228 q 445 25 492 61 q 294 -11 399 -11 q 142 25 189 -11 q 83 144 96 61 q 71 413 71 228 l 71 956 l 168 956 l 168 363 q 175 176 168 232 q 208 99 182 121 q 294 78 233 78 q 381 99 356 78 q 414 176 407 121 q 421 363 421 232 l 421 956 l 517 956 m 436 1233 q 428 1128 436 1167 q 388 1065 419 1089 q 293 1042 357 1042 q 199 1065 229 1042 q 161 1128 169 1089 q 153 1233 153 1167 l 221 1233 q 224 1156 221 1181 q 243 1117 228 1131 q 293 1103 258 1103 q 344 1117 328 1103 q 364 1157 360 1132 q 368 1233 368 1182 l 436 1233 z "},"Ǔ":{"ha":589,"x_min":71,"x_max":517,"o":"m 517 956 l 517 413 q 504 144 517 228 q 445 25 492 61 q 294 -11 399 -11 q 142 25 189 -11 q 83 144 96 61 q 71 413 71 228 l 71 956 l 168 956 l 168 363 q 175 176 168 232 q 208 99 182 121 q 294 78 233 78 q 381 99 356 78 q 414 176 407 121 q 421 363 421 232 l 421 956 l 517 956 m 243 1047 l 150 1225 l 150 1233 l 215 1233 l 293 1104 l 372 1233 l 438 1233 l 438 1225 l 344 1047 l 243 1047 z "},"Û":{"ha":589,"x_min":71,"x_max":517,"o":"m 517 956 l 517 413 q 504 144 517 228 q 445 25 492 61 q 294 -11 399 -11 q 142 25 189 -11 q 83 144 96 61 q 71 413 71 228 l 71 956 l 168 956 l 168 363 q 175 176 168 232 q 208 99 182 121 q 294 78 233 78 q 381 99 356 78 q 414 176 407 121 q 421 363 421 232 l 421 956 l 517 956 m 150 1042 l 150 1050 l 243 1228 l 344 1228 l 438 1050 l 438 1042 l 372 1042 l 293 1171 l 215 1042 l 150 1042 z "},"Ȕ":{"ha":589,"x_min":71,"x_max":517,"o":"m 517 956 l 517 413 q 504 144 517 228 q 445 25 492 61 q 294 -11 399 -11 q 142 25 189 -11 q 83 144 96 61 q 71 413 71 228 l 71 956 l 168 956 l 168 363 q 175 176 168 232 q 208 99 182 121 q 294 78 233 78 q 381 99 356 78 q 414 176 407 121 q 421 363 421 232 l 421 956 l 517 956 m 249 1050 l 188 1050 l 124 1208 l 124 1214 l 208 1214 l 249 1057 l 249 1050 m 400 1050 l 339 1050 l 275 1208 l 275 1214 l 360 1214 l 400 1057 l 400 1050 z "},"Ü":{"ha":589,"x_min":71,"x_max":517,"o":"m 517 956 l 517 413 q 504 144 517 228 q 445 25 492 61 q 294 -11 399 -11 q 142 25 189 -11 q 83 144 96 61 q 71 413 71 228 l 71 956 l 168 956 l 168 363 q 175 176 168 232 q 208 99 182 121 q 294 78 233 78 q 381 99 356 78 q 414 176 407 121 q 421 363 421 232 l 421 956 l 517 956 m 133 1072 l 133 1176 l 222 1176 l 222 1072 l 133 1072 m 365 1072 l 365 1176 l 454 1176 l 454 1072 l 365 1072 z "},"Ǘ":{"ha":589,"x_min":71,"x_max":517,"o":"m 517 956 l 517 413 q 504 144 517 228 q 445 25 492 61 q 294 -11 399 -11 q 142 25 189 -11 q 83 144 96 61 q 71 413 71 228 l 71 956 l 168 956 l 168 363 q 175 176 168 232 q 208 99 182 121 q 294 78 233 78 q 381 99 356 78 q 414 176 407 121 q 421 363 421 232 l 421 956 l 517 956 m 133 1111 l 133 1215 l 222 1215 l 222 1111 l 133 1111 m 365 1111 l 365 1215 l 454 1215 l 454 1111 l 365 1111 m 263 1214 l 263 1221 l 310 1410 l 404 1410 l 404 1403 l 332 1214 l 263 1214 z "},"Ǚ":{"ha":589,"x_min":71,"x_max":517,"o":"m 517 956 l 517 413 q 504 144 517 228 q 445 25 492 61 q 294 -11 399 -11 q 142 25 189 -11 q 83 144 96 61 q 71 413 71 228 l 71 956 l 168 956 l 168 363 q 175 176 168 232 q 208 99 182 121 q 294 78 233 78 q 381 99 356 78 q 414 176 407 121 q 421 363 421 232 l 421 956 l 517 956 m 133 1111 l 133 1215 l 222 1215 l 222 1111 l 133 1111 m 365 1111 l 365 1215 l 454 1215 l 454 1111 l 365 1111 m 246 1224 l 153 1401 l 153 1410 l 218 1410 l 296 1281 l 375 1410 l 440 1410 l 440 1401 l 347 1224 l 246 1224 z "},"Ǜ":{"ha":589,"x_min":71,"x_max":517,"o":"m 517 956 l 517 413 q 504 144 517 228 q 445 25 492 61 q 294 -11 399 -11 q 142 25 189 -11 q 83 144 96 61 q 71 413 71 228 l 71 956 l 168 956 l 168 363 q 175 176 168 232 q 208 99 182 121 q 294 78 233 78 q 381 99 356 78 q 414 176 407 121 q 421 363 421 232 l 421 956 l 517 956 m 133 1111 l 133 1215 l 222 1215 l 222 1111 l 133 1111 m 365 1111 l 365 1215 l 454 1215 l 454 1111 l 365 1111 m 265 1214 l 193 1403 l 193 1410 l 288 1410 l 335 1221 l 335 1214 l 265 1214 z "},"Ǖ":{"ha":589,"x_min":71,"x_max":517,"o":"m 181 1311 l 181 1394 l 414 1394 l 414 1311 l 181 1311 m 133 1111 l 133 1215 l 222 1215 l 222 1111 l 133 1111 m 365 1111 l 365 1215 l 454 1215 l 454 1111 l 365 1111 m 517 956 l 517 413 q 504 144 517 228 q 445 25 492 61 q 294 -11 399 -11 q 142 25 189 -11 q 83 144 96 61 q 71 413 71 228 l 71 956 l 168 956 l 168 363 q 175 176 168 232 q 208 99 182 121 q 294 78 233 78 q 381 99 356 78 q 414 176 407 121 q 421 363 421 232 l 421 956 l 517 956 z "},"Ụ":{"ha":589,"x_min":71,"x_max":517,"o":"m 517 956 l 517 413 q 504 144 517 228 q 445 25 492 61 q 294 -11 399 -11 q 142 25 189 -11 q 83 144 96 61 q 71 413 71 228 l 71 956 l 168 956 l 168 363 q 175 176 168 232 q 208 99 182 121 q 294 78 233 78 q 381 99 356 78 q 414 176 407 121 q 421 363 421 232 l 421 956 l 517 956 m 242 -207 l 242 -86 l 347 -86 l 347 -207 l 242 -207 z "},"Ù":{"ha":589,"x_min":71,"x_max":517,"o":"m 517 956 l 517 413 q 504 144 517 228 q 445 25 492 61 q 294 -11 399 -11 q 142 25 189 -11 q 83 144 96 61 q 71 413 71 228 l 71 956 l 168 956 l 168 363 q 175 176 168 232 q 208 99 182 121 q 294 78 233 78 q 381 99 356 78 q 414 176 407 121 q 421 363 421 232 l 421 956 l 517 956 m 269 1042 l 197 1231 l 197 1238 l 292 1238 l 339 1049 l 339 1042 l 269 1042 z "},"Ủ":{"ha":589,"x_min":71,"x_max":517,"o":"m 517 956 l 517 413 q 504 144 517 228 q 445 25 492 61 q 294 -11 399 -11 q 142 25 189 -11 q 83 144 96 61 q 71 413 71 228 l 71 956 l 168 956 l 168 363 q 175 176 168 232 q 208 99 182 121 q 294 78 233 78 q 381 99 356 78 q 414 176 407 121 q 421 363 421 232 l 421 956 l 517 956 m 231 1046 q 241 1085 231 1074 q 278 1107 251 1097 l 293 1111 q 340 1131 328 1121 q 351 1167 351 1142 q 347 1193 351 1185 q 326 1205 342 1201 q 276 1208 311 1208 q 165 1204 229 1208 l 165 1261 q 289 1274 240 1274 q 392 1253 363 1274 q 422 1181 422 1232 q 413 1116 422 1136 q 365 1082 404 1096 l 353 1076 q 313 1061 324 1067 q 299 1049 301 1056 q 296 1026 296 1042 l 231 1026 l 231 1046 z "},"Ư":{"ha":589,"x_min":71,"x_max":618,"o":"m 618 1088 l 618 1047 q 610 964 618 993 q 581 921 603 935 q 517 904 560 907 l 517 413 q 504 144 517 228 q 445 25 492 61 q 294 -11 399 -11 q 142 25 189 -11 q 83 144 96 61 q 71 413 71 228 l 71 956 l 168 956 l 168 363 q 175 176 168 232 q 208 99 182 121 q 294 78 233 78 q 381 99 356 78 q 414 176 407 121 q 421 363 421 232 l 421 956 l 488 956 q 540 972 529 956 q 551 1033 551 988 l 551 1088 l 618 1088 z "},"Ứ":{"ha":589,"x_min":71,"x_max":618,"o":"m 618 1088 l 618 1047 q 610 964 618 993 q 581 921 603 935 q 517 904 560 907 l 517 413 q 504 144 517 228 q 445 25 492 61 q 294 -11 399 -11 q 142 25 189 -11 q 83 144 96 61 q 71 413 71 228 l 71 956 l 168 956 l 168 363 q 175 176 168 232 q 208 99 182 121 q 294 78 233 78 q 381 99 356 78 q 414 176 407 121 q 421 363 421 232 l 421 956 l 488 956 q 540 972 529 956 q 551 1033 551 988 l 551 1088 l 618 1088 m 260 1038 l 260 1044 l 307 1233 l 401 1233 l 401 1226 l 329 1038 l 260 1038 z "},"Ự":{"ha":589,"x_min":71,"x_max":618,"o":"m 618 1088 l 618 1047 q 610 964 618 993 q 581 921 603 935 q 517 904 560 907 l 517 413 q 504 144 517 228 q 445 25 492 61 q 294 -11 399 -11 q 142 25 189 -11 q 83 144 96 61 q 71 413 71 228 l 71 956 l 168 956 l 168 363 q 175 176 168 232 q 208 99 182 121 q 294 78 233 78 q 381 99 356 78 q 414 176 407 121 q 421 363 421 232 l 421 956 l 488 956 q 540 972 529 956 q 551 1033 551 988 l 551 1088 l 618 1088 m 242 -207 l 242 -86 l 347 -86 l 347 -207 l 242 -207 z "},"Ừ":{"ha":589,"x_min":71,"x_max":618,"o":"m 618 1088 l 618 1047 q 610 964 618 993 q 581 921 603 935 q 517 904 560 907 l 517 413 q 504 144 517 228 q 445 25 492 61 q 294 -11 399 -11 q 142 25 189 -11 q 83 144 96 61 q 71 413 71 228 l 71 956 l 168 956 l 168 363 q 175 176 168 232 q 208 99 182 121 q 294 78 233 78 q 381 99 356 78 q 414 176 407 121 q 421 363 421 232 l 421 956 l 488 956 q 540 972 529 956 q 551 1033 551 988 l 551 1088 l 618 1088 m 263 1038 l 190 1226 l 190 1233 l 285 1233 l 332 1044 l 332 1038 l 263 1038 z "},"Ử":{"ha":589,"x_min":71,"x_max":618,"o":"m 618 1088 l 618 1047 q 610 964 618 993 q 581 921 603 935 q 517 904 560 907 l 517 413 q 504 144 517 228 q 445 25 492 61 q 294 -11 399 -11 q 142 25 189 -11 q 83 144 96 61 q 71 413 71 228 l 71 956 l 168 956 l 168 363 q 175 176 168 232 q 208 99 182 121 q 294 78 233 78 q 381 99 356 78 q 414 176 407 121 q 421 363 421 232 l 421 956 l 488 956 q 540 972 529 956 q 551 1033 551 988 l 551 1088 l 618 1088 m 231 1046 q 241 1085 231 1074 q 278 1107 251 1097 l 293 1111 q 340 1131 328 1121 q 351 1167 351 1142 q 347 1193 351 1185 q 326 1205 342 1201 q 276 1208 311 1208 q 165 1204 229 1208 l 165 1261 q 289 1274 240 1274 q 392 1253 363 1274 q 422 1181 422 1232 q 413 1116 422 1136 q 365 1082 404 1096 l 353 1076 q 313 1061 324 1067 q 299 1049 301 1056 q 296 1026 296 1042 l 231 1026 l 231 1046 z "},"Ữ":{"ha":589,"x_min":71,"x_max":618,"o":"m 618 1088 l 618 1047 q 610 964 618 993 q 581 921 603 935 q 517 904 560 907 l 517 413 q 504 144 517 228 q 445 25 492 61 q 294 -11 399 -11 q 142 25 189 -11 q 83 144 96 61 q 71 413 71 228 l 71 956 l 168 956 l 168 363 q 175 176 168 232 q 208 99 182 121 q 294 78 233 78 q 381 99 356 78 q 414 176 407 121 q 421 363 421 232 l 421 956 l 488 956 q 540 972 529 956 q 551 1033 551 988 l 551 1088 l 618 1088 m 463 1233 q 449 1118 463 1150 q 386 1086 435 1086 q 288 1117 349 1086 q 244 1138 261 1131 q 210 1144 226 1144 q 190 1128 194 1144 q 185 1069 185 1113 l 124 1069 q 138 1185 124 1153 q 200 1218 153 1218 q 248 1209 224 1218 q 303 1185 272 1200 q 344 1166 328 1172 q 376 1160 361 1160 q 398 1175 393 1160 q 403 1233 403 1190 l 463 1233 z "},"Ű":{"ha":589,"x_min":71,"x_max":517,"o":"m 517 956 l 517 413 q 504 144 517 228 q 445 25 492 61 q 294 -11 399 -11 q 142 25 189 -11 q 83 144 96 61 q 71 413 71 228 l 71 956 l 168 956 l 168 363 q 175 176 168 232 q 208 99 182 121 q 294 78 233 78 q 381 99 356 78 q 414 176 407 121 q 421 363 421 232 l 421 956 l 517 956 m 196 1050 l 196 1057 l 236 1214 l 321 1214 l 321 1208 l 257 1050 l 196 1050 m 347 1050 l 347 1057 l 388 1214 l 472 1214 l 472 1208 l 408 1050 l 347 1050 z "},"Ȗ":{"ha":589,"x_min":71,"x_max":517,"o":"m 517 956 l 517 413 q 504 144 517 228 q 445 25 492 61 q 294 -11 399 -11 q 142 25 189 -11 q 83 144 96 61 q 71 413 71 228 l 71 956 l 168 956 l 168 363 q 175 176 168 232 q 208 99 182 121 q 294 78 233 78 q 381 99 356 78 q 414 176 407 121 q 421 363 421 232 l 421 956 l 517 956 m 153 1050 q 161 1156 153 1117 q 201 1218 169 1194 q 296 1242 232 1242 q 390 1218 360 1242 q 428 1156 419 1194 q 436 1050 436 1117 l 368 1050 q 365 1128 368 1103 q 346 1167 361 1153 q 296 1181 331 1181 q 245 1166 261 1181 q 225 1126 229 1151 q 221 1050 221 1101 l 153 1050 z "},"Ū":{"ha":589,"x_min":71,"x_max":517,"o":"m 517 956 l 517 413 q 504 144 517 228 q 445 25 492 61 q 294 -11 399 -11 q 142 25 189 -11 q 83 144 96 61 q 71 413 71 228 l 71 956 l 168 956 l 168 363 q 175 176 168 232 q 208 99 182 121 q 294 78 233 78 q 381 99 356 78 q 414 176 407 121 q 421 363 421 232 l 421 956 l 517 956 m 178 1146 l 178 1233 l 411 1233 l 411 1146 l 178 1146 z "},"Ų":{"ha":589,"x_min":71,"x_max":517,"o":"m 517 956 l 517 413 q 512 212 517 283 q 491 93 507 140 q 442 22 475 46 q 373 -54 400 -7 q 346 -149 346 -101 q 406 -210 346 -210 l 426 -208 l 426 -269 q 383 -272 399 -272 q 297 -243 324 -272 q 269 -165 269 -214 q 288 -88 269 -129 q 338 -10 306 -47 q 294 -11 324 -11 q 142 25 189 -11 q 83 144 96 61 q 71 413 71 228 l 71 956 l 168 956 l 168 363 q 175 176 168 232 q 208 99 182 121 q 294 78 233 78 q 381 99 356 78 q 414 176 407 121 q 421 363 421 232 l 421 956 l 517 956 z "},"Ů":{"ha":589,"x_min":71,"x_max":517,"o":"m 517 956 l 517 413 q 504 144 517 228 q 445 25 492 61 q 294 -11 399 -11 q 142 25 189 -11 q 83 144 96 61 q 71 413 71 228 l 71 956 l 168 956 l 168 363 q 175 176 168 232 q 208 99 182 121 q 294 78 233 78 q 381 99 356 78 q 414 176 407 121 q 421 363 421 232 l 421 956 l 517 956 m 294 1017 q 208 1029 235 1017 q 172 1067 181 1042 q 164 1146 164 1093 q 172 1224 164 1197 q 208 1263 181 1250 q 294 1275 235 1275 q 381 1263 354 1275 q 417 1224 408 1250 q 425 1146 425 1197 q 417 1067 425 1093 q 381 1029 408 1042 q 294 1017 354 1017 m 294 1074 q 345 1088 335 1074 q 356 1146 356 1101 q 345 1204 356 1190 q 294 1218 335 1218 q 253 1212 265 1218 q 237 1192 240 1206 q 233 1146 233 1178 q 237 1100 233 1114 q 253 1080 240 1086 q 294 1074 265 1074 z "},"Ũ":{"ha":589,"x_min":71,"x_max":517,"o":"m 517 956 l 517 413 q 504 144 517 228 q 445 25 492 61 q 294 -11 399 -11 q 142 25 189 -11 q 83 144 96 61 q 71 413 71 228 l 71 956 l 168 956 l 168 363 q 175 176 168 232 q 208 99 182 121 q 294 78 233 78 q 381 99 356 78 q 414 176 407 121 q 421 363 421 232 l 421 956 l 517 956 m 463 1233 q 449 1118 463 1150 q 386 1086 435 1086 q 288 1117 349 1086 q 244 1138 261 1131 q 210 1144 226 1144 q 190 1128 194 1144 q 185 1069 185 1113 l 124 1069 q 138 1185 124 1153 q 200 1218 153 1218 q 248 1209 224 1218 q 303 1185 272 1200 q 344 1166 328 1172 q 376 1160 361 1160 q 398 1175 393 1160 q 403 1233 403 1190 l 463 1233 z "},"V":{"ha":521,"x_min":8,"x_max":513,"o":"m 194 0 l 8 956 l 107 956 l 258 131 l 268 131 l 418 956 l 513 956 l 328 0 l 194 0 z "},"W":{"ha":803,"x_min":14,"x_max":789,"o":"m 526 0 l 404 786 l 397 786 l 276 0 l 150 0 l 14 956 l 113 956 l 214 139 l 222 139 l 344 956 l 461 956 l 585 139 l 593 139 l 694 956 l 789 956 l 653 0 l 526 0 z "},"Ẃ":{"ha":803,"x_min":14,"x_max":789,"o":"m 526 0 l 404 786 l 397 786 l 276 0 l 150 0 l 14 956 l 113 956 l 214 139 l 222 139 l 344 956 l 461 956 l 585 139 l 593 139 l 694 956 l 789 956 l 653 0 l 526 0 m 368 1038 l 368 1044 l 415 1233 l 510 1233 l 510 1226 l 438 1038 l 368 1038 z "},"Ŵ":{"ha":803,"x_min":14,"x_max":789,"o":"m 526 0 l 404 786 l 397 786 l 276 0 l 150 0 l 14 956 l 113 956 l 214 139 l 222 139 l 344 956 l 461 956 l 585 139 l 593 139 l 694 956 l 789 956 l 653 0 l 526 0 m 258 1047 l 258 1056 l 351 1233 l 453 1233 l 546 1056 l 546 1047 l 481 1047 l 401 1176 l 324 1047 l 258 1047 z "},"Ẅ":{"ha":803,"x_min":14,"x_max":789,"o":"m 526 0 l 404 786 l 397 786 l 276 0 l 150 0 l 14 956 l 113 956 l 214 139 l 222 139 l 344 956 l 461 956 l 585 139 l 593 139 l 694 956 l 789 956 l 653 0 l 526 0 m 242 1111 l 242 1215 l 331 1215 l 331 1111 l 242 1111 m 474 1111 l 474 1215 l 563 1215 l 563 1111 l 474 1111 z "},"Ẁ":{"ha":803,"x_min":14,"x_max":789,"o":"m 526 0 l 404 786 l 397 786 l 276 0 l 150 0 l 14 956 l 113 956 l 214 139 l 222 139 l 344 956 l 461 956 l 585 139 l 593 139 l 694 956 l 789 956 l 653 0 l 526 0 m 371 1038 l 299 1226 l 299 1233 l 393 1233 l 440 1044 l 440 1038 l 371 1038 z "},"X":{"ha":553,"x_min":18,"x_max":536,"o":"m 433 0 l 279 401 l 271 401 l 117 0 l 18 0 l 208 481 l 21 956 l 122 956 l 275 563 l 282 563 l 433 956 l 533 956 l 344 483 l 536 0 l 433 0 z "},"Y":{"ha":492,"x_min":-1,"x_max":493,"o":"m 197 0 l 197 371 l -1 956 l 97 956 l 244 489 l 253 489 l 397 956 l 493 956 l 294 371 l 294 0 l 197 0 z "},"Ý":{"ha":492,"x_min":-1,"x_max":493,"o":"m 197 0 l 197 371 l -1 956 l 97 956 l 244 489 l 253 489 l 397 956 l 493 956 l 294 371 l 294 0 l 197 0 m 214 1042 l 214 1049 l 261 1238 l 356 1238 l 356 1231 l 283 1042 l 214 1042 z "},"Ŷ":{"ha":492,"x_min":-1,"x_max":493,"o":"m 197 0 l 197 371 l -1 956 l 97 956 l 244 489 l 253 489 l 397 956 l 493 956 l 294 371 l 294 0 l 197 0 m 101 1047 l 101 1056 l 194 1233 l 296 1233 l 389 1056 l 389 1047 l 324 1047 l 244 1176 l 167 1047 l 101 1047 z "},"Ÿ":{"ha":492,"x_min":-1,"x_max":493,"o":"m 197 0 l 197 371 l -1 956 l 97 956 l 244 489 l 253 489 l 397 956 l 493 956 l 294 371 l 294 0 l 197 0 m 89 1072 l 89 1176 l 178 1176 l 178 1072 l 89 1072 m 321 1072 l 321 1176 l 410 1176 l 410 1072 l 321 1072 z "},"Ỵ":{"ha":492,"x_min":-1,"x_max":493,"o":"m 197 0 l 197 371 l -1 956 l 97 956 l 244 489 l 253 489 l 397 956 l 493 956 l 294 371 l 294 0 l 197 0 m 193 -207 l 193 -86 l 299 -86 l 299 -207 l 193 -207 z "},"Ỳ":{"ha":492,"x_min":-1,"x_max":493,"o":"m 197 0 l 197 371 l -1 956 l 97 956 l 244 489 l 253 489 l 397 956 l 493 956 l 294 371 l 294 0 l 197 0 m 214 1038 l 142 1226 l 142 1233 l 236 1233 l 283 1044 l 283 1038 l 214 1038 z "},"Ỷ":{"ha":492,"x_min":-1,"x_max":493,"o":"m 197 0 l 197 371 l -1 956 l 97 956 l 244 489 l 253 489 l 397 956 l 493 956 l 294 371 l 294 0 l 197 0 m 182 1046 q 192 1085 182 1074 q 229 1107 203 1097 l 244 1111 q 291 1131 279 1121 q 303 1167 303 1142 q 298 1193 303 1185 q 278 1205 293 1201 q 228 1208 263 1208 q 117 1204 181 1208 l 117 1261 q 240 1274 192 1274 q 344 1253 314 1274 q 374 1181 374 1232 q 365 1116 374 1136 q 317 1082 356 1096 l 304 1076 q 264 1061 275 1067 q 250 1049 253 1056 q 247 1026 247 1042 l 182 1026 l 182 1046 z "},"Ȳ":{"ha":492,"x_min":-1,"x_max":493,"o":"m 197 0 l 197 371 l -1 956 l 97 956 l 244 489 l 253 489 l 397 956 l 493 956 l 294 371 l 294 0 l 197 0 m 129 1146 l 129 1233 l 363 1233 l 363 1146 l 129 1146 z "},"Ỹ":{"ha":492,"x_min":-1,"x_max":493,"o":"m 197 0 l 197 371 l -1 956 l 97 956 l 244 489 l 253 489 l 397 956 l 493 956 l 294 371 l 294 0 l 197 0 m 414 1233 q 400 1118 414 1150 q 338 1086 386 1086 q 239 1117 300 1086 q 195 1138 213 1131 q 161 1144 178 1144 q 141 1128 146 1144 q 136 1069 136 1113 l 75 1069 q 90 1185 75 1153 q 151 1218 104 1218 q 199 1209 175 1218 q 254 1185 224 1200 q 296 1166 279 1172 q 328 1160 313 1160 q 349 1175 344 1160 q 354 1233 354 1190 l 414 1233 z "},"Z":{"ha":475,"x_min":29,"x_max":446,"o":"m 29 0 l 29 83 l 338 867 l 39 867 l 39 956 l 440 956 l 440 872 l 133 89 l 446 89 l 446 0 l 29 0 z "},"Ź":{"ha":475,"x_min":29,"x_max":446,"o":"m 29 0 l 29 83 l 338 867 l 39 867 l 39 956 l 440 956 l 440 872 l 133 89 l 446 89 l 446 0 l 29 0 m 203 1038 l 203 1044 l 250 1233 l 344 1233 l 344 1226 l 272 1038 l 203 1038 z "},"Ž":{"ha":475,"x_min":29,"x_max":446,"o":"m 29 0 l 29 83 l 338 867 l 39 867 l 39 956 l 440 956 l 440 872 l 133 89 l 446 89 l 446 0 l 29 0 m 196 1042 l 103 1219 l 103 1228 l 168 1228 l 246 1099 l 325 1228 l 390 1228 l 390 1219 l 297 1042 l 196 1042 z "},"Ż":{"ha":475,"x_min":29,"x_max":446,"o":"m 29 0 l 29 83 l 338 867 l 39 867 l 39 956 l 440 956 l 440 872 l 133 89 l 446 89 l 446 0 l 29 0 m 192 1111 l 192 1215 l 281 1215 l 281 1111 l 192 1111 z "},"Ẓ":{"ha":475,"x_min":29,"x_max":446,"o":"m 29 0 l 29 83 l 338 867 l 39 867 l 39 956 l 440 956 l 440 872 l 133 89 l 446 89 l 446 0 l 29 0 m 185 -207 l 185 -86 l 290 -86 l 290 -207 l 185 -207 z "},"a":{"ha":503,"x_min":36,"x_max":436,"o":"m 199 -11 q 103 8 139 -11 q 52 71 68 26 q 36 196 36 115 q 51 320 36 276 q 99 383 65 364 q 194 403 132 403 q 344 396 238 403 l 344 451 q 335 576 344 539 q 299 626 325 614 q 210 639 272 639 q 65 625 132 639 l 65 703 q 235 719 151 719 q 359 696 317 719 q 419 616 401 672 q 436 450 436 560 l 436 0 l 354 0 l 349 97 l 342 97 q 199 -11 317 -11 m 222 72 q 292 84 265 72 q 329 138 318 96 q 344 282 344 189 l 344 333 l 217 333 q 160 324 179 333 q 133 286 140 314 q 125 201 125 258 q 133 121 125 147 q 160 83 140 94 q 222 72 181 72 z "},"á":{"ha":503,"x_min":36,"x_max":436,"o":"m 199 -11 q 103 8 139 -11 q 52 71 68 26 q 36 196 36 115 q 51 320 36 276 q 99 383 65 364 q 194 403 132 403 q 344 396 238 403 l 344 451 q 335 576 344 539 q 299 626 325 614 q 210 639 272 639 q 65 625 132 639 l 65 703 q 235 719 151 719 q 359 696 317 719 q 419 616 401 672 q 436 450 436 560 l 436 0 l 354 0 l 349 97 l 342 97 q 199 -11 317 -11 m 222 72 q 292 84 265 72 q 329 138 318 96 q 344 282 344 189 l 344 333 l 217 333 q 160 324 179 333 q 133 286 140 314 q 125 201 125 258 q 133 121 125 147 q 160 83 140 94 q 222 72 181 72 m 211 836 l 211 843 l 258 1032 l 353 1032 l 353 1025 l 281 836 l 211 836 z "},"ă":{"ha":503,"x_min":36,"x_max":436,"o":"m 199 -11 q 103 8 139 -11 q 52 71 68 26 q 36 196 36 115 q 51 320 36 276 q 99 383 65 364 q 194 403 132 403 q 344 396 238 403 l 344 451 q 335 576 344 539 q 299 626 325 614 q 210 639 272 639 q 65 625 132 639 l 65 703 q 235 719 151 719 q 359 696 317 719 q 419 616 401 672 q 436 450 436 560 l 436 0 l 354 0 l 349 97 l 342 97 q 199 -11 317 -11 m 222 72 q 292 84 265 72 q 329 138 318 96 q 344 282 344 189 l 344 333 l 217 333 q 160 324 179 333 q 133 286 140 314 q 125 201 125 258 q 133 121 125 147 q 160 83 140 94 q 222 72 181 72 m 394 1032 q 386 926 394 965 q 347 864 378 888 q 251 840 315 840 q 158 864 188 840 q 119 926 128 888 q 111 1032 111 965 l 179 1032 q 183 954 179 979 q 201 915 186 929 q 251 901 217 901 q 302 916 286 901 q 322 956 318 931 q 326 1032 326 981 l 394 1032 z "},"ắ":{"ha":503,"x_min":36,"x_max":436,"o":"m 199 -11 q 103 8 139 -11 q 52 71 68 26 q 36 196 36 115 q 51 320 36 276 q 99 383 65 364 q 194 403 132 403 q 344 396 238 403 l 344 451 q 335 576 344 539 q 299 626 325 614 q 210 639 272 639 q 65 625 132 639 l 65 703 q 235 719 151 719 q 359 696 317 719 q 419 616 401 672 q 436 450 436 560 l 436 0 l 354 0 l 349 97 l 342 97 q 199 -11 317 -11 m 222 72 q 292 84 265 72 q 329 138 318 96 q 344 282 344 189 l 344 333 l 217 333 q 160 324 179 333 q 133 286 140 314 q 125 201 125 258 q 133 121 125 147 q 160 83 140 94 q 222 72 181 72 m 394 1032 q 386 926 394 965 q 347 864 378 888 q 251 840 315 840 q 158 864 188 840 q 119 926 128 888 q 111 1032 111 965 l 179 1032 q 183 954 179 979 q 201 915 186 929 q 251 901 217 901 q 302 916 286 901 q 322 956 318 931 q 326 1032 326 981 l 394 1032 m 217 1076 l 217 1083 l 264 1272 l 358 1272 l 358 1265 l 286 1076 l 217 1076 z "},"ặ":{"ha":503,"x_min":36,"x_max":436,"o":"m 199 -11 q 103 8 139 -11 q 52 71 68 26 q 36 196 36 115 q 51 320 36 276 q 99 383 65 364 q 194 403 132 403 q 344 396 238 403 l 344 451 q 335 576 344 539 q 299 626 325 614 q 210 639 272 639 q 65 625 132 639 l 65 703 q 235 719 151 719 q 359 696 317 719 q 419 616 401 672 q 436 450 436 560 l 436 0 l 354 0 l 349 97 l 342 97 q 199 -11 317 -11 m 222 72 q 292 84 265 72 q 329 138 318 96 q 344 282 344 189 l 344 333 l 217 333 q 160 324 179 333 q 133 286 140 314 q 125 201 125 258 q 133 121 125 147 q 160 83 140 94 q 222 72 181 72 m 200 -207 l 200 -86 l 306 -86 l 306 -207 l 200 -207 m 394 1032 q 386 926 394 965 q 347 864 378 888 q 251 840 315 840 q 158 864 188 840 q 119 926 128 888 q 111 1032 111 965 l 179 1032 q 183 954 179 979 q 201 915 186 929 q 251 901 217 901 q 302 916 286 901 q 322 956 318 931 q 326 1032 326 981 l 394 1032 z "},"ằ":{"ha":503,"x_min":36,"x_max":436,"o":"m 199 -11 q 103 8 139 -11 q 52 71 68 26 q 36 196 36 115 q 51 320 36 276 q 99 383 65 364 q 194 403 132 403 q 344 396 238 403 l 344 451 q 335 576 344 539 q 299 626 325 614 q 210 639 272 639 q 65 625 132 639 l 65 703 q 235 719 151 719 q 359 696 317 719 q 419 616 401 672 q 436 450 436 560 l 436 0 l 354 0 l 349 97 l 342 97 q 199 -11 317 -11 m 222 72 q 292 84 265 72 q 329 138 318 96 q 344 282 344 189 l 344 333 l 217 333 q 160 324 179 333 q 133 286 140 314 q 125 201 125 258 q 133 121 125 147 q 160 83 140 94 q 222 72 181 72 m 394 1032 q 386 926 394 965 q 347 864 378 888 q 251 840 315 840 q 158 864 188 840 q 119 926 128 888 q 111 1032 111 965 l 179 1032 q 183 954 179 979 q 201 915 186 929 q 251 901 217 901 q 302 916 286 901 q 322 956 318 931 q 326 1032 326 981 l 394 1032 m 219 1076 l 147 1265 l 147 1272 l 242 1272 l 289 1083 l 289 1076 l 219 1076 z "},"ẳ":{"ha":503,"x_min":36,"x_max":436,"o":"m 199 -11 q 103 8 139 -11 q 52 71 68 26 q 36 196 36 115 q 51 320 36 276 q 99 383 65 364 q 194 403 132 403 q 344 396 238 403 l 344 451 q 335 576 344 539 q 299 626 325 614 q 210 639 272 639 q 65 625 132 639 l 65 703 q 235 719 151 719 q 359 696 317 719 q 419 616 401 672 q 436 450 436 560 l 436 0 l 354 0 l 349 97 l 342 97 q 199 -11 317 -11 m 222 72 q 292 84 265 72 q 329 138 318 96 q 344 282 344 189 l 344 333 l 217 333 q 160 324 179 333 q 133 286 140 314 q 125 201 125 258 q 133 121 125 147 q 160 83 140 94 q 222 72 181 72 m 389 1032 q 381 926 389 965 q 341 864 372 888 q 246 840 310 840 q 152 864 182 840 q 114 926 122 888 q 106 1032 106 965 l 174 1032 q 177 954 174 979 q 196 915 181 929 q 246 901 211 901 q 297 916 281 901 q 317 956 313 931 q 321 1032 321 981 l 389 1032 m 199 1054 q 209 1094 199 1082 q 246 1115 219 1106 l 261 1119 q 308 1140 296 1129 q 319 1175 319 1150 q 315 1201 319 1193 q 294 1213 310 1210 q 244 1217 279 1217 q 133 1213 197 1217 l 133 1269 q 257 1282 208 1282 q 360 1261 331 1282 q 390 1189 390 1240 q 381 1125 390 1146 q 333 1090 372 1104 l 321 1085 q 281 1069 292 1075 q 267 1057 269 1064 q 264 1035 264 1050 l 199 1035 l 199 1054 z "},"ẵ":{"ha":503,"x_min":36,"x_max":436,"o":"m 199 -11 q 103 8 139 -11 q 52 71 68 26 q 36 196 36 115 q 51 320 36 276 q 99 383 65 364 q 194 403 132 403 q 344 396 238 403 l 344 451 q 335 576 344 539 q 299 626 325 614 q 210 639 272 639 q 65 625 132 639 l 65 703 q 235 719 151 719 q 359 696 317 719 q 419 616 401 672 q 436 450 436 560 l 436 0 l 354 0 l 349 97 l 342 97 q 199 -11 317 -11 m 222 72 q 292 84 265 72 q 329 138 318 96 q 344 282 344 189 l 344 333 l 217 333 q 160 324 179 333 q 133 286 140 314 q 125 201 125 258 q 133 121 125 147 q 160 83 140 94 q 222 72 181 72 m 392 1032 q 383 926 392 965 q 344 864 375 888 q 249 840 313 840 q 155 864 185 840 q 117 926 125 888 q 108 1032 108 965 l 176 1032 q 180 954 176 979 q 199 915 183 929 q 249 901 214 901 q 299 916 283 901 q 319 956 315 931 q 324 1032 324 981 l 392 1032 m 421 1272 q 407 1157 421 1189 q 344 1125 393 1125 q 246 1156 307 1125 q 202 1176 219 1169 q 168 1183 185 1183 q 148 1167 153 1183 q 143 1108 143 1151 l 82 1108 q 97 1224 82 1192 q 158 1257 111 1257 q 206 1248 182 1257 q 261 1224 231 1239 q 303 1205 286 1211 q 335 1199 319 1199 q 356 1214 351 1199 q 361 1272 361 1229 l 421 1272 z "},"ǎ":{"ha":503,"x_min":36,"x_max":436,"o":"m 199 -11 q 103 8 139 -11 q 52 71 68 26 q 36 196 36 115 q 51 320 36 276 q 99 383 65 364 q 194 403 132 403 q 344 396 238 403 l 344 451 q 335 576 344 539 q 299 626 325 614 q 210 639 272 639 q 65 625 132 639 l 65 703 q 235 719 151 719 q 359 696 317 719 q 419 616 401 672 q 436 450 436 560 l 436 0 l 354 0 l 349 97 l 342 97 q 199 -11 317 -11 m 222 72 q 292 84 265 72 q 329 138 318 96 q 344 282 344 189 l 344 333 l 217 333 q 160 324 179 333 q 133 286 140 314 q 125 201 125 258 q 133 121 125 147 q 160 83 140 94 q 222 72 181 72 m 201 846 l 108 1024 l 108 1032 l 174 1032 l 251 903 l 331 1032 l 396 1032 l 396 1024 l 303 846 l 201 846 z "},"â":{"ha":503,"x_min":36,"x_max":436,"o":"m 199 -11 q 103 8 139 -11 q 52 71 68 26 q 36 196 36 115 q 51 320 36 276 q 99 383 65 364 q 194 403 132 403 q 344 396 238 403 l 344 451 q 335 576 344 539 q 299 626 325 614 q 210 639 272 639 q 65 625 132 639 l 65 703 q 235 719 151 719 q 359 696 317 719 q 419 616 401 672 q 436 450 436 560 l 436 0 l 354 0 l 349 97 l 342 97 q 199 -11 317 -11 m 222 72 q 292 84 265 72 q 329 138 318 96 q 344 282 344 189 l 344 333 l 217 333 q 160 324 179 333 q 133 286 140 314 q 125 201 125 258 q 133 121 125 147 q 160 83 140 94 q 222 72 181 72 m 110 846 l 110 854 l 203 1032 l 304 1032 l 397 854 l 397 846 l 332 846 l 253 975 l 175 846 l 110 846 z "},"ấ":{"ha":503,"x_min":36,"x_max":463,"o":"m 199 -11 q 103 8 139 -11 q 52 71 68 26 q 36 196 36 115 q 51 320 36 276 q 99 383 65 364 q 194 403 132 403 q 344 396 238 403 l 344 451 q 335 576 344 539 q 299 626 325 614 q 210 639 272 639 q 65 625 132 639 l 65 703 q 235 719 151 719 q 359 696 317 719 q 419 616 401 672 q 436 450 436 560 l 436 0 l 354 0 l 349 97 l 342 97 q 199 -11 317 -11 m 222 72 q 292 84 265 72 q 329 138 318 96 q 344 282 344 189 l 344 333 l 217 333 q 160 324 179 333 q 133 286 140 314 q 125 201 125 258 q 133 121 125 147 q 160 83 140 94 q 222 72 181 72 m 108 846 l 108 854 l 201 1032 l 303 1032 l 396 854 l 396 846 l 331 846 l 251 975 l 174 846 l 108 846 m 321 1042 l 321 1049 l 368 1238 l 463 1238 l 463 1231 l 390 1042 l 321 1042 z "},"ậ":{"ha":503,"x_min":36,"x_max":436,"o":"m 199 -11 q 103 8 139 -11 q 52 71 68 26 q 36 196 36 115 q 51 320 36 276 q 99 383 65 364 q 194 403 132 403 q 344 396 238 403 l 344 451 q 335 576 344 539 q 299 626 325 614 q 210 639 272 639 q 65 625 132 639 l 65 703 q 235 719 151 719 q 359 696 317 719 q 419 616 401 672 q 436 450 436 560 l 436 0 l 354 0 l 349 97 l 342 97 q 199 -11 317 -11 m 222 72 q 292 84 265 72 q 329 138 318 96 q 344 282 344 189 l 344 333 l 217 333 q 160 324 179 333 q 133 286 140 314 q 125 201 125 258 q 133 121 125 147 q 160 83 140 94 q 222 72 181 72 m 200 -207 l 200 -86 l 306 -86 l 306 -207 l 200 -207 m 108 846 l 108 854 l 201 1032 l 303 1032 l 396 854 l 396 846 l 331 846 l 251 975 l 174 846 l 108 846 z "},"ầ":{"ha":503,"x_min":36,"x_max":436,"o":"m 199 -11 q 103 8 139 -11 q 52 71 68 26 q 36 196 36 115 q 51 320 36 276 q 99 383 65 364 q 194 403 132 403 q 344 396 238 403 l 344 451 q 335 576 344 539 q 299 626 325 614 q 210 639 272 639 q 65 625 132 639 l 65 703 q 235 719 151 719 q 359 696 317 719 q 419 616 401 672 q 436 450 436 560 l 436 0 l 354 0 l 349 97 l 342 97 q 199 -11 317 -11 m 222 72 q 292 84 265 72 q 329 138 318 96 q 344 282 344 189 l 344 333 l 217 333 q 160 324 179 333 q 133 286 140 314 q 125 201 125 258 q 133 121 125 147 q 160 83 140 94 q 222 72 181 72 m 104 846 l 104 854 l 197 1032 l 299 1032 l 392 854 l 392 846 l 326 846 l 247 975 l 169 846 l 104 846 m 324 1042 l 251 1231 l 251 1238 l 346 1238 l 393 1049 l 393 1042 l 324 1042 z "},"ẩ":{"ha":503,"x_min":36,"x_max":504,"o":"m 199 -11 q 103 8 139 -11 q 52 71 68 26 q 36 196 36 115 q 51 320 36 276 q 99 383 65 364 q 194 403 132 403 q 344 396 238 403 l 344 451 q 335 576 344 539 q 299 626 325 614 q 210 639 272 639 q 65 625 132 639 l 65 703 q 235 719 151 719 q 359 696 317 719 q 419 616 401 672 q 436 450 436 560 l 436 0 l 354 0 l 349 97 l 342 97 q 199 -11 317 -11 m 222 72 q 292 84 265 72 q 329 138 318 96 q 344 282 344 189 l 344 333 l 217 333 q 160 324 179 333 q 133 286 140 314 q 125 201 125 258 q 133 121 125 147 q 160 83 140 94 q 222 72 181 72 m 108 846 l 108 854 l 201 1032 l 303 1032 l 396 854 l 396 846 l 331 846 l 251 975 l 174 846 l 108 846 m 313 1060 q 323 1099 313 1088 q 360 1121 333 1111 l 375 1125 q 422 1145 410 1135 q 433 1181 433 1156 q 428 1207 433 1199 q 408 1219 424 1215 q 358 1222 393 1222 q 247 1218 311 1222 l 247 1275 q 371 1288 322 1288 q 474 1267 444 1288 q 504 1194 504 1246 q 495 1131 504 1151 q 447 1096 486 1110 l 435 1090 q 394 1075 406 1081 q 381 1063 383 1069 q 378 1040 378 1056 l 313 1040 l 313 1060 z "},"ẫ":{"ha":503,"x_min":36,"x_max":436,"o":"m 199 -11 q 103 8 139 -11 q 52 71 68 26 q 36 196 36 115 q 51 320 36 276 q 99 383 65 364 q 194 403 132 403 q 344 396 238 403 l 344 451 q 335 576 344 539 q 299 626 325 614 q 210 639 272 639 q 65 625 132 639 l 65 703 q 235 719 151 719 q 359 696 317 719 q 419 616 401 672 q 436 450 436 560 l 436 0 l 354 0 l 349 97 l 342 97 q 199 -11 317 -11 m 222 72 q 292 84 265 72 q 329 138 318 96 q 344 282 344 189 l 344 333 l 217 333 q 160 324 179 333 q 133 286 140 314 q 125 201 125 258 q 133 121 125 147 q 160 83 140 94 q 222 72 181 72 m 106 846 l 106 854 l 199 1032 l 300 1032 l 393 854 l 393 846 l 328 846 l 249 975 l 171 846 l 106 846 m 421 1272 q 407 1157 421 1189 q 344 1125 393 1125 q 246 1156 307 1125 q 202 1176 219 1169 q 168 1183 185 1183 q 148 1167 153 1183 q 143 1108 143 1151 l 82 1108 q 97 1224 82 1192 q 158 1257 111 1257 q 206 1248 182 1257 q 261 1224 231 1239 q 303 1205 286 1211 q 335 1199 319 1199 q 356 1214 351 1199 q 361 1272 361 1229 l 421 1272 z "},"ȁ":{"ha":503,"x_min":36,"x_max":436,"o":"m 199 -11 q 103 8 139 -11 q 52 71 68 26 q 36 196 36 115 q 51 320 36 276 q 99 383 65 364 q 194 403 132 403 q 344 396 238 403 l 344 451 q 335 576 344 539 q 299 626 325 614 q 210 639 272 639 q 65 625 132 639 l 65 703 q 235 719 151 719 q 359 696 317 719 q 419 616 401 672 q 436 450 436 560 l 436 0 l 354 0 l 349 97 l 342 97 q 199 -11 317 -11 m 222 72 q 292 84 265 72 q 329 138 318 96 q 344 282 344 189 l 344 333 l 217 333 q 160 324 179 333 q 133 286 140 314 q 125 201 125 258 q 133 121 125 147 q 160 83 140 94 q 222 72 181 72 m 207 849 l 146 849 l 82 1007 l 82 1013 l 167 1013 l 207 856 l 207 849 m 358 849 l 297 849 l 233 1007 l 233 1013 l 318 1013 l 358 856 l 358 849 z "},"ä":{"ha":503,"x_min":36,"x_max":436,"o":"m 199 -11 q 103 8 139 -11 q 52 71 68 26 q 36 196 36 115 q 51 320 36 276 q 99 383 65 364 q 194 403 132 403 q 344 396 238 403 l 344 451 q 335 576 344 539 q 299 626 325 614 q 210 639 272 639 q 65 625 132 639 l 65 703 q 235 719 151 719 q 359 696 317 719 q 419 616 401 672 q 436 450 436 560 l 436 0 l 354 0 l 349 97 l 342 97 q 199 -11 317 -11 m 222 72 q 292 84 265 72 q 329 138 318 96 q 344 282 344 189 l 344 333 l 217 333 q 160 324 179 333 q 133 286 140 314 q 125 201 125 258 q 133 121 125 147 q 160 83 140 94 q 222 72 181 72 m 93 910 l 93 1014 l 182 1014 l 182 910 l 93 910 m 325 910 l 325 1014 l 414 1014 l 414 910 l 325 910 z "},"ạ":{"ha":503,"x_min":36,"x_max":436,"o":"m 199 -11 q 103 8 139 -11 q 52 71 68 26 q 36 196 36 115 q 51 320 36 276 q 99 383 65 364 q 194 403 132 403 q 344 396 238 403 l 344 451 q 335 576 344 539 q 299 626 325 614 q 210 639 272 639 q 65 625 132 639 l 65 703 q 235 719 151 719 q 359 696 317 719 q 419 616 401 672 q 436 450 436 560 l 436 0 l 354 0 l 349 97 l 342 97 q 199 -11 317 -11 m 222 72 q 292 84 265 72 q 329 138 318 96 q 344 282 344 189 l 344 333 l 217 333 q 160 324 179 333 q 133 286 140 314 q 125 201 125 258 q 133 121 125 147 q 160 83 140 94 q 222 72 181 72 m 200 -207 l 200 -86 l 306 -86 l 306 -207 l 200 -207 z "},"à":{"ha":503,"x_min":36,"x_max":436,"o":"m 199 -11 q 103 8 139 -11 q 52 71 68 26 q 36 196 36 115 q 51 320 36 276 q 99 383 65 364 q 194 403 132 403 q 344 396 238 403 l 344 451 q 335 576 344 539 q 299 626 325 614 q 210 639 272 639 q 65 625 132 639 l 65 703 q 235 719 151 719 q 359 696 317 719 q 419 616 401 672 q 436 450 436 560 l 436 0 l 354 0 l 349 97 l 342 97 q 199 -11 317 -11 m 222 72 q 292 84 265 72 q 329 138 318 96 q 344 282 344 189 l 344 333 l 217 333 q 160 324 179 333 q 133 286 140 314 q 125 201 125 258 q 133 121 125 147 q 160 83 140 94 q 222 72 181 72 m 222 836 l 150 1025 l 150 1032 l 244 1032 l 292 843 l 292 836 l 222 836 z "},"ả":{"ha":503,"x_min":36,"x_max":436,"o":"m 199 -11 q 103 8 139 -11 q 52 71 68 26 q 36 196 36 115 q 51 320 36 276 q 99 383 65 364 q 194 403 132 403 q 344 396 238 403 l 344 451 q 335 576 344 539 q 299 626 325 614 q 210 639 272 639 q 65 625 132 639 l 65 703 q 235 719 151 719 q 359 696 317 719 q 419 616 401 672 q 436 450 436 560 l 436 0 l 354 0 l 349 97 l 342 97 q 199 -11 317 -11 m 222 72 q 292 84 265 72 q 329 138 318 96 q 344 282 344 189 l 344 333 l 217 333 q 160 324 179 333 q 133 286 140 314 q 125 201 125 258 q 133 121 125 147 q 160 83 140 94 q 222 72 181 72 m 189 869 q 199 909 189 897 q 236 931 210 921 l 251 935 q 298 955 286 944 q 310 990 310 965 q 305 1017 310 1008 q 285 1028 300 1025 q 235 1032 269 1032 q 124 1028 188 1032 l 124 1085 q 247 1097 199 1097 q 351 1076 321 1097 q 381 1004 381 1056 q 372 940 381 961 q 324 906 363 919 l 311 900 q 271 885 282 890 q 257 872 260 879 q 254 850 254 865 l 189 850 l 189 869 z "},"ȃ":{"ha":503,"x_min":36,"x_max":436,"o":"m 199 -11 q 103 8 139 -11 q 52 71 68 26 q 36 196 36 115 q 51 320 36 276 q 99 383 65 364 q 194 403 132 403 q 344 396 238 403 l 344 451 q 335 576 344 539 q 299 626 325 614 q 210 639 272 639 q 65 625 132 639 l 65 703 q 235 719 151 719 q 359 696 317 719 q 419 616 401 672 q 436 450 436 560 l 436 0 l 354 0 l 349 97 l 342 97 q 199 -11 317 -11 m 222 72 q 292 84 265 72 q 329 138 318 96 q 344 282 344 189 l 344 333 l 217 333 q 160 324 179 333 q 133 286 140 314 q 125 201 125 258 q 133 121 125 147 q 160 83 140 94 q 222 72 181 72 m 111 849 q 119 954 111 915 q 159 1017 128 993 q 254 1040 190 1040 q 348 1017 318 1040 q 386 954 378 993 q 394 849 394 915 l 326 849 q 323 926 326 901 q 304 965 319 951 q 254 979 289 979 q 203 965 219 979 q 183 925 188 950 q 179 849 179 900 l 111 849 z "},"ā":{"ha":503,"x_min":36,"x_max":436,"o":"m 199 -11 q 103 8 139 -11 q 52 71 68 26 q 36 196 36 115 q 51 320 36 276 q 99 383 65 364 q 194 403 132 403 q 344 396 238 403 l 344 451 q 335 576 344 539 q 299 626 325 614 q 210 639 272 639 q 65 625 132 639 l 65 703 q 235 719 151 719 q 359 696 317 719 q 419 616 401 672 q 436 450 436 560 l 436 0 l 354 0 l 349 97 l 342 97 q 199 -11 317 -11 m 222 72 q 292 84 265 72 q 329 138 318 96 q 344 282 344 189 l 344 333 l 217 333 q 160 324 179 333 q 133 286 140 314 q 125 201 125 258 q 133 121 125 147 q 160 83 140 94 q 222 72 181 72 m 136 944 l 136 1032 l 369 1032 l 369 944 l 136 944 z "},"ą":{"ha":503,"x_min":36,"x_max":440,"o":"m 440 -208 l 440 -269 q 397 -272 413 -272 q 311 -243 339 -272 q 283 -167 283 -214 q 306 -81 283 -125 q 364 0 328 -36 l 354 0 l 349 97 l 342 97 q 199 -11 317 -11 q 103 8 139 -11 q 52 71 68 26 q 36 196 36 115 q 51 320 36 276 q 99 383 65 364 q 194 403 132 403 q 344 396 238 403 l 344 451 q 335 576 344 539 q 299 626 325 614 q 210 639 272 639 q 131 634 175 639 q 65 625 88 629 l 65 703 q 235 719 151 719 q 359 696 317 719 q 419 616 401 672 q 436 450 436 560 l 436 0 q 385 -68 410 -24 q 360 -151 360 -112 q 419 -210 360 -210 l 440 -208 m 344 333 l 217 333 q 160 324 179 333 q 133 286 140 314 q 125 201 125 258 q 133 121 125 147 q 160 83 140 94 q 222 72 181 72 q 292 84 265 72 q 329 138 318 96 q 344 282 344 189 l 344 333 z "},"å":{"ha":503,"x_min":36,"x_max":436,"o":"m 199 -11 q 103 8 139 -11 q 52 71 68 26 q 36 196 36 115 q 51 320 36 276 q 99 383 65 364 q 194 403 132 403 q 344 396 238 403 l 344 451 q 335 576 344 539 q 299 626 325 614 q 210 639 272 639 q 65 625 132 639 l 65 703 q 235 719 151 719 q 359 696 317 719 q 419 616 401 672 q 436 450 436 560 l 436 0 l 354 0 l 349 97 l 342 97 q 199 -11 317 -11 m 222 72 q 292 84 265 72 q 329 138 318 96 q 344 282 344 189 l 344 333 l 217 333 q 160 324 179 333 q 133 286 140 314 q 125 201 125 258 q 133 121 125 147 q 160 83 140 94 q 222 72 181 72 m 251 847 q 165 860 192 847 q 129 898 138 872 q 121 976 121 924 q 129 1054 121 1028 q 165 1093 138 1081 q 251 1106 192 1106 q 338 1093 311 1106 q 374 1054 365 1081 q 382 976 382 1028 q 374 898 382 924 q 338 860 365 872 q 251 847 311 847 m 251 904 q 302 918 292 904 q 313 976 313 932 q 302 1035 313 1021 q 251 1049 292 1049 q 210 1042 222 1049 q 194 1022 197 1036 q 190 976 190 1008 q 194 931 190 944 q 210 910 197 917 q 251 904 222 904 z "},"ǻ":{"ha":503,"x_min":36,"x_max":436,"o":"m 199 -11 q 103 8 139 -11 q 52 71 68 26 q 36 196 36 115 q 51 320 36 276 q 99 383 65 364 q 194 403 132 403 q 344 396 238 403 l 344 451 q 335 576 344 539 q 299 626 325 614 q 210 639 272 639 q 65 625 132 639 l 65 703 q 235 719 151 719 q 359 696 317 719 q 419 616 401 672 q 436 450 436 560 l 436 0 l 354 0 l 349 97 l 342 97 q 199 -11 317 -11 m 222 72 q 292 84 265 72 q 329 138 318 96 q 344 282 344 189 l 344 333 l 217 333 q 160 324 179 333 q 133 286 140 314 q 125 201 125 258 q 133 121 125 147 q 160 83 140 94 q 222 72 181 72 m 253 857 q 166 869 193 857 q 131 908 139 882 q 122 986 122 933 q 131 1064 122 1038 q 166 1103 139 1090 q 253 1115 193 1115 q 340 1103 313 1115 q 375 1064 367 1090 q 383 986 383 1038 q 375 908 383 933 q 340 869 367 882 q 253 857 313 857 m 253 914 q 303 928 293 914 q 314 986 314 942 q 303 1044 314 1031 q 253 1058 293 1058 q 211 1052 224 1058 q 195 1032 199 1046 q 192 986 192 1018 q 195 940 192 954 q 211 920 199 926 q 253 914 224 914 m 217 1160 l 217 1167 l 264 1356 l 358 1356 l 358 1349 l 286 1160 l 217 1160 z "},"ã":{"ha":503,"x_min":36,"x_max":436,"o":"m 199 -11 q 103 8 139 -11 q 52 71 68 26 q 36 196 36 115 q 51 320 36 276 q 99 383 65 364 q 194 403 132 403 q 344 396 238 403 l 344 451 q 335 576 344 539 q 299 626 325 614 q 210 639 272 639 q 65 625 132 639 l 65 703 q 235 719 151 719 q 359 696 317 719 q 419 616 401 672 q 436 450 436 560 l 436 0 l 354 0 l 349 97 l 342 97 q 199 -11 317 -11 m 222 72 q 292 84 265 72 q 329 138 318 96 q 344 282 344 189 l 344 333 l 217 333 q 160 324 179 333 q 133 286 140 314 q 125 201 125 258 q 133 121 125 147 q 160 83 140 94 q 222 72 181 72 m 421 1032 q 407 917 421 949 q 344 885 393 885 q 246 915 307 885 q 202 936 219 929 q 168 943 185 943 q 148 927 153 943 q 143 868 143 911 l 82 868 q 97 984 82 951 q 158 1017 111 1017 q 207 1008 183 1017 q 261 983 231 999 q 303 965 286 971 q 335 958 319 958 q 356 974 351 958 q 361 1032 361 989 l 421 1032 z "},"æ":{"ha":800,"x_min":36,"x_max":747,"o":"m 747 329 l 436 329 q 444 161 436 213 q 482 90 453 110 q 576 69 511 69 q 656 74 611 69 q 732 83 701 78 l 732 7 q 653 -6 701 0 q 560 -11 604 -11 q 445 12 486 -11 q 383 92 404 35 q 315 9 360 29 q 210 -11 271 -11 q 107 8 144 -11 q 53 71 69 26 q 36 196 36 115 q 51 317 36 274 q 99 380 65 361 q 194 399 132 399 q 344 397 297 399 l 344 451 q 335 576 344 539 q 299 626 325 614 q 210 639 272 639 q 65 625 143 639 l 65 703 q 235 719 151 719 q 335 703 299 719 q 392 643 372 686 q 452 701 414 683 q 556 719 490 719 q 686 688 646 719 q 737 585 726 656 q 747 358 747 514 l 747 329 m 554 639 q 475 623 499 639 q 444 559 451 607 q 436 399 436 511 l 660 399 l 660 415 q 651 565 660 518 q 621 625 642 611 q 554 639 600 639 m 344 329 l 217 329 q 159 320 178 329 q 133 284 140 311 q 125 201 125 257 q 133 119 125 146 q 160 81 140 92 q 222 69 181 69 q 292 83 265 69 q 331 140 318 96 q 344 281 344 190 l 344 329 z "},"ǽ":{"ha":800,"x_min":36,"x_max":747,"o":"m 747 329 l 436 329 q 444 161 436 213 q 482 90 453 110 q 576 69 511 69 q 656 74 611 69 q 732 83 701 78 l 732 7 q 653 -6 701 0 q 560 -11 604 -11 q 445 12 486 -11 q 383 92 404 35 q 315 9 360 29 q 210 -11 271 -11 q 107 8 144 -11 q 53 71 69 26 q 36 196 36 115 q 51 317 36 274 q 99 380 65 361 q 194 399 132 399 q 344 397 297 399 l 344 451 q 335 576 344 539 q 299 626 325 614 q 210 639 272 639 q 65 625 143 639 l 65 703 q 235 719 151 719 q 335 703 299 719 q 392 643 372 686 q 452 701 414 683 q 556 719 490 719 q 686 688 646 719 q 737 585 726 656 q 747 358 747 514 l 747 329 m 554 639 q 475 623 499 639 q 444 559 451 607 q 436 399 436 511 l 660 399 l 660 415 q 651 565 660 518 q 621 625 642 611 q 554 639 600 639 m 344 329 l 217 329 q 159 320 178 329 q 133 284 140 311 q 125 201 125 257 q 133 119 125 146 q 160 81 140 92 q 222 69 181 69 q 292 83 265 69 q 331 140 318 96 q 344 281 344 190 l 344 329 m 361 836 l 361 843 l 408 1032 l 503 1032 l 503 1025 l 431 836 l 361 836 z "},"b":{"ha":536,"x_min":71,"x_max":483,"o":"m 307 -11 q 217 12 254 -11 q 167 97 181 35 l 158 97 l 153 0 l 71 0 l 71 1032 l 163 1032 l 163 622 l 171 622 q 218 697 185 674 q 308 719 251 719 q 419 688 383 719 q 469 581 456 657 q 483 354 483 506 q 469 125 483 201 q 417 19 454 49 q 307 -11 381 -11 m 278 72 q 353 90 331 72 q 384 165 376 108 q 392 354 392 222 q 384 543 392 486 q 353 618 376 600 q 278 636 331 636 q 210 617 235 636 q 175 553 185 597 q 163 354 163 486 q 174 160 163 218 q 208 92 183 113 q 278 72 233 72 z "},"c":{"ha":414,"x_min":53,"x_max":378,"o":"m 378 7 q 251 -11 319 -11 q 122 25 164 -11 q 66 135 79 61 q 53 353 53 210 q 69 577 53 500 q 126 687 85 654 q 249 719 168 719 q 374 704 315 719 l 374 626 q 271 639 328 639 q 189 617 215 639 q 153 538 163 596 q 144 356 144 481 q 153 168 144 226 q 189 90 163 110 q 272 69 215 69 q 378 83 338 69 l 378 7 z "},"ć":{"ha":414,"x_min":53,"x_max":378,"o":"m 378 7 q 251 -11 319 -11 q 122 25 164 -11 q 66 135 79 61 q 53 353 53 210 q 69 577 53 500 q 126 687 85 654 q 249 719 168 719 q 374 704 315 719 l 374 626 q 271 639 328 639 q 189 617 215 639 q 153 538 163 596 q 144 356 144 481 q 153 168 144 226 q 189 90 163 110 q 272 69 215 69 q 378 83 338 69 l 378 7 m 168 836 l 168 843 l 215 1032 l 310 1032 l 310 1025 l 238 836 l 168 836 z "},"č":{"ha":414,"x_min":53,"x_max":378,"o":"m 378 7 q 251 -11 319 -11 q 122 25 164 -11 q 66 135 79 61 q 53 353 53 210 q 69 577 53 500 q 126 687 85 654 q 249 719 168 719 q 374 704 315 719 l 374 626 q 271 639 328 639 q 189 617 215 639 q 153 538 163 596 q 144 356 144 481 q 153 168 144 226 q 189 90 163 110 q 272 69 215 69 q 378 83 338 69 l 378 7 m 156 846 l 63 1024 l 63 1032 l 128 1032 l 206 903 l 285 1032 l 350 1032 l 350 1024 l 257 846 l 156 846 z "},"ç":{"ha":414,"x_min":53,"x_max":378,"o":"m 272 69 q 378 83 338 69 l 378 7 q 251 -11 319 -11 l 236 -11 l 182 -262 l 94 -262 l 94 -256 l 174 -1 q 96 54 122 13 q 61 165 69 96 q 53 353 53 233 q 69 577 53 500 q 126 687 85 654 q 249 719 168 719 q 374 704 315 719 l 374 626 q 271 639 328 639 q 189 617 215 639 q 153 538 163 596 q 144 356 144 481 q 153 168 144 226 q 189 90 163 110 q 272 69 215 69 z "},"ĉ":{"ha":414,"x_min":53,"x_max":378,"o":"m 378 7 q 251 -11 319 -11 q 122 25 164 -11 q 66 135 79 61 q 53 353 53 210 q 69 577 53 500 q 126 687 85 654 q 249 719 168 719 q 374 704 315 719 l 374 626 q 271 639 328 639 q 189 617 215 639 q 153 538 163 596 q 144 356 144 481 q 153 168 144 226 q 189 90 163 110 q 272 69 215 69 q 378 83 338 69 l 378 7 m 63 846 l 63 854 l 156 1032 l 257 1032 l 350 854 l 350 846 l 285 846 l 206 975 l 128 846 l 63 846 z "},"ċ":{"ha":414,"x_min":53,"x_max":378,"o":"m 378 7 q 251 -11 319 -11 q 122 25 164 -11 q 66 135 79 61 q 53 353 53 210 q 69 577 53 500 q 126 687 85 654 q 249 719 168 719 q 374 704 315 719 l 374 626 q 271 639 328 639 q 189 617 215 639 q 153 538 163 596 q 144 356 144 481 q 153 168 144 226 q 189 90 163 110 q 272 69 215 69 q 378 83 338 69 l 378 7 m 161 910 l 161 1014 l 250 1014 l 250 910 l 161 910 z "},"d":{"ha":536,"x_min":53,"x_max":465,"o":"m 229 -11 q 119 19 156 -11 q 67 125 82 49 q 53 354 53 201 q 67 581 53 506 q 117 688 81 657 q 228 719 154 719 q 319 696 286 719 q 367 622 353 672 l 374 622 l 374 1032 l 465 1032 l 465 0 l 383 0 l 378 97 l 371 97 q 319 12 357 35 q 229 -11 282 -11 m 260 72 q 329 92 304 72 q 363 160 354 113 q 372 246 369 200 q 374 368 374 292 q 364 538 374 488 q 329 615 354 593 q 256 636 304 636 q 182 618 204 636 q 152 543 160 600 q 144 354 144 486 q 153 165 144 222 q 184 90 161 108 q 260 72 207 72 z "},"ð":{"ha":524,"x_min":53,"x_max":469,"o":"m 263 -11 q 121 19 164 -11 q 65 122 78 50 q 53 353 53 193 q 65 581 53 508 q 115 687 76 654 q 242 719 154 719 q 349 682 313 719 l 354 685 q 294 879 332 793 l 171 861 l 171 925 l 267 939 q 213 1026 256 960 l 213 1032 l 308 1032 q 358 953 344 982 l 457 968 l 457 904 l 386 893 q 460 583 442 763 q 469 376 469 490 q 458 128 469 203 q 405 22 447 54 q 263 -11 363 -11 m 261 69 q 344 91 321 69 q 372 165 367 113 q 378 353 378 217 q 372 531 378 478 q 342 612 367 585 q 261 639 318 639 q 178 619 201 639 q 150 547 156 600 q 144 353 144 493 q 150 165 144 218 q 179 91 156 113 q 261 69 203 69 z "},"ď":{"ha":581,"x_min":53,"x_max":617,"o":"m 229 -11 q 119 19 156 -11 q 67 125 82 49 q 53 354 53 201 q 67 581 53 506 q 117 688 81 657 q 228 719 154 719 q 319 696 286 719 q 367 622 353 672 l 374 622 l 374 1032 l 465 1032 l 465 0 l 383 0 l 378 97 l 371 97 q 319 12 357 35 q 229 -11 282 -11 m 260 72 q 329 92 304 72 q 363 160 354 113 q 372 246 369 200 q 374 368 374 292 q 364 538 374 488 q 329 615 354 593 q 256 636 304 636 q 182 618 204 636 q 152 543 160 600 q 144 354 144 486 q 153 165 144 222 q 184 90 161 108 q 260 72 207 72 m 507 617 l 525 850 l 525 956 l 617 956 l 617 850 l 572 617 l 507 617 z "},"đ":{"ha":536,"x_min":53,"x_max":532,"o":"m 532 875 l 465 875 l 465 0 l 383 0 l 378 97 l 371 97 q 319 12 357 35 q 229 -11 282 -11 q 119 19 156 -11 q 67 125 82 49 q 53 354 53 201 q 67 581 53 506 q 117 688 81 657 q 228 719 154 719 q 319 696 286 719 q 367 622 353 672 l 374 622 l 374 875 l 229 875 l 229 956 l 374 956 l 374 1032 l 465 1032 l 465 956 l 532 956 l 532 875 m 363 160 q 372 246 369 200 q 374 368 374 292 q 364 538 374 488 q 329 615 354 593 q 256 636 304 636 q 182 618 204 636 q 152 543 160 600 q 144 354 144 486 q 153 165 144 222 q 184 90 161 108 q 260 72 207 72 q 329 92 304 72 q 363 160 354 113 z "},"ḍ":{"ha":536,"x_min":53,"x_max":465,"o":"m 229 -11 q 119 19 156 -11 q 67 125 82 49 q 53 354 53 201 q 67 581 53 506 q 117 688 81 657 q 228 719 154 719 q 319 696 286 719 q 367 622 353 672 l 374 622 l 374 1032 l 465 1032 l 465 0 l 383 0 l 378 97 l 371 97 q 319 12 357 35 q 229 -11 282 -11 m 260 72 q 329 92 304 72 q 363 160 354 113 q 372 246 369 200 q 374 368 374 292 q 364 538 374 488 q 329 615 354 593 q 256 636 304 636 q 182 618 204 636 q 152 543 160 600 q 144 354 144 486 q 153 165 144 222 q 184 90 161 108 q 260 72 207 72 m 215 -207 l 215 -86 l 321 -86 l 321 -207 l 215 -207 z "},"ǳ":{"ha":969,"x_min":53,"x_max":933,"o":"m 229 -11 q 119 19 156 -11 q 67 125 82 49 q 53 354 53 201 q 67 581 53 506 q 117 688 81 657 q 228 719 154 719 q 319 696 286 719 q 367 622 353 672 l 374 622 l 374 1032 l 465 1032 l 465 0 l 383 0 l 378 97 l 371 97 q 319 12 357 35 q 229 -11 282 -11 m 260 72 q 329 92 304 72 q 363 160 354 113 q 372 246 369 200 q 374 368 374 292 q 364 538 374 488 q 329 615 354 593 q 256 636 304 636 q 182 618 204 636 q 152 543 160 600 q 144 354 144 486 q 153 165 144 222 q 184 90 161 108 q 260 72 207 72 m 572 0 l 572 72 l 829 628 l 581 628 l 581 708 l 932 708 l 932 636 l 675 81 l 933 81 l 933 0 l 572 0 z "},"ǆ":{"ha":969,"x_min":53,"x_max":933,"o":"m 229 -11 q 119 19 156 -11 q 67 125 82 49 q 53 354 53 201 q 67 581 53 506 q 117 688 81 657 q 228 719 154 719 q 319 696 286 719 q 367 622 353 672 l 374 622 l 374 1032 l 465 1032 l 465 0 l 383 0 l 378 97 l 371 97 q 319 12 357 35 q 229 -11 282 -11 m 260 72 q 329 92 304 72 q 363 160 354 113 q 372 246 369 200 q 374 368 374 292 q 364 538 374 488 q 329 615 354 593 q 256 636 304 636 q 182 618 204 636 q 152 543 160 600 q 144 354 144 486 q 153 165 144 222 q 184 90 161 108 q 260 72 207 72 m 572 0 l 572 72 l 829 628 l 581 628 l 581 708 l 932 708 l 932 636 l 675 81 l 933 81 l 933 0 l 572 0 m 693 846 l 600 1024 l 600 1032 l 665 1032 l 743 903 l 822 1032 l 888 1032 l 888 1024 l 794 846 l 693 846 z "},"e":{"ha":508,"x_min":53,"x_max":456,"o":"m 456 325 l 144 325 q 153 159 144 210 q 191 89 163 108 q 285 69 219 69 q 364 74 319 69 q 440 83 408 78 l 440 7 q 363 -6 411 0 q 268 -11 314 -11 q 127 22 172 -11 q 67 128 82 54 q 53 353 53 203 q 65 578 53 506 q 121 685 76 650 q 264 719 165 719 q 394 687 354 719 q 445 583 435 654 q 456 354 456 513 l 456 325 m 263 639 q 183 622 207 639 q 152 557 160 606 q 144 394 144 508 l 368 394 l 368 415 q 360 564 368 518 q 330 624 351 610 q 263 639 308 639 z "},"é":{"ha":508,"x_min":53,"x_max":456,"o":"m 456 325 l 144 325 q 153 159 144 210 q 191 89 163 108 q 285 69 219 69 q 364 74 319 69 q 440 83 408 78 l 440 7 q 363 -6 411 0 q 268 -11 314 -11 q 127 22 172 -11 q 67 128 82 54 q 53 353 53 203 q 65 578 53 506 q 121 685 76 650 q 264 719 165 719 q 394 687 354 719 q 445 583 435 654 q 456 354 456 513 l 456 325 m 263 639 q 183 622 207 639 q 152 557 160 606 q 144 394 144 508 l 368 394 l 368 415 q 360 564 368 518 q 330 624 351 610 q 263 639 308 639 m 231 836 l 231 843 l 278 1032 l 372 1032 l 372 1025 l 300 836 l 231 836 z "},"ĕ":{"ha":508,"x_min":53,"x_max":456,"o":"m 456 325 l 144 325 q 153 159 144 210 q 191 89 163 108 q 285 69 219 69 q 364 74 319 69 q 440 83 408 78 l 440 7 q 363 -6 411 0 q 268 -11 314 -11 q 127 22 172 -11 q 67 128 82 54 q 53 353 53 203 q 65 578 53 506 q 121 685 76 650 q 264 719 165 719 q 394 687 354 719 q 445 583 435 654 q 456 354 456 513 l 456 325 m 263 639 q 183 622 207 639 q 152 557 160 606 q 144 394 144 508 l 368 394 l 368 415 q 360 564 368 518 q 330 624 351 610 q 263 639 308 639 m 396 1032 q 388 926 396 965 q 348 864 379 888 q 253 840 317 840 q 159 864 189 840 q 121 926 129 888 q 113 1032 113 965 l 181 1032 q 184 954 181 979 q 203 915 188 929 q 253 901 218 901 q 303 916 288 901 q 324 956 319 931 q 328 1032 328 981 l 396 1032 z "},"ě":{"ha":508,"x_min":53,"x_max":456,"o":"m 456 325 l 144 325 q 153 159 144 210 q 191 89 163 108 q 285 69 219 69 q 364 74 319 69 q 440 83 408 78 l 440 7 q 363 -6 411 0 q 268 -11 314 -11 q 127 22 172 -11 q 67 128 82 54 q 53 353 53 203 q 65 578 53 506 q 121 685 76 650 q 264 719 165 719 q 394 687 354 719 q 445 583 435 654 q 456 354 456 513 l 456 325 m 263 639 q 183 622 207 639 q 152 557 160 606 q 144 394 144 508 l 368 394 l 368 415 q 360 564 368 518 q 330 624 351 610 q 263 639 308 639 m 203 846 l 110 1024 l 110 1032 l 175 1032 l 253 903 l 332 1032 l 397 1032 l 397 1024 l 304 846 l 203 846 z "},"ê":{"ha":508,"x_min":53,"x_max":456,"o":"m 456 325 l 144 325 q 153 159 144 210 q 191 89 163 108 q 285 69 219 69 q 364 74 319 69 q 440 83 408 78 l 440 7 q 363 -6 411 0 q 268 -11 314 -11 q 127 22 172 -11 q 67 128 82 54 q 53 353 53 203 q 65 578 53 506 q 121 685 76 650 q 264 719 165 719 q 394 687 354 719 q 445 583 435 654 q 456 354 456 513 l 456 325 m 263 639 q 183 622 207 639 q 152 557 160 606 q 144 394 144 508 l 368 394 l 368 415 q 360 564 368 518 q 330 624 351 610 q 263 639 308 639 m 118 846 l 118 854 l 211 1032 l 313 1032 l 406 854 l 406 846 l 340 846 l 261 975 l 183 846 l 118 846 z "},"ế":{"ha":508,"x_min":53,"x_max":464,"o":"m 456 325 l 144 325 q 153 159 144 210 q 191 89 163 108 q 285 69 219 69 q 364 74 319 69 q 440 83 408 78 l 440 7 q 363 -6 411 0 q 268 -11 314 -11 q 127 22 172 -11 q 67 128 82 54 q 53 353 53 203 q 65 578 53 506 q 121 685 76 650 q 264 719 165 719 q 394 687 354 719 q 445 583 435 654 q 456 354 456 513 l 456 325 m 263 639 q 183 622 207 639 q 152 557 160 606 q 144 394 144 508 l 368 394 l 368 415 q 360 564 368 518 q 330 624 351 610 q 263 639 308 639 m 110 846 l 110 854 l 203 1032 l 304 1032 l 397 854 l 397 846 l 332 846 l 253 975 l 175 846 l 110 846 m 322 1042 l 322 1049 l 369 1238 l 464 1238 l 464 1231 l 392 1042 l 322 1042 z "},"ệ":{"ha":508,"x_min":53,"x_max":456,"o":"m 456 325 l 144 325 q 153 159 144 210 q 191 89 163 108 q 285 69 219 69 q 364 74 319 69 q 440 83 408 78 l 440 7 q 363 -6 411 0 q 268 -11 314 -11 q 127 22 172 -11 q 67 128 82 54 q 53 353 53 203 q 65 578 53 506 q 121 685 76 650 q 264 719 165 719 q 394 687 354 719 q 445 583 435 654 q 456 354 456 513 l 456 325 m 263 639 q 183 622 207 639 q 152 557 160 606 q 144 394 144 508 l 368 394 l 368 415 q 360 564 368 518 q 330 624 351 610 q 263 639 308 639 m 201 -207 l 201 -86 l 307 -86 l 307 -207 l 201 -207 m 110 846 l 110 854 l 203 1032 l 304 1032 l 397 854 l 397 846 l 332 846 l 253 975 l 175 846 l 110 846 z "},"ề":{"ha":508,"x_min":53,"x_max":456,"o":"m 456 325 l 144 325 q 153 159 144 210 q 191 89 163 108 q 285 69 219 69 q 364 74 319 69 q 440 83 408 78 l 440 7 q 363 -6 411 0 q 268 -11 314 -11 q 127 22 172 -11 q 67 128 82 54 q 53 353 53 203 q 65 578 53 506 q 121 685 76 650 q 264 719 165 719 q 394 687 354 719 q 445 583 435 654 q 456 354 456 513 l 456 325 m 263 639 q 183 622 207 639 q 152 557 160 606 q 144 394 144 508 l 368 394 l 368 415 q 360 564 368 518 q 330 624 351 610 q 263 639 308 639 m 106 846 l 106 854 l 199 1032 l 300 1032 l 393 854 l 393 846 l 328 846 l 249 975 l 171 846 l 106 846 m 325 1042 l 253 1231 l 253 1238 l 347 1238 l 394 1049 l 394 1042 l 325 1042 z "},"ể":{"ha":508,"x_min":53,"x_max":506,"o":"m 456 325 l 144 325 q 153 159 144 210 q 191 89 163 108 q 285 69 219 69 q 364 74 319 69 q 440 83 408 78 l 440 7 q 363 -6 411 0 q 268 -11 314 -11 q 127 22 172 -11 q 67 128 82 54 q 53 353 53 203 q 65 578 53 506 q 121 685 76 650 q 264 719 165 719 q 394 687 354 719 q 445 583 435 654 q 456 354 456 513 l 456 325 m 263 639 q 183 622 207 639 q 152 557 160 606 q 144 394 144 508 l 368 394 l 368 415 q 360 564 368 518 q 330 624 351 610 q 263 639 308 639 m 110 846 l 110 854 l 203 1032 l 304 1032 l 397 854 l 397 846 l 332 846 l 253 975 l 175 846 l 110 846 m 314 1060 q 324 1099 314 1088 q 361 1121 335 1111 l 376 1125 q 423 1145 411 1135 q 435 1181 435 1156 q 430 1207 435 1199 q 410 1219 425 1215 q 360 1222 394 1222 q 249 1218 313 1222 l 249 1275 q 372 1288 324 1288 q 476 1267 446 1288 q 506 1194 506 1246 q 497 1131 506 1151 q 449 1096 488 1110 l 436 1090 q 396 1075 407 1081 q 382 1063 385 1069 q 379 1040 379 1056 l 314 1040 l 314 1060 z "},"ễ":{"ha":508,"x_min":53,"x_max":456,"o":"m 456 325 l 144 325 q 153 159 144 210 q 191 89 163 108 q 285 69 219 69 q 364 74 319 69 q 440 83 408 78 l 440 7 q 363 -6 411 0 q 268 -11 314 -11 q 127 22 172 -11 q 67 128 82 54 q 53 353 53 203 q 65 578 53 506 q 121 685 76 650 q 264 719 165 719 q 394 687 354 719 q 445 583 435 654 q 456 354 456 513 l 456 325 m 263 639 q 183 622 207 639 q 152 557 160 606 q 144 394 144 508 l 368 394 l 368 415 q 360 564 368 518 q 330 624 351 610 q 263 639 308 639 m 107 846 l 107 854 l 200 1032 l 301 1032 l 394 854 l 394 846 l 329 846 l 250 975 l 172 846 l 107 846 m 422 1272 q 408 1157 422 1189 q 346 1125 394 1125 q 247 1156 308 1125 q 203 1176 221 1169 q 169 1183 186 1183 q 149 1167 154 1183 q 144 1108 144 1151 l 83 1108 q 98 1224 83 1192 q 160 1257 113 1257 q 208 1248 183 1257 q 263 1224 232 1239 q 304 1205 288 1211 q 336 1199 321 1199 q 358 1214 353 1199 q 363 1272 363 1229 l 422 1272 z "},"ȅ":{"ha":508,"x_min":53,"x_max":456,"o":"m 456 325 l 144 325 q 153 159 144 210 q 191 89 163 108 q 285 69 219 69 q 364 74 319 69 q 440 83 408 78 l 440 7 q 363 -6 411 0 q 268 -11 314 -11 q 127 22 172 -11 q 67 128 82 54 q 53 353 53 203 q 65 578 53 506 q 121 685 76 650 q 264 719 165 719 q 394 687 354 719 q 445 583 435 654 q 456 354 456 513 l 456 325 m 263 639 q 183 622 207 639 q 152 557 160 606 q 144 394 144 508 l 368 394 l 368 415 q 360 564 368 518 q 330 624 351 610 q 263 639 308 639 m 208 849 l 147 849 l 83 1007 l 83 1013 l 168 1013 l 208 856 l 208 849 m 360 849 l 299 849 l 235 1007 l 235 1013 l 319 1013 l 360 856 l 360 849 z "},"ë":{"ha":508,"x_min":53,"x_max":456,"o":"m 456 325 l 144 325 q 153 159 144 210 q 191 89 163 108 q 285 69 219 69 q 364 74 319 69 q 440 83 408 78 l 440 7 q 363 -6 411 0 q 268 -11 314 -11 q 127 22 172 -11 q 67 128 82 54 q 53 353 53 203 q 65 578 53 506 q 121 685 76 650 q 264 719 165 719 q 394 687 354 719 q 445 583 435 654 q 456 354 456 513 l 456 325 m 263 639 q 183 622 207 639 q 152 557 160 606 q 144 394 144 508 l 368 394 l 368 415 q 360 564 368 518 q 330 624 351 610 q 263 639 308 639 m 103 910 l 103 1014 l 192 1014 l 192 910 l 103 910 m 335 910 l 335 1014 l 424 1014 l 424 910 l 335 910 z "},"ė":{"ha":508,"x_min":53,"x_max":456,"o":"m 456 325 l 144 325 q 153 159 144 210 q 191 89 163 108 q 285 69 219 69 q 364 74 319 69 q 440 83 408 78 l 440 7 q 363 -6 411 0 q 268 -11 314 -11 q 127 22 172 -11 q 67 128 82 54 q 53 353 53 203 q 65 578 53 506 q 121 685 76 650 q 264 719 165 719 q 394 687 354 719 q 445 583 435 654 q 456 354 456 513 l 456 325 m 263 639 q 183 622 207 639 q 152 557 160 606 q 144 394 144 508 l 368 394 l 368 415 q 360 564 368 518 q 330 624 351 610 q 263 639 308 639 m 208 910 l 208 1014 l 297 1014 l 297 910 l 208 910 z "},"ẹ":{"ha":508,"x_min":53,"x_max":456,"o":"m 456 325 l 144 325 q 153 159 144 210 q 191 89 163 108 q 285 69 219 69 q 364 74 319 69 q 440 83 408 78 l 440 7 q 363 -6 411 0 q 268 -11 314 -11 q 127 22 172 -11 q 67 128 82 54 q 53 353 53 203 q 65 578 53 506 q 121 685 76 650 q 264 719 165 719 q 394 687 354 719 q 445 583 435 654 q 456 354 456 513 l 456 325 m 263 639 q 183 622 207 639 q 152 557 160 606 q 144 394 144 508 l 368 394 l 368 415 q 360 564 368 518 q 330 624 351 610 q 263 639 308 639 m 201 -207 l 201 -86 l 307 -86 l 307 -207 l 201 -207 z "},"è":{"ha":508,"x_min":53,"x_max":456,"o":"m 456 325 l 144 325 q 153 159 144 210 q 191 89 163 108 q 285 69 219 69 q 364 74 319 69 q 440 83 408 78 l 440 7 q 363 -6 411 0 q 268 -11 314 -11 q 127 22 172 -11 q 67 128 82 54 q 53 353 53 203 q 65 578 53 506 q 121 685 76 650 q 264 719 165 719 q 394 687 354 719 q 445 583 435 654 q 456 354 456 513 l 456 325 m 263 639 q 183 622 207 639 q 152 557 160 606 q 144 394 144 508 l 368 394 l 368 415 q 360 564 368 518 q 330 624 351 610 q 263 639 308 639 m 233 836 l 161 1025 l 161 1032 l 256 1032 l 303 843 l 303 836 l 233 836 z "},"ẻ":{"ha":508,"x_min":53,"x_max":456,"o":"m 456 325 l 144 325 q 153 159 144 210 q 191 89 163 108 q 285 69 219 69 q 364 74 319 69 q 440 83 408 78 l 440 7 q 363 -6 411 0 q 268 -11 314 -11 q 127 22 172 -11 q 67 128 82 54 q 53 353 53 203 q 65 578 53 506 q 121 685 76 650 q 264 719 165 719 q 394 687 354 719 q 445 583 435 654 q 456 354 456 513 l 456 325 m 263 639 q 183 622 207 639 q 152 557 160 606 q 144 394 144 508 l 368 394 l 368 415 q 360 564 368 518 q 330 624 351 610 q 263 639 308 639 m 190 869 q 201 909 190 897 q 238 931 211 921 l 253 935 q 299 955 288 944 q 311 990 311 965 q 306 1017 311 1008 q 286 1028 301 1025 q 236 1032 271 1032 q 125 1028 189 1032 l 125 1085 q 249 1097 200 1097 q 352 1076 322 1097 q 382 1004 382 1056 q 373 940 382 961 q 325 906 364 919 l 313 900 q 272 885 283 890 q 258 872 261 879 q 256 850 256 865 l 190 850 l 190 869 z "},"ȇ":{"ha":508,"x_min":53,"x_max":456,"o":"m 456 325 l 144 325 q 153 159 144 210 q 191 89 163 108 q 285 69 219 69 q 364 74 319 69 q 440 83 408 78 l 440 7 q 363 -6 411 0 q 268 -11 314 -11 q 127 22 172 -11 q 67 128 82 54 q 53 353 53 203 q 65 578 53 506 q 121 685 76 650 q 264 719 165 719 q 394 687 354 719 q 445 583 435 654 q 456 354 456 513 l 456 325 m 263 639 q 183 622 207 639 q 152 557 160 606 q 144 394 144 508 l 368 394 l 368 415 q 360 564 368 518 q 330 624 351 610 q 263 639 308 639 m 113 849 q 121 954 113 915 q 160 1017 129 993 q 256 1040 192 1040 q 349 1017 319 1040 q 388 954 379 993 q 396 849 396 915 l 328 849 q 324 926 328 901 q 306 965 321 951 q 256 979 290 979 q 205 965 221 979 q 185 925 189 950 q 181 849 181 900 l 113 849 z "},"ē":{"ha":508,"x_min":53,"x_max":456,"o":"m 456 325 l 144 325 q 153 159 144 210 q 191 89 163 108 q 285 69 219 69 q 364 74 319 69 q 440 83 408 78 l 440 7 q 363 -6 411 0 q 268 -11 314 -11 q 127 22 172 -11 q 67 128 82 54 q 53 353 53 203 q 65 578 53 506 q 121 685 76 650 q 264 719 165 719 q 394 687 354 719 q 445 583 435 654 q 456 354 456 513 l 456 325 m 263 639 q 183 622 207 639 q 152 557 160 606 q 144 394 144 508 l 368 394 l 368 415 q 360 564 368 518 q 330 624 351 610 q 263 639 308 639 m 138 944 l 138 1032 l 371 1032 l 371 944 l 138 944 z "},"ę":{"ha":508,"x_min":53,"x_max":456,"o":"m 456 325 l 144 325 q 153 159 144 210 q 191 89 163 108 q 285 69 219 69 q 364 74 319 69 q 440 83 408 78 l 440 7 q 379 -65 408 -19 q 350 -151 350 -111 q 410 -210 350 -210 l 431 -208 l 431 -269 q 389 -272 403 -272 q 301 -243 329 -272 q 274 -168 274 -214 q 295 -85 274 -128 q 351 -6 317 -42 q 268 -11 314 -11 q 127 22 172 -11 q 67 128 82 54 q 53 353 53 203 q 65 578 53 506 q 121 685 76 650 q 264 719 165 719 q 394 687 354 719 q 445 583 435 654 q 456 354 456 513 l 456 325 m 263 639 q 183 622 207 639 q 152 557 160 606 q 144 394 144 508 l 368 394 l 368 415 q 360 564 368 518 q 330 624 351 610 q 263 639 308 639 z "},"ẽ":{"ha":508,"x_min":53,"x_max":456,"o":"m 456 325 l 144 325 q 153 159 144 210 q 191 89 163 108 q 285 69 219 69 q 364 74 319 69 q 440 83 408 78 l 440 7 q 363 -6 411 0 q 268 -11 314 -11 q 127 22 172 -11 q 67 128 82 54 q 53 353 53 203 q 65 578 53 506 q 121 685 76 650 q 264 719 165 719 q 394 687 354 719 q 445 583 435 654 q 456 354 456 513 l 456 325 m 263 639 q 183 622 207 639 q 152 557 160 606 q 144 394 144 508 l 368 394 l 368 415 q 360 564 368 518 q 330 624 351 610 q 263 639 308 639 m 422 1032 q 408 917 422 949 q 346 885 394 885 q 247 915 308 885 q 203 936 221 929 q 169 943 186 943 q 149 927 154 943 q 144 868 144 911 l 83 868 q 98 984 83 951 q 160 1017 113 1017 q 208 1008 183 1017 q 263 983 232 999 q 304 965 288 971 q 336 958 321 958 q 358 974 353 958 q 363 1032 363 989 l 422 1032 z "},"ə":{"ha":508,"x_min":53,"x_max":456,"o":"m 240 719 q 381 687 336 719 q 441 580 426 654 q 456 356 456 506 q 444 131 456 203 q 388 24 432 58 q 244 -11 343 -11 q 114 22 154 -11 q 63 125 74 54 q 53 354 53 196 l 53 383 l 364 383 q 355 549 364 499 q 317 619 346 600 q 224 639 289 639 q 144 635 189 639 q 68 625 100 631 l 68 701 q 146 714 97 708 q 240 719 194 719 m 246 69 q 325 86 301 69 q 356 151 349 103 q 364 314 364 200 l 140 314 l 140 293 q 149 144 140 190 q 178 84 157 99 q 246 69 200 69 z "},"f":{"ha":329,"x_min":24,"x_max":304,"o":"m 106 628 l 24 628 l 24 708 l 106 708 l 106 825 q 124 963 106 919 q 182 1019 142 1006 q 304 1032 222 1032 l 304 960 q 237 951 258 960 q 206 919 215 943 q 197 846 197 896 l 197 708 l 304 708 l 304 628 l 197 628 l 197 0 l 106 0 l 106 628 z "},"g":{"ha":538,"x_min":53,"x_max":465,"o":"m 236 -276 q 72 -269 158 -276 l 72 -193 q 219 -197 189 -197 q 322 -176 290 -197 q 364 -101 354 -154 q 374 67 374 -49 l 374 92 l 367 92 q 319 18 353 42 q 228 -6 286 -6 q 117 25 154 -6 q 67 131 81 56 q 53 357 53 207 q 67 584 53 508 q 119 690 82 660 q 229 719 156 719 q 319 697 282 719 q 371 611 357 674 l 378 611 l 383 708 l 465 708 l 465 104 q 450 -126 465 -49 q 387 -240 435 -204 q 236 -276 339 -276 m 260 78 q 328 98 304 78 q 363 167 353 118 q 374 357 374 221 q 365 536 374 486 q 331 614 356 592 q 260 636 306 636 q 184 618 207 636 q 153 544 161 600 q 144 357 144 488 q 153 170 144 226 q 184 96 161 114 q 260 78 207 78 z "},"ǵ":{"ha":538,"x_min":53,"x_max":465,"o":"m 236 -276 q 72 -269 158 -276 l 72 -193 q 219 -197 189 -197 q 322 -176 290 -197 q 364 -101 354 -154 q 374 67 374 -49 l 374 92 l 367 92 q 319 18 353 42 q 228 -6 286 -6 q 117 25 154 -6 q 67 131 81 56 q 53 357 53 207 q 67 584 53 508 q 119 690 82 660 q 229 719 156 719 q 319 697 282 719 q 371 611 357 674 l 378 611 l 383 708 l 465 708 l 465 104 q 450 -126 465 -49 q 387 -240 435 -204 q 236 -276 339 -276 m 260 78 q 328 98 304 78 q 363 167 353 118 q 374 357 374 221 q 365 536 374 486 q 331 614 356 592 q 260 636 306 636 q 184 618 207 636 q 153 544 161 600 q 144 357 144 488 q 153 170 144 226 q 184 96 161 114 q 260 78 207 78 m 229 836 l 229 843 l 276 1032 l 371 1032 l 371 1025 l 299 836 l 229 836 z "},"ğ":{"ha":538,"x_min":53,"x_max":465,"o":"m 236 -276 q 72 -269 158 -276 l 72 -193 q 219 -197 189 -197 q 322 -176 290 -197 q 364 -101 354 -154 q 374 67 374 -49 l 374 92 l 367 92 q 319 18 353 42 q 228 -6 286 -6 q 117 25 154 -6 q 67 131 81 56 q 53 357 53 207 q 67 584 53 508 q 119 690 82 660 q 229 719 156 719 q 319 697 282 719 q 371 611 357 674 l 378 611 l 383 708 l 465 708 l 465 104 q 450 -126 465 -49 q 387 -240 435 -204 q 236 -276 339 -276 m 260 78 q 328 98 304 78 q 363 167 353 118 q 374 357 374 221 q 365 536 374 486 q 331 614 356 592 q 260 636 306 636 q 184 618 207 636 q 153 544 161 600 q 144 357 144 488 q 153 170 144 226 q 184 96 161 114 q 260 78 207 78 m 410 1032 q 401 926 410 965 q 362 864 393 888 q 267 840 331 840 q 173 864 203 840 q 135 926 143 888 q 126 1032 126 965 l 194 1032 q 198 954 194 979 q 217 915 201 929 q 267 901 232 901 q 317 916 301 901 q 338 956 333 931 q 342 1032 342 981 l 410 1032 z "},"ǧ":{"ha":538,"x_min":53,"x_max":465,"o":"m 236 -276 q 72 -269 158 -276 l 72 -193 q 219 -197 189 -197 q 322 -176 290 -197 q 364 -101 354 -154 q 374 67 374 -49 l 374 92 l 367 92 q 319 18 353 42 q 228 -6 286 -6 q 117 25 154 -6 q 67 131 81 56 q 53 357 53 207 q 67 584 53 508 q 119 690 82 660 q 229 719 156 719 q 319 697 282 719 q 371 611 357 674 l 378 611 l 383 708 l 465 708 l 465 104 q 450 -126 465 -49 q 387 -240 435 -204 q 236 -276 339 -276 m 260 78 q 328 98 304 78 q 363 167 353 118 q 374 357 374 221 q 365 536 374 486 q 331 614 356 592 q 260 636 306 636 q 184 618 207 636 q 153 544 161 600 q 144 357 144 488 q 153 170 144 226 q 184 96 161 114 q 260 78 207 78 m 217 846 l 124 1024 l 124 1032 l 189 1032 l 267 903 l 346 1032 l 411 1032 l 411 1024 l 318 846 l 217 846 z "},"ĝ":{"ha":538,"x_min":53,"x_max":465,"o":"m 236 -276 q 72 -269 158 -276 l 72 -193 q 219 -197 189 -197 q 322 -176 290 -197 q 364 -101 354 -154 q 374 67 374 -49 l 374 92 l 367 92 q 319 18 353 42 q 228 -6 286 -6 q 117 25 154 -6 q 67 131 81 56 q 53 357 53 207 q 67 584 53 508 q 119 690 82 660 q 229 719 156 719 q 319 697 282 719 q 371 611 357 674 l 378 611 l 383 708 l 465 708 l 465 104 q 450 -126 465 -49 q 387 -240 435 -204 q 236 -276 339 -276 m 260 78 q 328 98 304 78 q 363 167 353 118 q 374 357 374 221 q 365 536 374 486 q 331 614 356 592 q 260 636 306 636 q 184 618 207 636 q 153 544 161 600 q 144 357 144 488 q 153 170 144 226 q 184 96 161 114 q 260 78 207 78 m 124 846 l 124 854 l 217 1032 l 318 1032 l 411 854 l 411 846 l 346 846 l 267 975 l 189 846 l 124 846 z "},"ģ":{"ha":538,"x_min":53,"x_max":465,"o":"m 236 -276 q 72 -269 158 -276 l 72 -193 q 219 -197 189 -197 q 322 -176 290 -197 q 364 -101 354 -154 q 374 67 374 -49 l 374 92 l 367 92 q 319 18 353 42 q 228 -6 286 -6 q 117 25 154 -6 q 67 131 81 56 q 53 357 53 207 q 67 584 53 508 q 119 690 82 660 q 229 719 156 719 q 319 697 282 719 q 371 611 357 674 l 378 611 l 383 708 l 465 708 l 465 104 q 450 -126 465 -49 q 387 -240 435 -204 q 236 -276 339 -276 m 260 78 q 328 98 304 78 q 363 167 353 118 q 374 357 374 221 q 365 536 374 486 q 331 614 356 592 q 260 636 306 636 q 184 618 207 636 q 153 544 161 600 q 144 357 144 488 q 153 170 144 226 q 184 96 161 114 q 260 78 207 78 m 342 1046 q 289 1031 300 1046 q 278 965 278 1015 l 278 943 l 319 943 l 319 838 l 215 838 l 215 936 q 225 1033 215 1000 q 261 1078 235 1065 q 342 1092 288 1092 l 342 1046 z "},"ġ":{"ha":538,"x_min":53,"x_max":465,"o":"m 236 -276 q 72 -269 158 -276 l 72 -193 q 219 -197 189 -197 q 322 -176 290 -197 q 364 -101 354 -154 q 374 67 374 -49 l 374 92 l 367 92 q 319 18 353 42 q 228 -6 286 -6 q 117 25 154 -6 q 67 131 81 56 q 53 357 53 207 q 67 584 53 508 q 119 690 82 660 q 229 719 156 719 q 319 697 282 719 q 371 611 357 674 l 378 611 l 383 708 l 465 708 l 465 104 q 450 -126 465 -49 q 387 -240 435 -204 q 236 -276 339 -276 m 260 78 q 328 98 304 78 q 363 167 353 118 q 374 357 374 221 q 365 536 374 486 q 331 614 356 592 q 260 636 306 636 q 184 618 207 636 q 153 544 161 600 q 144 357 144 488 q 153 170 144 226 q 184 96 161 114 q 260 78 207 78 m 222 910 l 222 1014 l 311 1014 l 311 910 l 222 910 z "},"h":{"ha":538,"x_min":71,"x_max":471,"o":"m 379 421 q 372 564 379 521 q 344 622 365 607 q 276 636 324 636 q 198 606 222 636 q 168 522 174 575 q 163 363 163 469 l 163 0 l 71 0 l 71 1032 l 163 1032 l 163 625 l 171 625 q 315 719 200 719 q 415 694 382 719 q 460 613 449 668 q 471 456 471 558 l 471 0 l 379 0 l 379 421 z "},"ħ":{"ha":538,"x_min":6,"x_max":471,"o":"m 315 719 q 415 694 382 719 q 460 613 449 668 q 471 456 471 558 l 471 0 l 379 0 l 379 421 q 372 564 379 521 q 344 622 365 607 q 276 636 324 636 q 198 606 222 636 q 168 522 174 575 q 163 363 163 469 l 163 0 l 71 0 l 71 875 l 6 875 l 6 956 l 71 956 l 71 1032 l 163 1032 l 163 956 l 308 956 l 308 875 l 163 875 l 163 625 l 171 625 q 315 719 200 719 z "},"ĥ":{"ha":538,"x_min":-26,"x_max":471,"o":"m 379 421 q 372 564 379 521 q 344 622 365 607 q 276 636 324 636 q 198 606 222 636 q 168 522 174 575 q 163 363 163 469 l 163 0 l 71 0 l 71 1032 l 163 1032 l 163 625 l 171 625 q 315 719 200 719 q 415 694 382 719 q 460 613 449 668 q 471 456 471 558 l 471 0 l 379 0 l 379 421 m -26 1093 l -26 1101 l 67 1279 l 168 1279 l 261 1101 l 261 1093 l 196 1093 l 117 1222 l 39 1093 l -26 1093 z "},"ḥ":{"ha":538,"x_min":71,"x_max":471,"o":"m 379 421 q 372 564 379 521 q 344 622 365 607 q 276 636 324 636 q 198 606 222 636 q 168 522 174 575 q 163 363 163 469 l 163 0 l 71 0 l 71 1032 l 163 1032 l 163 625 l 171 625 q 315 719 200 719 q 415 694 382 719 q 460 613 449 668 q 471 456 471 558 l 471 0 l 379 0 l 379 421 m 217 -207 l 217 -86 l 322 -86 l 322 -207 l 217 -207 z "},"i":{"ha":235,"x_min":69,"x_max":165,"o":"m 69 919 l 69 1032 l 165 1032 l 165 919 l 69 919 m 71 0 l 71 708 l 163 708 l 163 0 l 71 0 z "},"ı":{"ha":235,"x_min":71,"x_max":163,"o":"m 71 0 l 71 708 l 163 708 l 163 0 l 71 0 z "},"í":{"ha":235,"x_min":71,"x_max":213,"o":"m 71 0 l 71 708 l 163 708 l 163 0 l 71 0 m 71 836 l 71 843 l 118 1032 l 213 1032 l 213 1025 l 140 836 l 71 836 z "},"ĭ":{"ha":235,"x_min":-24,"x_max":260,"o":"m 71 0 l 71 708 l 163 708 l 163 0 l 71 0 m 260 1032 q 251 926 260 965 q 212 864 243 888 q 117 840 181 840 q 23 864 53 840 q -15 926 -7 888 q -24 1032 -24 965 l 44 1032 q 48 954 44 979 q 67 915 51 929 q 117 901 82 901 q 167 916 151 901 q 188 956 183 931 q 192 1032 192 981 l 260 1032 z "},"ǐ":{"ha":235,"x_min":-26,"x_max":261,"o":"m 71 0 l 71 708 l 163 708 l 163 0 l 71 0 m 67 846 l -26 1024 l -26 1032 l 39 1032 l 117 903 l 196 1032 l 261 1032 l 261 1024 l 168 846 l 67 846 z "},"î":{"ha":235,"x_min":-26,"x_max":261,"o":"m 71 0 l 71 708 l 163 708 l 163 0 l 71 0 m -26 846 l -26 854 l 67 1032 l 168 1032 l 261 854 l 261 846 l 196 846 l 117 975 l 39 846 l -26 846 z "},"ȉ":{"ha":235,"x_min":-53,"x_max":224,"o":"m 71 0 l 71 708 l 163 708 l 163 0 l 71 0 m 72 849 l 11 849 l -53 1007 l -53 1013 l 32 1013 l 72 856 l 72 849 m 224 849 l 163 849 l 99 1007 l 99 1013 l 183 1013 l 224 856 l 224 849 z "},"ï":{"ha":235,"x_min":-43,"x_max":278,"o":"m 71 0 l 71 708 l 163 708 l 163 0 l 71 0 m -43 910 l -43 1014 l 46 1014 l 46 910 l -43 910 m 189 910 l 189 1014 l 278 1014 l 278 910 l 189 910 z "},"ị":{"ha":235,"x_min":69,"x_max":176,"o":"m 69 919 l 69 1032 l 165 1032 l 165 919 l 69 919 m 71 0 l 71 708 l 163 708 l 163 0 l 71 0 m 71 -207 l 71 -86 l 176 -86 l 176 -207 l 71 -207 z "},"ì":{"ha":235,"x_min":21,"x_max":163,"o":"m 71 0 l 71 708 l 163 708 l 163 0 l 71 0 m 93 836 l 21 1025 l 21 1032 l 115 1032 l 163 843 l 163 836 l 93 836 z "},"ỉ":{"ha":235,"x_min":-11,"x_max":246,"o":"m 71 0 l 71 708 l 163 708 l 163 0 l 71 0 m 54 869 q 65 909 54 897 q 101 931 75 921 l 117 935 q 163 955 151 944 q 175 990 175 965 q 170 1017 175 1008 q 150 1028 165 1025 q 100 1032 135 1032 q -11 1028 53 1032 l -11 1085 q 113 1097 64 1097 q 216 1076 186 1097 q 246 1004 246 1056 q 237 940 246 961 q 189 906 228 919 l 176 900 q 136 885 147 890 q 122 872 125 879 q 119 850 119 865 l 54 850 l 54 869 z "},"ȋ":{"ha":235,"x_min":-24,"x_max":260,"o":"m 71 0 l 71 708 l 163 708 l 163 0 l 71 0 m -24 849 q -15 954 -24 915 q 24 1017 -7 993 q 119 1040 56 1040 q 213 1017 183 1040 q 251 954 243 993 q 260 849 260 915 l 192 849 q 188 926 192 901 q 169 965 185 951 q 119 979 154 979 q 69 965 85 979 q 49 925 53 950 q 44 849 44 900 l -24 849 z "},"ĳ":{"ha":469,"x_min":69,"x_max":400,"o":"m 69 919 l 69 1032 l 165 1032 l 165 919 l 69 919 m 71 0 l 71 708 l 163 708 l 163 0 l 71 0 m 304 919 l 304 1032 l 400 1032 l 400 919 l 304 919 m 228 -194 q 281 -187 264 -194 q 301 -166 297 -181 q 306 -118 306 -151 l 306 708 l 397 708 l 397 -79 q 381 -205 397 -165 q 332 -256 365 -244 q 228 -267 299 -267 l 228 -194 z "},"ī":{"ha":235,"x_min":1,"x_max":235,"o":"m 71 0 l 71 708 l 163 708 l 163 0 l 71 0 m 1 944 l 1 1032 l 235 1032 l 235 944 l 1 944 z "},"į":{"ha":235,"x_min":7,"x_max":164,"o":"m 161 1014 l 161 910 l 72 910 l 72 1014 l 161 1014 m 164 -208 l 164 -269 q 122 -272 136 -272 q 35 -243 63 -272 q 7 -167 7 -214 q 30 -81 7 -125 q 90 0 53 -36 l 71 0 l 71 708 l 163 708 l 163 0 q 109 -69 135 -26 q 83 -150 83 -112 q 143 -210 83 -210 l 164 -208 z "},"ĩ":{"ha":235,"x_min":-53,"x_max":286,"o":"m 71 0 l 71 708 l 163 708 l 163 0 l 71 0 m 286 1032 q 272 917 286 949 q 210 885 258 885 q 111 915 172 885 q 67 936 85 929 q 33 943 50 943 q 13 927 18 943 q 8 868 8 911 l -53 868 q -38 984 -53 951 q 24 1017 -24 1017 q 72 1008 47 1017 q 126 983 96 999 q 168 965 151 971 q 200 958 185 958 q 222 974 217 958 q 226 1032 226 989 l 286 1032 z "},"j":{"ha":235,"x_min":-7,"x_max":165,"o":"m 69 919 l 69 1032 l 165 1032 l 165 919 l 69 919 m -7 -194 q 46 -187 29 -194 q 67 -166 63 -181 q 71 -118 71 -151 l 71 708 l 163 708 l 163 -79 q 147 -205 163 -165 q 97 -256 131 -244 q -7 -267 64 -267 l -7 -194 z "},"ȷ":{"ha":235,"x_min":-7,"x_max":163,"o":"m -7 -194 q 46 -187 29 -194 q 67 -166 63 -181 q 71 -118 71 -151 l 71 708 l 163 708 l 163 -79 q 147 -205 163 -165 q 97 -256 131 -244 q -7 -267 64 -267 l -7 -194 z "},"ĵ":{"ha":235,"x_min":-26,"x_max":261,"o":"m -7 -194 q 46 -187 29 -194 q 67 -166 63 -181 q 71 -118 71 -151 l 71 708 l 163 708 l 163 -79 q 147 -205 163 -165 q 97 -256 131 -244 q -7 -267 64 -267 l -7 -194 m -26 846 l -26 854 l 67 1032 l 168 1032 l 261 854 l 261 846 l 196 846 l 117 975 l 39 846 l -26 846 z "},"k":{"ha":482,"x_min":71,"x_max":464,"o":"m 365 0 l 229 317 l 163 317 l 163 0 l 71 0 l 71 1032 l 163 1032 l 163 399 l 229 399 l 364 708 l 458 708 l 306 367 l 464 0 l 365 0 z "},"ķ":{"ha":482,"x_min":71,"x_max":464,"o":"m 365 0 l 229 317 l 163 317 l 163 0 l 71 0 l 71 1032 l 163 1032 l 163 399 l 229 399 l 364 708 l 458 708 l 306 367 l 464 0 l 365 0 m 179 -294 q 232 -279 221 -294 q 243 -214 243 -264 l 243 -192 l 201 -192 l 201 -86 l 306 -86 l 306 -183 q 296 -281 306 -249 q 260 -327 286 -314 q 179 -340 233 -340 l 179 -294 z "},"ĸ":{"ha":482,"x_min":71,"x_max":464,"o":"m 365 0 l 229 317 l 163 317 l 163 0 l 71 0 l 71 708 l 163 708 l 163 399 l 229 399 l 364 708 l 458 708 l 306 367 l 464 0 l 365 0 z "},"l":{"ha":235,"x_min":71,"x_max":163,"o":"m 71 0 l 71 1032 l 163 1032 l 163 0 l 71 0 z "},"ĺ":{"ha":235,"x_min":71,"x_max":221,"o":"m 71 0 l 71 1032 l 163 1032 l 163 0 l 71 0 m 79 1083 l 79 1090 l 126 1279 l 221 1279 l 221 1272 l 149 1083 l 79 1083 z "},"ľ":{"ha":282,"x_min":71,"x_max":315,"o":"m 71 0 l 71 1032 l 163 1032 l 163 0 l 71 0 m 206 617 l 224 850 l 224 956 l 315 956 l 315 850 l 271 617 l 206 617 z "},"ļ":{"ha":235,"x_min":56,"x_max":182,"o":"m 71 0 l 71 1032 l 163 1032 l 163 0 l 71 0 m 56 -294 q 108 -279 97 -294 q 119 -214 119 -264 l 119 -192 l 78 -192 l 78 -86 l 182 -86 l 182 -183 q 172 -281 182 -249 q 136 -327 163 -314 q 56 -340 110 -340 l 56 -294 z "},"ŀ":{"ha":318,"x_min":71,"x_max":326,"o":"m 71 0 l 71 1032 l 163 1032 l 163 0 l 71 0 m 226 356 l 226 476 l 326 476 l 326 356 l 226 356 z "},"ǉ":{"ha":469,"x_min":71,"x_max":400,"o":"m 71 0 l 71 1032 l 163 1032 l 163 0 l 71 0 m 304 919 l 304 1032 l 400 1032 l 400 919 l 304 919 m 228 -194 q 281 -187 264 -194 q 301 -166 297 -181 q 306 -118 306 -151 l 306 708 l 397 708 l 397 -79 q 381 -205 397 -165 q 332 -256 365 -244 q 228 -267 299 -267 l 228 -194 z "},"ł":{"ha":242,"x_min":13,"x_max":229,"o":"m 72 0 l 72 433 l 13 413 l 13 499 l 72 519 l 72 1032 l 164 1032 l 164 551 l 229 575 l 229 490 l 164 467 l 164 0 l 72 0 z "},"m":{"ha":832,"x_min":71,"x_max":765,"o":"m 674 421 q 667 564 674 521 q 640 622 660 607 q 576 636 621 636 q 499 608 522 636 q 469 527 475 579 q 464 363 464 475 l 464 0 l 372 0 l 372 421 q 365 564 372 521 q 340 622 358 607 q 276 636 321 636 q 198 606 222 636 q 168 522 174 575 q 163 363 163 468 l 163 0 l 71 0 l 71 708 l 153 708 l 158 611 l 167 611 q 214 691 181 663 q 313 719 247 719 q 412 694 381 719 q 454 611 443 669 l 464 611 q 512 692 478 664 q 611 719 546 719 q 709 694 676 719 q 753 614 742 668 q 765 458 765 560 l 765 0 l 674 0 l 674 421 z "},"n":{"ha":538,"x_min":71,"x_max":471,"o":"m 379 421 q 372 564 379 521 q 344 622 365 607 q 276 636 324 636 q 198 606 222 636 q 168 522 174 575 q 163 363 163 469 l 163 0 l 71 0 l 71 708 l 153 708 l 158 611 l 167 611 q 215 691 181 663 q 315 719 250 719 q 415 694 382 719 q 460 613 449 668 q 471 456 471 558 l 471 0 l 379 0 l 379 421 z "},"ń":{"ha":538,"x_min":71,"x_max":471,"o":"m 379 421 q 372 564 379 521 q 344 622 365 607 q 276 636 324 636 q 198 606 222 636 q 168 522 174 575 q 163 363 163 469 l 163 0 l 71 0 l 71 708 l 153 708 l 158 611 l 167 611 q 215 691 181 663 q 315 719 250 719 q 415 694 382 719 q 460 613 449 668 q 471 456 471 558 l 471 0 l 379 0 l 379 421 m 231 836 l 231 843 l 278 1032 l 372 1032 l 372 1025 l 300 836 l 231 836 z "},"ŉ":{"ha":590,"x_min":11,"x_max":524,"o":"m 11 811 q 63 829 51 811 q 74 904 74 847 l 74 926 l 33 926 l 33 1032 l 136 1032 l 136 935 q 127 830 136 865 q 92 780 118 794 q 11 765 65 765 l 11 811 m 432 421 q 425 564 432 521 q 397 622 418 607 q 329 636 376 636 q 251 606 275 636 q 221 522 226 575 q 215 363 215 469 l 215 0 l 124 0 l 124 708 l 206 708 l 211 611 l 219 611 q 268 691 233 663 q 368 719 303 719 q 468 694 435 719 q 513 613 501 668 q 524 456 524 558 l 524 0 l 432 0 l 432 421 z "},"ň":{"ha":538,"x_min":71,"x_max":471,"o":"m 379 421 q 372 564 379 521 q 344 622 365 607 q 276 636 324 636 q 198 606 222 636 q 168 522 174 575 q 163 363 163 469 l 163 0 l 71 0 l 71 708 l 153 708 l 158 611 l 167 611 q 215 691 181 663 q 315 719 250 719 q 415 694 382 719 q 460 613 449 668 q 471 456 471 558 l 471 0 l 379 0 l 379 421 m 218 846 l 125 1024 l 125 1032 l 190 1032 l 268 903 l 347 1032 l 413 1032 l 413 1024 l 319 846 l 218 846 z "},"ņ":{"ha":538,"x_min":71,"x_max":471,"o":"m 379 421 q 372 564 379 521 q 344 622 365 607 q 276 636 324 636 q 198 606 222 636 q 168 522 174 575 q 163 363 163 469 l 163 0 l 71 0 l 71 708 l 153 708 l 158 611 l 167 611 q 215 691 181 663 q 315 719 250 719 q 415 694 382 719 q 460 613 449 668 q 471 456 471 558 l 471 0 l 379 0 l 379 421 m 207 -294 q 260 -279 249 -294 q 271 -214 271 -264 l 271 -192 l 229 -192 l 229 -86 l 333 -86 l 333 -183 q 324 -281 333 -249 q 288 -327 314 -314 q 207 -340 261 -340 l 207 -294 z "},"ṅ":{"ha":538,"x_min":71,"x_max":471,"o":"m 379 421 q 372 564 379 521 q 344 622 365 607 q 276 636 324 636 q 198 606 222 636 q 168 522 174 575 q 163 363 163 469 l 163 0 l 71 0 l 71 708 l 153 708 l 158 611 l 167 611 q 215 691 181 663 q 315 719 250 719 q 415 694 382 719 q 460 613 449 668 q 471 456 471 558 l 471 0 l 379 0 l 379 421 m 224 910 l 224 1014 l 313 1014 l 313 910 l 224 910 z "},"ŋ":{"ha":538,"x_min":71,"x_max":471,"o":"m 315 719 q 415 694 382 719 q 460 613 449 668 q 471 456 471 558 l 471 -79 q 455 -205 471 -165 q 406 -256 439 -244 q 301 -267 372 -267 l 301 -194 q 354 -187 338 -194 q 375 -166 371 -181 q 379 -118 379 -151 l 379 421 q 372 564 379 521 q 344 622 365 607 q 276 636 324 636 q 198 606 222 636 q 168 522 174 575 q 163 363 163 469 l 163 0 l 71 0 l 71 708 l 153 708 l 158 611 l 167 611 q 215 691 181 663 q 315 719 250 719 z "},"ɲ":{"ha":538,"x_min":-7,"x_max":471,"o":"m -7 -194 q 46 -187 29 -194 q 67 -166 63 -181 q 71 -118 71 -151 l 71 708 l 153 708 l 158 611 l 167 611 q 215 691 181 663 q 315 719 250 719 q 415 694 382 719 q 460 613 449 668 q 471 456 471 558 l 471 0 l 379 0 l 379 421 q 372 564 379 521 q 344 622 365 607 q 276 636 324 636 q 198 606 222 636 q 168 523 174 575 q 163 364 163 471 l 163 -79 q 147 -205 163 -165 q 97 -256 131 -244 q -7 -267 64 -267 l -7 -194 z "},"ǌ":{"ha":772,"x_min":71,"x_max":703,"o":"m 379 421 q 372 564 379 521 q 344 622 365 607 q 276 636 324 636 q 198 606 222 636 q 168 522 174 575 q 163 363 163 469 l 163 0 l 71 0 l 71 708 l 153 708 l 158 611 l 167 611 q 215 691 181 663 q 315 719 250 719 q 415 694 382 719 q 460 613 449 668 q 471 456 471 558 l 471 0 l 379 0 l 379 421 m 607 919 l 607 1032 l 703 1032 l 703 919 l 607 919 m 531 -194 q 583 -187 567 -194 q 604 -166 600 -181 q 608 -118 608 -151 l 608 708 l 700 708 l 700 -79 q 684 -205 700 -165 q 635 -256 668 -244 q 531 -267 601 -267 l 531 -194 z "},"ñ":{"ha":538,"x_min":71,"x_max":471,"o":"m 379 421 q 372 564 379 521 q 344 622 365 607 q 276 636 324 636 q 198 606 222 636 q 168 522 174 575 q 163 363 163 469 l 163 0 l 71 0 l 71 708 l 153 708 l 158 611 l 167 611 q 215 691 181 663 q 315 719 250 719 q 415 694 382 719 q 460 613 449 668 q 471 456 471 558 l 471 0 l 379 0 l 379 421 m 444 1032 q 431 917 444 949 q 368 885 417 885 q 269 915 331 885 q 226 936 243 929 q 192 943 208 943 q 172 927 176 943 q 167 868 167 911 l 106 868 q 120 984 106 951 q 182 1017 135 1017 q 231 1008 207 1017 q 285 983 254 999 q 326 965 310 971 q 358 958 343 958 q 380 974 375 958 q 385 1032 385 989 l 444 1032 z "},"o":{"ha":524,"x_min":53,"x_max":469,"o":"m 261 -11 q 122 18 165 -11 q 66 119 79 47 q 53 353 53 192 q 66 588 53 514 q 122 690 79 661 q 261 719 165 719 q 401 690 358 719 q 456 588 443 661 q 469 353 469 515 q 456 119 469 192 q 401 18 443 47 q 261 -11 358 -11 m 261 69 q 342 89 318 69 q 372 163 365 108 q 378 353 378 217 q 372 544 378 490 q 342 619 365 599 q 261 639 318 639 q 181 619 204 639 q 151 544 158 599 q 144 353 144 489 q 151 163 144 218 q 181 89 158 108 q 261 69 204 69 z "},"ó":{"ha":524,"x_min":53,"x_max":469,"o":"m 261 -11 q 122 18 165 -11 q 66 119 79 47 q 53 353 53 192 q 66 588 53 514 q 122 690 79 661 q 261 719 165 719 q 401 690 358 719 q 456 588 443 661 q 469 353 469 515 q 456 119 469 192 q 401 18 443 47 q 261 -11 358 -11 m 261 69 q 342 89 318 69 q 372 163 365 108 q 378 353 378 217 q 372 544 378 490 q 342 619 365 599 q 261 639 318 639 q 181 619 204 639 q 151 544 158 599 q 144 353 144 489 q 151 163 144 218 q 181 89 158 108 q 261 69 204 69 m 213 836 l 213 843 l 260 1032 l 354 1032 l 354 1025 l 282 836 l 213 836 z "},"ŏ":{"ha":524,"x_min":53,"x_max":469,"o":"m 261 -11 q 122 18 165 -11 q 66 119 79 47 q 53 353 53 192 q 66 588 53 514 q 122 690 79 661 q 261 719 165 719 q 401 690 358 719 q 456 588 443 661 q 469 353 469 515 q 456 119 469 192 q 401 18 443 47 q 261 -11 358 -11 m 261 69 q 342 89 318 69 q 372 163 365 108 q 378 353 378 217 q 372 544 378 490 q 342 619 365 599 q 261 639 318 639 q 181 619 204 639 q 151 544 158 599 q 144 353 144 489 q 151 163 144 218 q 181 89 158 108 q 261 69 204 69 m 403 1032 q 394 926 403 965 q 355 864 386 888 q 260 840 324 840 q 166 864 196 840 q 128 926 136 888 q 119 1032 119 965 l 188 1032 q 191 954 188 979 q 210 915 194 929 q 260 901 225 901 q 310 916 294 901 q 331 956 326 931 q 335 1032 335 981 l 403 1032 z "},"ǒ":{"ha":524,"x_min":53,"x_max":469,"o":"m 261 -11 q 122 18 165 -11 q 66 119 79 47 q 53 353 53 192 q 66 588 53 514 q 122 690 79 661 q 261 719 165 719 q 401 690 358 719 q 456 588 443 661 q 469 353 469 515 q 456 119 469 192 q 401 18 443 47 q 261 -11 358 -11 m 261 69 q 342 89 318 69 q 372 163 365 108 q 378 353 378 217 q 372 544 378 490 q 342 619 365 599 q 261 639 318 639 q 181 619 204 639 q 151 544 158 599 q 144 353 144 489 q 151 163 144 218 q 181 89 158 108 q 261 69 204 69 m 210 846 l 117 1024 l 117 1032 l 182 1032 l 260 903 l 339 1032 l 404 1032 l 404 1024 l 311 846 l 210 846 z "},"ô":{"ha":524,"x_min":53,"x_max":469,"o":"m 261 -11 q 122 18 165 -11 q 66 119 79 47 q 53 353 53 192 q 66 588 53 514 q 122 690 79 661 q 261 719 165 719 q 401 690 358 719 q 456 588 443 661 q 469 353 469 515 q 456 119 469 192 q 401 18 443 47 q 261 -11 358 -11 m 261 69 q 342 89 318 69 q 372 163 365 108 q 378 353 378 217 q 372 544 378 490 q 342 619 365 599 q 261 639 318 639 q 181 619 204 639 q 151 544 158 599 q 144 353 144 489 q 151 163 144 218 q 181 89 158 108 q 261 69 204 69 m 121 846 l 121 854 l 214 1032 l 315 1032 l 408 854 l 408 846 l 343 846 l 264 975 l 186 846 l 121 846 z "},"ố":{"ha":524,"x_min":53,"x_max":471,"o":"m 261 -11 q 122 18 165 -11 q 66 119 79 47 q 53 353 53 192 q 66 588 53 514 q 122 690 79 661 q 261 719 165 719 q 401 690 358 719 q 456 588 443 661 q 469 353 469 515 q 456 119 469 192 q 401 18 443 47 q 261 -11 358 -11 m 261 69 q 342 89 318 69 q 372 163 365 108 q 378 353 378 217 q 372 544 378 490 q 342 619 365 599 q 261 639 318 639 q 181 619 204 639 q 151 544 158 599 q 144 353 144 489 q 151 163 144 218 q 181 89 158 108 q 261 69 204 69 m 117 846 l 117 854 l 210 1032 l 311 1032 l 404 854 l 404 846 l 339 846 l 260 975 l 182 846 l 117 846 m 329 1042 l 329 1049 l 376 1238 l 471 1238 l 471 1231 l 399 1042 l 329 1042 z "},"ộ":{"ha":524,"x_min":53,"x_max":469,"o":"m 261 -11 q 122 18 165 -11 q 66 119 79 47 q 53 353 53 192 q 66 588 53 514 q 122 690 79 661 q 261 719 165 719 q 401 690 358 719 q 456 588 443 661 q 469 353 469 515 q 456 119 469 192 q 401 18 443 47 q 261 -11 358 -11 m 261 69 q 342 89 318 69 q 372 163 365 108 q 378 353 378 217 q 372 544 378 490 q 342 619 365 599 q 261 639 318 639 q 181 619 204 639 q 151 544 158 599 q 144 353 144 489 q 151 163 144 218 q 181 89 158 108 q 261 69 204 69 m 208 -207 l 208 -86 l 314 -86 l 314 -207 l 208 -207 m 117 846 l 117 854 l 210 1032 l 311 1032 l 404 854 l 404 846 l 339 846 l 260 975 l 182 846 l 117 846 z "},"ồ":{"ha":524,"x_min":53,"x_max":469,"o":"m 261 -11 q 122 18 165 -11 q 66 119 79 47 q 53 353 53 192 q 66 588 53 514 q 122 690 79 661 q 261 719 165 719 q 401 690 358 719 q 456 588 443 661 q 469 353 469 515 q 456 119 469 192 q 401 18 443 47 q 261 -11 358 -11 m 261 69 q 342 89 318 69 q 372 163 365 108 q 378 353 378 217 q 372 544 378 490 q 342 619 365 599 q 261 639 318 639 q 181 619 204 639 q 151 544 158 599 q 144 353 144 489 q 151 163 144 218 q 181 89 158 108 q 261 69 204 69 m 113 846 l 113 854 l 206 1032 l 307 1032 l 400 854 l 400 846 l 335 846 l 256 975 l 178 846 l 113 846 m 332 1042 l 260 1231 l 260 1238 l 354 1238 l 401 1049 l 401 1042 l 332 1042 z "},"ổ":{"ha":524,"x_min":53,"x_max":513,"o":"m 261 -11 q 122 18 165 -11 q 66 119 79 47 q 53 353 53 192 q 66 588 53 514 q 122 690 79 661 q 261 719 165 719 q 401 690 358 719 q 456 588 443 661 q 469 353 469 515 q 456 119 469 192 q 401 18 443 47 q 261 -11 358 -11 m 261 69 q 342 89 318 69 q 372 163 365 108 q 378 353 378 217 q 372 544 378 490 q 342 619 365 599 q 261 639 318 639 q 181 619 204 639 q 151 544 158 599 q 144 353 144 489 q 151 163 144 218 q 181 89 158 108 q 261 69 204 69 m 117 846 l 117 854 l 210 1032 l 311 1032 l 404 854 l 404 846 l 339 846 l 260 975 l 182 846 l 117 846 m 321 1060 q 331 1099 321 1088 q 368 1121 342 1111 l 383 1125 q 430 1145 418 1135 q 442 1181 442 1156 q 437 1207 442 1199 q 417 1219 432 1215 q 367 1222 401 1222 q 256 1218 319 1222 l 256 1275 q 379 1288 331 1288 q 483 1267 453 1288 q 513 1194 513 1246 q 503 1131 513 1151 q 456 1096 494 1110 l 443 1090 q 403 1075 414 1081 q 389 1063 392 1069 q 386 1040 386 1056 l 321 1040 l 321 1060 z "},"ỗ":{"ha":524,"x_min":53,"x_max":469,"o":"m 261 -11 q 122 18 165 -11 q 66 119 79 47 q 53 353 53 192 q 66 588 53 514 q 122 690 79 661 q 261 719 165 719 q 401 690 358 719 q 456 588 443 661 q 469 353 469 515 q 456 119 469 192 q 401 18 443 47 q 261 -11 358 -11 m 261 69 q 342 89 318 69 q 372 163 365 108 q 378 353 378 217 q 372 544 378 490 q 342 619 365 599 q 261 639 318 639 q 181 619 204 639 q 151 544 158 599 q 144 353 144 489 q 151 163 144 218 q 181 89 158 108 q 261 69 204 69 m 114 846 l 114 854 l 207 1032 l 308 1032 l 401 854 l 401 846 l 336 846 l 257 975 l 179 846 l 114 846 m 429 1272 q 415 1157 429 1189 q 353 1125 401 1125 q 254 1156 315 1125 q 210 1176 228 1169 q 176 1183 193 1183 q 156 1167 161 1183 q 151 1108 151 1151 l 90 1108 q 105 1224 90 1192 q 167 1257 119 1257 q 215 1248 190 1257 q 269 1224 239 1239 q 311 1205 294 1211 q 343 1199 328 1199 q 365 1214 360 1199 q 369 1272 369 1229 l 429 1272 z "},"ȍ":{"ha":524,"x_min":53,"x_max":469,"o":"m 261 -11 q 122 18 165 -11 q 66 119 79 47 q 53 353 53 192 q 66 588 53 514 q 122 690 79 661 q 261 719 165 719 q 401 690 358 719 q 456 588 443 661 q 469 353 469 515 q 456 119 469 192 q 401 18 443 47 q 261 -11 358 -11 m 261 69 q 342 89 318 69 q 372 163 365 108 q 378 353 378 217 q 372 544 378 490 q 342 619 365 599 q 261 639 318 639 q 181 619 204 639 q 151 544 158 599 q 144 353 144 489 q 151 163 144 218 q 181 89 158 108 q 261 69 204 69 m 215 849 l 154 849 l 90 1007 l 90 1013 l 175 1013 l 215 856 l 215 849 m 367 849 l 306 849 l 242 1007 l 242 1013 l 326 1013 l 367 856 l 367 849 z "},"ö":{"ha":524,"x_min":53,"x_max":469,"o":"m 261 -11 q 122 18 165 -11 q 66 119 79 47 q 53 353 53 192 q 66 588 53 514 q 122 690 79 661 q 261 719 165 719 q 401 690 358 719 q 456 588 443 661 q 469 353 469 515 q 456 119 469 192 q 401 18 443 47 q 261 -11 358 -11 m 261 69 q 342 89 318 69 q 372 163 365 108 q 378 353 378 217 q 372 544 378 490 q 342 619 365 599 q 261 639 318 639 q 181 619 204 639 q 151 544 158 599 q 144 353 144 489 q 151 163 144 218 q 181 89 158 108 q 261 69 204 69 m 104 910 l 104 1014 l 193 1014 l 193 910 l 104 910 m 336 910 l 336 1014 l 425 1014 l 425 910 l 336 910 z "},"ọ":{"ha":524,"x_min":53,"x_max":469,"o":"m 261 -11 q 122 18 165 -11 q 66 119 79 47 q 53 353 53 192 q 66 588 53 514 q 122 690 79 661 q 261 719 165 719 q 401 690 358 719 q 456 588 443 661 q 469 353 469 515 q 456 119 469 192 q 401 18 443 47 q 261 -11 358 -11 m 261 69 q 342 89 318 69 q 372 163 365 108 q 378 353 378 217 q 372 544 378 490 q 342 619 365 599 q 261 639 318 639 q 181 619 204 639 q 151 544 158 599 q 144 353 144 489 q 151 163 144 218 q 181 89 158 108 q 261 69 204 69 m 208 -207 l 208 -86 l 314 -86 l 314 -207 l 208 -207 z "},"ò":{"ha":524,"x_min":53,"x_max":469,"o":"m 261 -11 q 122 18 165 -11 q 66 119 79 47 q 53 353 53 192 q 66 588 53 514 q 122 690 79 661 q 261 719 165 719 q 401 690 358 719 q 456 588 443 661 q 469 353 469 515 q 456 119 469 192 q 401 18 443 47 q 261 -11 358 -11 m 261 69 q 342 89 318 69 q 372 163 365 108 q 378 353 378 217 q 372 544 378 490 q 342 619 365 599 q 261 639 318 639 q 181 619 204 639 q 151 544 158 599 q 144 353 144 489 q 151 163 144 218 q 181 89 158 108 q 261 69 204 69 m 232 836 l 160 1025 l 160 1032 l 254 1032 l 301 843 l 301 836 l 232 836 z "},"ỏ":{"ha":524,"x_min":53,"x_max":469,"o":"m 261 -11 q 122 18 165 -11 q 66 119 79 47 q 53 353 53 192 q 66 588 53 514 q 122 690 79 661 q 261 719 165 719 q 401 690 358 719 q 456 588 443 661 q 469 353 469 515 q 456 119 469 192 q 401 18 443 47 q 261 -11 358 -11 m 261 69 q 342 89 318 69 q 372 163 365 108 q 378 353 378 217 q 372 544 378 490 q 342 619 365 599 q 261 639 318 639 q 181 619 204 639 q 151 544 158 599 q 144 353 144 489 q 151 163 144 218 q 181 89 158 108 q 261 69 204 69 m 197 869 q 208 909 197 897 q 244 931 218 921 l 260 935 q 306 955 294 944 q 318 990 318 965 q 313 1017 318 1008 q 293 1028 308 1025 q 243 1032 278 1032 q 132 1028 196 1032 l 132 1085 q 256 1097 207 1097 q 359 1076 329 1097 q 389 1004 389 1056 q 380 940 389 961 q 332 906 371 919 l 319 900 q 279 885 290 890 q 265 872 268 879 q 263 850 263 865 l 197 850 l 197 869 z "},"ơ":{"ha":524,"x_min":53,"x_max":529,"o":"m 529 840 l 529 800 q 522 717 529 746 q 494 675 514 689 q 432 657 474 661 q 462 550 454 619 q 469 353 469 481 q 456 119 469 192 q 401 18 443 47 q 261 -11 358 -11 q 122 18 165 -11 q 66 119 79 47 q 53 353 53 192 q 66 588 53 514 q 122 690 79 661 q 261 719 165 719 q 361 708 326 719 l 399 708 q 451 724 440 708 q 463 786 463 740 l 463 840 l 529 840 m 261 69 q 342 89 318 69 q 372 163 365 108 q 378 353 378 217 q 372 544 378 490 q 342 619 365 599 q 261 639 318 639 q 181 619 204 639 q 151 544 158 599 q 144 353 144 489 q 151 163 144 218 q 181 89 158 108 q 261 69 204 69 z "},"ớ":{"ha":524,"x_min":53,"x_max":529,"o":"m 529 840 l 529 800 q 522 717 529 746 q 494 675 514 689 q 432 657 474 661 q 462 550 454 619 q 469 353 469 481 q 456 119 469 192 q 401 18 443 47 q 261 -11 358 -11 q 122 18 165 -11 q 66 119 79 47 q 53 353 53 192 q 66 588 53 514 q 122 690 79 661 q 261 719 165 719 q 361 708 326 719 l 399 708 q 451 724 440 708 q 463 786 463 740 l 463 840 l 529 840 m 261 69 q 342 89 318 69 q 372 163 365 108 q 378 353 378 217 q 372 544 378 490 q 342 619 365 599 q 261 639 318 639 q 181 619 204 639 q 151 544 158 599 q 144 353 144 489 q 151 163 144 218 q 181 89 158 108 q 261 69 204 69 m 222 836 l 222 843 l 269 1032 l 364 1032 l 364 1025 l 292 836 l 222 836 z "},"ợ":{"ha":524,"x_min":53,"x_max":529,"o":"m 529 840 l 529 800 q 522 717 529 746 q 494 675 514 689 q 432 657 474 661 q 462 550 454 619 q 469 353 469 481 q 456 119 469 192 q 401 18 443 47 q 261 -11 358 -11 q 122 18 165 -11 q 66 119 79 47 q 53 353 53 192 q 66 588 53 514 q 122 690 79 661 q 261 719 165 719 q 361 708 326 719 l 399 708 q 451 724 440 708 q 463 786 463 740 l 463 840 l 529 840 m 261 69 q 342 89 318 69 q 372 163 365 108 q 378 353 378 217 q 372 544 378 490 q 342 619 365 599 q 261 639 318 639 q 181 619 204 639 q 151 544 158 599 q 144 353 144 489 q 151 163 144 218 q 181 89 158 108 q 261 69 204 69 m 208 -207 l 208 -86 l 314 -86 l 314 -207 l 208 -207 z "},"ờ":{"ha":524,"x_min":53,"x_max":529,"o":"m 529 840 l 529 800 q 522 717 529 746 q 494 675 514 689 q 432 657 474 661 q 462 550 454 619 q 469 353 469 481 q 456 119 469 192 q 401 18 443 47 q 261 -11 358 -11 q 122 18 165 -11 q 66 119 79 47 q 53 353 53 192 q 66 588 53 514 q 122 690 79 661 q 261 719 165 719 q 361 708 326 719 l 399 708 q 451 724 440 708 q 463 786 463 740 l 463 840 l 529 840 m 261 69 q 342 89 318 69 q 372 163 365 108 q 378 353 378 217 q 372 544 378 490 q 342 619 365 599 q 261 639 318 639 q 181 619 204 639 q 151 544 158 599 q 144 353 144 489 q 151 163 144 218 q 181 89 158 108 q 261 69 204 69 m 225 836 l 153 1025 l 153 1032 l 247 1032 l 294 843 l 294 836 l 225 836 z "},"ở":{"ha":524,"x_min":53,"x_max":529,"o":"m 529 840 l 529 800 q 522 717 529 746 q 494 675 514 689 q 432 657 474 661 q 462 550 454 619 q 469 353 469 481 q 456 119 469 192 q 401 18 443 47 q 261 -11 358 -11 q 122 18 165 -11 q 66 119 79 47 q 53 353 53 192 q 66 588 53 514 q 122 690 79 661 q 261 719 165 719 q 361 708 326 719 l 399 708 q 451 724 440 708 q 463 786 463 740 l 463 840 l 529 840 m 261 69 q 342 89 318 69 q 372 163 365 108 q 378 353 378 217 q 372 544 378 490 q 342 619 365 599 q 261 639 318 639 q 181 619 204 639 q 151 544 158 599 q 144 353 144 489 q 151 163 144 218 q 181 89 158 108 q 261 69 204 69 m 197 869 q 208 909 197 897 q 244 931 218 921 l 260 935 q 306 955 294 944 q 318 990 318 965 q 313 1017 318 1008 q 293 1028 308 1025 q 243 1032 278 1032 q 132 1028 196 1032 l 132 1085 q 256 1097 207 1097 q 359 1076 329 1097 q 389 1004 389 1056 q 380 940 389 961 q 332 906 371 919 l 319 900 q 279 885 290 890 q 265 872 268 879 q 263 850 263 865 l 197 850 l 197 869 z "},"ỡ":{"ha":524,"x_min":53,"x_max":529,"o":"m 529 840 l 529 800 q 522 717 529 746 q 494 675 514 689 q 432 657 474 661 q 462 550 454 619 q 469 353 469 481 q 456 119 469 192 q 401 18 443 47 q 261 -11 358 -11 q 122 18 165 -11 q 66 119 79 47 q 53 353 53 192 q 66 588 53 514 q 122 690 79 661 q 261 719 165 719 q 361 708 326 719 l 399 708 q 451 724 440 708 q 463 786 463 740 l 463 840 l 529 840 m 261 69 q 342 89 318 69 q 372 163 365 108 q 378 353 378 217 q 372 544 378 490 q 342 619 365 599 q 261 639 318 639 q 181 619 204 639 q 151 544 158 599 q 144 353 144 489 q 151 163 144 218 q 181 89 158 108 q 261 69 204 69 m 429 1032 q 415 917 429 949 q 353 885 401 885 q 254 915 315 885 q 210 936 228 929 q 176 943 193 943 q 156 927 161 943 q 151 868 151 911 l 90 868 q 105 984 90 951 q 167 1017 119 1017 q 215 1008 190 1017 q 269 983 239 999 q 311 965 294 971 q 343 958 328 958 q 365 974 360 958 q 369 1032 369 989 l 429 1032 z "},"ő":{"ha":524,"x_min":53,"x_max":469,"o":"m 261 -11 q 122 18 165 -11 q 66 119 79 47 q 53 353 53 192 q 66 588 53 514 q 122 690 79 661 q 261 719 165 719 q 401 690 358 719 q 456 588 443 661 q 469 353 469 515 q 456 119 469 192 q 401 18 443 47 q 261 -11 358 -11 m 261 69 q 342 89 318 69 q 372 163 365 108 q 378 353 378 217 q 372 544 378 490 q 342 619 365 599 q 261 639 318 639 q 181 619 204 639 q 151 544 158 599 q 144 353 144 489 q 151 163 144 218 q 181 89 158 108 q 261 69 204 69 m 169 849 l 169 856 l 210 1013 l 294 1013 l 294 1007 l 231 849 l 169 849 m 321 849 l 321 856 l 361 1013 l 446 1013 l 446 1007 l 382 849 l 321 849 z "},"ȏ":{"ha":524,"x_min":53,"x_max":469,"o":"m 261 -11 q 122 18 165 -11 q 66 119 79 47 q 53 353 53 192 q 66 588 53 514 q 122 690 79 661 q 261 719 165 719 q 401 690 358 719 q 456 588 443 661 q 469 353 469 515 q 456 119 469 192 q 401 18 443 47 q 261 -11 358 -11 m 261 69 q 342 89 318 69 q 372 163 365 108 q 378 353 378 217 q 372 544 378 490 q 342 619 365 599 q 261 639 318 639 q 181 619 204 639 q 151 544 158 599 q 144 353 144 489 q 151 163 144 218 q 181 89 158 108 q 261 69 204 69 m 119 849 q 128 954 119 915 q 167 1017 136 993 q 263 1040 199 1040 q 356 1017 326 1040 q 394 954 386 993 q 403 849 403 915 l 335 849 q 331 926 335 901 q 313 965 328 951 q 263 979 297 979 q 212 965 228 979 q 192 925 196 950 q 188 849 188 900 l 119 849 z "},"ō":{"ha":524,"x_min":53,"x_max":469,"o":"m 261 -11 q 122 18 165 -11 q 66 119 79 47 q 53 353 53 192 q 66 588 53 514 q 122 690 79 661 q 261 719 165 719 q 401 690 358 719 q 456 588 443 661 q 469 353 469 515 q 456 119 469 192 q 401 18 443 47 q 261 -11 358 -11 m 261 69 q 342 89 318 69 q 372 163 365 108 q 378 353 378 217 q 372 544 378 490 q 342 619 365 599 q 261 639 318 639 q 181 619 204 639 q 151 544 158 599 q 144 353 144 489 q 151 163 144 218 q 181 89 158 108 q 261 69 204 69 m 144 944 l 144 1032 l 378 1032 l 378 944 l 144 944 z "},"ǫ":{"ha":524,"x_min":53,"x_max":469,"o":"m 261 719 q 401 690 358 719 q 456 588 443 661 q 469 353 469 515 q 458 122 469 193 q 404 19 446 50 q 344 -56 369 -6 q 318 -150 318 -106 q 378 -210 318 -210 l 399 -208 l 399 -269 q 357 -272 371 -272 q 269 -243 297 -272 q 242 -165 242 -214 q 259 -87 242 -128 q 307 -10 276 -46 q 261 -11 292 -11 q 122 18 165 -11 q 66 119 79 47 q 53 353 53 192 q 66 588 53 514 q 122 690 79 661 q 261 719 165 719 m 261 69 q 342 89 318 69 q 372 163 365 108 q 378 353 378 217 q 372 544 378 490 q 342 619 365 599 q 261 639 318 639 q 181 619 204 639 q 151 544 158 599 q 144 353 144 489 q 151 163 144 218 q 181 89 158 108 q 261 69 204 69 z "},"ø":{"ha":524,"x_min":53,"x_max":469,"o":"m 97 42 q 61 146 69 76 q 53 353 53 215 q 66 588 53 514 q 122 690 79 661 q 261 719 165 719 q 354 706 321 719 l 385 785 l 469 785 l 425 667 q 461 561 453 631 q 469 353 469 492 q 456 119 469 192 q 401 18 443 47 q 261 -11 358 -11 q 169 3 201 -11 l 139 -76 l 53 -76 l 97 42 m 261 69 q 342 89 318 69 q 372 163 365 108 q 378 353 378 217 q 372 544 378 490 q 342 619 365 599 q 261 639 318 639 q 181 619 204 639 q 151 544 158 599 q 144 353 144 489 q 151 163 144 218 q 181 89 158 108 q 261 69 204 69 z "},"ǿ":{"ha":524,"x_min":53,"x_max":469,"o":"m 97 42 q 61 146 69 76 q 53 353 53 215 q 66 588 53 514 q 122 690 79 661 q 261 719 165 719 q 354 706 321 719 l 385 785 l 469 785 l 425 667 q 461 561 453 631 q 469 353 469 492 q 456 119 469 192 q 401 18 443 47 q 261 -11 358 -11 q 169 3 201 -11 l 139 -76 l 53 -76 l 97 42 m 261 69 q 342 89 318 69 q 372 163 365 108 q 378 353 378 217 q 372 544 378 490 q 342 619 365 599 q 261 639 318 639 q 181 619 204 639 q 151 544 158 599 q 144 353 144 489 q 151 163 144 218 q 181 89 158 108 q 261 69 204 69 m 222 836 l 222 843 l 269 1032 l 364 1032 l 364 1025 l 292 836 l 222 836 z "},"õ":{"ha":524,"x_min":53,"x_max":469,"o":"m 261 -11 q 122 18 165 -11 q 66 119 79 47 q 53 353 53 192 q 66 588 53 514 q 122 690 79 661 q 261 719 165 719 q 401 690 358 719 q 456 588 443 661 q 469 353 469 515 q 456 119 469 192 q 401 18 443 47 q 261 -11 358 -11 m 261 69 q 342 89 318 69 q 372 163 365 108 q 378 353 378 217 q 372 544 378 490 q 342 619 365 599 q 261 639 318 639 q 181 619 204 639 q 151 544 158 599 q 144 353 144 489 q 151 163 144 218 q 181 89 158 108 q 261 69 204 69 m 432 1032 q 418 917 432 949 q 356 885 404 885 q 257 915 318 885 q 213 936 231 929 q 179 943 196 943 q 159 927 164 943 q 154 868 154 911 l 93 868 q 108 984 93 951 q 169 1017 122 1017 q 218 1008 194 1017 q 272 983 242 999 q 314 965 297 971 q 346 958 331 958 q 367 974 363 958 q 372 1032 372 989 l 432 1032 z "},"œ":{"ha":833,"x_min":53,"x_max":781,"o":"m 781 325 l 469 325 q 478 159 469 210 q 516 89 488 108 q 610 69 544 69 q 692 74 646 69 q 765 83 739 78 l 765 7 q 688 -6 736 0 q 593 -11 639 -11 q 487 8 526 -11 q 426 71 447 26 q 369 7 407 25 q 261 -11 332 -11 q 122 18 165 -11 q 66 119 79 47 q 53 353 53 192 q 66 588 53 514 q 122 690 79 661 q 261 719 165 719 q 368 702 331 719 q 425 642 406 685 q 485 701 446 682 q 589 719 524 719 q 719 687 679 719 q 770 583 760 654 q 781 354 781 513 l 781 325 m 261 69 q 342 89 318 69 q 372 163 365 108 q 378 353 378 217 q 372 544 378 490 q 342 619 365 599 q 261 639 318 639 q 181 619 204 639 q 151 544 158 599 q 144 353 144 489 q 151 163 144 218 q 181 89 158 108 q 261 69 204 69 m 588 639 q 508 622 532 639 q 477 557 485 606 q 469 394 469 508 l 693 394 l 693 415 q 685 564 693 518 q 655 624 676 610 q 588 639 633 639 z "},"p":{"ha":536,"x_min":71,"x_max":483,"o":"m 71 708 l 153 708 l 158 611 l 167 611 q 217 697 181 674 q 307 719 254 719 q 417 690 381 719 q 469 583 454 660 q 483 354 483 507 q 469 127 483 203 q 419 20 456 51 q 308 -11 383 -11 q 218 12 251 -11 q 171 86 185 35 l 163 86 l 163 -268 l 71 -268 l 71 708 m 278 72 q 353 90 331 72 q 384 165 376 108 q 392 354 392 222 q 384 543 392 486 q 353 618 376 600 q 278 636 331 636 q 208 615 233 636 q 172 546 182 594 q 163 354 163 489 q 172 174 163 222 q 208 94 183 117 q 278 72 232 72 z "},"þ":{"ha":536,"x_min":71,"x_max":483,"o":"m 71 1032 l 163 1032 l 163 621 l 171 621 q 217 697 183 674 q 307 719 251 719 q 417 690 381 719 q 469 583 454 660 q 483 354 483 507 q 469 127 483 203 q 419 20 456 51 q 308 -11 383 -11 q 218 12 251 -11 q 171 86 185 35 l 163 86 l 163 -264 l 71 -264 l 71 1032 m 278 72 q 353 90 331 72 q 384 165 376 108 q 392 354 392 222 q 384 543 392 486 q 353 618 376 600 q 278 636 331 636 q 207 614 232 636 q 172 538 182 592 q 163 354 163 486 q 171 181 163 231 q 208 96 183 119 q 278 72 232 72 z "},"q":{"ha":536,"x_min":53,"x_max":465,"o":"m 374 86 l 367 86 q 319 13 353 36 q 228 -11 286 -11 q 117 20 154 -11 q 67 127 81 51 q 53 354 53 203 q 67 583 53 507 q 119 690 82 660 q 229 719 156 719 q 319 697 282 719 q 371 611 357 674 l 378 611 l 383 708 l 465 708 l 465 -268 l 374 -268 l 374 86 m 260 72 q 328 93 304 72 q 364 165 353 114 q 374 354 374 224 q 363 553 374 489 q 328 617 353 597 q 260 636 304 636 q 184 618 207 636 q 153 543 161 600 q 144 354 144 486 q 153 165 144 222 q 184 90 161 108 q 260 72 207 72 z "},"r":{"ha":340,"x_min":71,"x_max":322,"o":"m 71 708 l 153 708 l 158 579 l 167 579 q 222 690 183 660 q 322 719 260 719 l 322 622 q 198 559 233 622 q 163 354 163 496 l 163 0 l 71 0 l 71 708 z "},"ŕ":{"ha":340,"x_min":71,"x_max":322,"o":"m 71 708 l 153 708 l 158 579 l 167 579 q 222 690 183 660 q 322 719 260 719 l 322 622 q 198 559 233 622 q 163 354 163 496 l 163 0 l 71 0 l 71 708 m 132 836 l 132 843 l 179 1032 l 274 1032 l 274 1025 l 201 836 l 132 836 z "},"ř":{"ha":340,"x_min":26,"x_max":322,"o":"m 71 708 l 153 708 l 158 579 l 167 579 q 222 690 183 660 q 322 719 260 719 l 322 622 q 198 559 233 622 q 163 354 163 496 l 163 0 l 71 0 l 71 708 m 119 846 l 26 1024 l 26 1032 l 92 1032 l 169 903 l 249 1032 l 314 1032 l 314 1024 l 221 846 l 119 846 z "},"ŗ":{"ha":340,"x_min":56,"x_max":322,"o":"m 71 708 l 153 708 l 158 579 l 167 579 q 222 690 183 660 q 322 719 260 719 l 322 622 q 198 559 233 622 q 163 354 163 496 l 163 0 l 71 0 l 71 708 m 56 -294 q 108 -279 97 -294 q 119 -214 119 -264 l 119 -192 l 78 -192 l 78 -86 l 182 -86 l 182 -183 q 172 -281 182 -249 q 136 -327 163 -314 q 56 -340 110 -340 l 56 -294 z "},"ȑ":{"ha":340,"x_min":0,"x_max":322,"o":"m 71 708 l 153 708 l 158 579 l 167 579 q 222 690 183 660 q 322 719 260 719 l 322 622 q 198 559 233 622 q 163 354 163 496 l 163 0 l 71 0 l 71 708 m 125 849 l 64 849 l 0 1007 l 0 1013 l 85 1013 l 125 856 l 125 849 m 276 849 l 215 849 l 151 1007 l 151 1013 l 236 1013 l 276 856 l 276 849 z "},"ṛ":{"ha":340,"x_min":65,"x_max":322,"o":"m 71 708 l 153 708 l 158 579 l 167 579 q 222 690 183 660 q 322 719 260 719 l 322 622 q 198 559 233 622 q 163 354 163 496 l 163 0 l 71 0 l 71 708 m 65 -207 l 65 -86 l 171 -86 l 171 -207 l 65 -207 z "},"ȓ":{"ha":340,"x_min":29,"x_max":322,"o":"m 71 708 l 153 708 l 158 579 l 167 579 q 222 690 183 660 q 322 719 260 719 l 322 622 q 198 559 233 622 q 163 354 163 496 l 163 0 l 71 0 l 71 708 m 29 849 q 38 954 29 915 q 77 1017 46 993 q 172 1040 108 1040 q 266 1017 236 1040 q 304 954 296 993 q 313 849 313 915 l 244 849 q 241 926 244 901 q 222 965 238 951 q 172 979 207 979 q 122 965 138 979 q 101 925 106 950 q 97 849 97 900 l 29 849 z "},"s":{"ha":442,"x_min":39,"x_max":403,"o":"m 214 -11 q 127 -6 174 -11 q 53 7 81 0 l 53 83 q 119 74 76 78 q 203 69 163 69 q 290 99 267 69 q 313 192 313 129 q 307 267 313 244 q 290 299 301 290 q 251 311 278 307 l 136 331 q 60 381 82 340 q 39 514 39 422 q 88 674 39 629 q 232 719 136 719 q 310 714 269 719 q 376 701 350 708 l 376 624 q 315 635 354 631 q 236 639 275 639 q 156 614 182 639 q 131 521 131 589 q 135 451 131 474 q 152 421 140 429 q 189 408 164 413 l 299 390 q 358 368 336 385 q 392 312 381 351 q 403 197 403 272 q 358 36 403 83 q 214 -11 314 -11 z "},"ś":{"ha":442,"x_min":39,"x_max":403,"o":"m 214 -11 q 127 -6 174 -11 q 53 7 81 0 l 53 83 q 119 74 76 78 q 203 69 163 69 q 290 99 267 69 q 313 192 313 129 q 307 267 313 244 q 290 299 301 290 q 251 311 278 307 l 136 331 q 60 381 82 340 q 39 514 39 422 q 88 674 39 629 q 232 719 136 719 q 310 714 269 719 q 376 701 350 708 l 376 624 q 315 635 354 631 q 236 639 275 639 q 156 614 182 639 q 131 521 131 589 q 135 451 131 474 q 152 421 140 429 q 189 408 164 413 l 299 390 q 358 368 336 385 q 392 312 381 351 q 403 197 403 272 q 358 36 403 83 q 214 -11 314 -11 m 182 836 l 182 843 l 229 1032 l 324 1032 l 324 1025 l 251 836 l 182 836 z "},"ꞌ":{"ha":147,"x_min":28,"x_max":119,"o":"m 28 394 l 28 1032 l 119 1032 l 119 714 l 93 394 l 28 394 z "},"š":{"ha":442,"x_min":39,"x_max":403,"o":"m 214 -11 q 127 -6 174 -11 q 53 7 81 0 l 53 83 q 119 74 76 78 q 203 69 163 69 q 290 99 267 69 q 313 192 313 129 q 307 267 313 244 q 290 299 301 290 q 251 311 278 307 l 136 331 q 60 381 82 340 q 39 514 39 422 q 88 674 39 629 q 232 719 136 719 q 310 714 269 719 q 376 701 350 708 l 376 624 q 315 635 354 631 q 236 639 275 639 q 156 614 182 639 q 131 521 131 589 q 135 451 131 474 q 152 421 140 429 q 189 408 164 413 l 299 390 q 358 368 336 385 q 392 312 381 351 q 403 197 403 272 q 358 36 403 83 q 214 -11 314 -11 m 174 846 l 81 1024 l 81 1032 l 146 1032 l 224 903 l 303 1032 l 368 1032 l 368 1024 l 275 846 l 174 846 z "},"ş":{"ha":442,"x_min":39,"x_max":403,"o":"m 403 197 q 367 46 403 94 q 250 -10 331 -3 l 196 -262 l 108 -262 l 108 -256 l 185 -11 q 53 7 101 -7 l 53 83 q 119 74 76 78 q 203 69 163 69 q 290 99 267 69 q 313 192 313 129 q 307 267 313 244 q 290 299 301 290 q 251 311 278 307 l 136 331 q 60 381 82 340 q 39 514 39 422 q 88 674 39 629 q 232 719 136 719 q 310 714 269 719 q 376 701 350 708 l 376 624 q 315 635 354 631 q 236 639 275 639 q 156 614 182 639 q 131 521 131 589 q 135 451 131 474 q 152 421 140 429 q 189 408 164 413 l 299 390 q 358 368 336 385 q 392 312 381 351 q 403 197 403 272 z "},"ŝ":{"ha":442,"x_min":39,"x_max":403,"o":"m 214 -11 q 127 -6 174 -11 q 53 7 81 0 l 53 83 q 119 74 76 78 q 203 69 163 69 q 290 99 267 69 q 313 192 313 129 q 307 267 313 244 q 290 299 301 290 q 251 311 278 307 l 136 331 q 60 381 82 340 q 39 514 39 422 q 88 674 39 629 q 232 719 136 719 q 310 714 269 719 q 376 701 350 708 l 376 624 q 315 635 354 631 q 236 639 275 639 q 156 614 182 639 q 131 521 131 589 q 135 451 131 474 q 152 421 140 429 q 189 408 164 413 l 299 390 q 358 368 336 385 q 392 312 381 351 q 403 197 403 272 q 358 36 403 83 q 214 -11 314 -11 m 76 846 l 76 854 l 169 1032 l 271 1032 l 364 854 l 364 846 l 299 846 l 219 975 l 142 846 l 76 846 z "},"ș":{"ha":442,"x_min":39,"x_max":403,"o":"m 214 -11 q 127 -6 174 -11 q 53 7 81 0 l 53 83 q 119 74 76 78 q 203 69 163 69 q 290 99 267 69 q 313 192 313 129 q 307 267 313 244 q 290 299 301 290 q 251 311 278 307 l 136 331 q 60 381 82 340 q 39 514 39 422 q 88 674 39 629 q 232 719 136 719 q 310 714 269 719 q 376 701 350 708 l 376 624 q 315 635 354 631 q 236 639 275 639 q 156 614 182 639 q 131 521 131 589 q 135 451 131 474 q 152 421 140 429 q 189 408 164 413 l 299 390 q 358 368 336 385 q 392 312 381 351 q 403 197 403 272 q 358 36 403 83 q 214 -11 314 -11 m 158 -294 q 211 -279 200 -294 q 222 -214 222 -264 l 222 -192 l 181 -192 l 181 -86 l 285 -86 l 285 -183 q 275 -281 285 -249 q 239 -327 265 -314 q 158 -340 213 -340 l 158 -294 z "},"ṣ":{"ha":442,"x_min":39,"x_max":403,"o":"m 214 -11 q 127 -6 174 -11 q 53 7 81 0 l 53 83 q 119 74 76 78 q 203 69 163 69 q 290 99 267 69 q 313 192 313 129 q 307 267 313 244 q 290 299 301 290 q 251 311 278 307 l 136 331 q 60 381 82 340 q 39 514 39 422 q 88 674 39 629 q 232 719 136 719 q 310 714 269 719 q 376 701 350 708 l 376 624 q 315 635 354 631 q 236 639 275 639 q 156 614 182 639 q 131 521 131 589 q 135 451 131 474 q 152 421 140 429 q 189 408 164 413 l 299 390 q 358 368 336 385 q 392 312 381 351 q 403 197 403 272 q 358 36 403 83 q 214 -11 314 -11 m 168 -207 l 168 -86 l 274 -86 l 274 -207 l 168 -207 z "},"ß":{"ha":550,"x_min":71,"x_max":493,"o":"m 246 0 l 246 81 l 281 81 q 363 97 339 81 q 394 164 386 113 q 401 340 401 215 q 392 489 401 439 q 360 558 382 539 q 294 578 338 578 l 268 578 l 268 657 l 294 657 q 374 691 351 657 q 396 810 396 725 q 370 928 396 896 q 279 961 344 961 q 210 945 235 961 q 174 890 185 929 q 163 781 163 851 l 163 0 l 71 0 l 71 772 q 92 932 71 874 q 159 1016 114 990 q 279 1042 204 1042 q 438 992 389 1042 q 488 818 488 943 q 461 683 488 728 q 375 625 435 639 l 375 619 q 465 542 438 604 q 493 343 493 479 q 479 138 493 208 q 423 33 465 67 q 294 0 381 0 l 246 0 z "},"ſ":{"ha":314,"x_min":24,"x_max":304,"o":"m 106 628 l 24 628 l 24 708 l 106 708 l 106 825 q 124 963 106 919 q 182 1019 142 1006 q 304 1032 222 1032 l 304 960 q 237 951 258 960 q 206 919 215 943 q 197 846 197 896 l 197 0 l 106 0 l 106 628 z "},"t":{"ha":321,"x_min":24,"x_max":299,"o":"m 106 0 l 106 628 l 24 628 l 24 708 l 106 708 l 106 914 l 197 914 l 197 708 l 299 708 l 299 628 l 197 628 l 197 0 l 106 0 z "},"ŧ":{"ha":321,"x_min":24,"x_max":299,"o":"m 299 628 l 197 628 l 197 400 l 292 400 l 292 319 l 197 319 l 197 0 l 106 0 l 106 319 l 35 319 l 35 400 l 106 400 l 106 628 l 24 628 l 24 708 l 106 708 l 106 914 l 197 914 l 197 708 l 299 708 l 299 628 z "},"ť":{"ha":376,"x_min":24,"x_max":447,"o":"m 106 0 l 106 628 l 24 628 l 24 708 l 106 708 l 106 914 l 197 914 l 197 708 l 299 708 l 299 628 l 197 628 l 197 0 l 106 0 m 338 617 l 356 850 l 356 956 l 447 956 l 447 850 l 403 617 l 338 617 z "},"ţ":{"ha":321,"x_min":24,"x_max":299,"o":"m 197 708 l 299 708 l 299 628 l 197 628 l 197 0 l 183 0 l 128 -262 l 40 -262 l 40 -256 l 121 0 l 106 0 l 106 628 l 24 628 l 24 708 l 106 708 l 106 914 l 197 914 l 197 708 z "},"ț":{"ha":321,"x_min":24,"x_max":299,"o":"m 106 0 l 106 628 l 24 628 l 24 708 l 106 708 l 106 914 l 197 914 l 197 708 l 299 708 l 299 628 l 197 628 l 197 0 l 106 0 m 90 -294 q 143 -279 132 -294 q 154 -214 154 -264 l 154 -192 l 113 -192 l 113 -86 l 217 -86 l 217 -183 q 207 -281 217 -249 q 171 -327 197 -314 q 90 -340 144 -340 l 90 -294 z "},"ṭ":{"ha":321,"x_min":24,"x_max":299,"o":"m 106 0 l 106 628 l 24 628 l 24 708 l 106 708 l 106 914 l 197 914 l 197 708 l 299 708 l 299 628 l 197 628 l 197 0 l 106 0 m 100 -207 l 100 -86 l 206 -86 l 206 -207 l 100 -207 z "},"u":{"ha":538,"x_min":67,"x_max":467,"o":"m 379 97 l 372 97 q 323 17 358 44 q 222 -11 288 -11 q 122 14 156 -11 q 78 94 89 39 q 67 253 67 149 l 67 708 l 158 708 l 158 288 q 166 145 158 189 q 194 87 174 101 q 261 72 214 72 q 340 103 315 72 q 369 186 364 133 q 375 346 375 239 l 375 708 l 467 708 l 467 0 l 385 0 l 379 97 z "},"ú":{"ha":538,"x_min":67,"x_max":467,"o":"m 379 97 l 372 97 q 323 17 358 44 q 222 -11 288 -11 q 122 14 156 -11 q 78 94 89 39 q 67 253 67 149 l 67 708 l 158 708 l 158 288 q 166 145 158 189 q 194 87 174 101 q 261 72 214 72 q 340 103 315 72 q 369 186 364 133 q 375 346 375 239 l 375 708 l 467 708 l 467 0 l 385 0 l 379 97 m 229 836 l 229 843 l 276 1032 l 371 1032 l 371 1025 l 299 836 l 229 836 z "},"ŭ":{"ha":538,"x_min":67,"x_max":467,"o":"m 379 97 l 372 97 q 323 17 358 44 q 222 -11 288 -11 q 122 14 156 -11 q 78 94 89 39 q 67 253 67 149 l 67 708 l 158 708 l 158 288 q 166 145 158 189 q 194 87 174 101 q 261 72 214 72 q 340 103 315 72 q 369 186 364 133 q 375 346 375 239 l 375 708 l 467 708 l 467 0 l 385 0 l 379 97 m 411 1032 q 403 926 411 965 q 363 864 394 888 q 268 840 332 840 q 174 864 204 840 q 136 926 144 888 q 128 1032 128 965 l 196 1032 q 199 954 196 979 q 218 915 203 929 q 268 901 233 901 q 319 916 303 901 q 339 956 335 931 q 343 1032 343 981 l 411 1032 z "},"ǔ":{"ha":538,"x_min":67,"x_max":467,"o":"m 379 97 l 372 97 q 323 17 358 44 q 222 -11 288 -11 q 122 14 156 -11 q 78 94 89 39 q 67 253 67 149 l 67 708 l 158 708 l 158 288 q 166 145 158 189 q 194 87 174 101 q 261 72 214 72 q 340 103 315 72 q 369 186 364 133 q 375 346 375 239 l 375 708 l 467 708 l 467 0 l 385 0 l 379 97 m 218 846 l 125 1024 l 125 1032 l 190 1032 l 268 903 l 347 1032 l 413 1032 l 413 1024 l 319 846 l 218 846 z "},"û":{"ha":538,"x_min":67,"x_max":467,"o":"m 379 97 l 372 97 q 323 17 358 44 q 222 -11 288 -11 q 122 14 156 -11 q 78 94 89 39 q 67 253 67 149 l 67 708 l 158 708 l 158 288 q 166 145 158 189 q 194 87 174 101 q 261 72 214 72 q 340 103 315 72 q 369 186 364 133 q 375 346 375 239 l 375 708 l 467 708 l 467 0 l 385 0 l 379 97 m 124 846 l 124 854 l 217 1032 l 318 1032 l 411 854 l 411 846 l 346 846 l 267 975 l 189 846 l 124 846 z "},"ȕ":{"ha":538,"x_min":67,"x_max":467,"o":"m 379 97 l 372 97 q 323 17 358 44 q 222 -11 288 -11 q 122 14 156 -11 q 78 94 89 39 q 67 253 67 149 l 67 708 l 158 708 l 158 288 q 166 145 158 189 q 194 87 174 101 q 261 72 214 72 q 340 103 315 72 q 369 186 364 133 q 375 346 375 239 l 375 708 l 467 708 l 467 0 l 385 0 l 379 97 m 224 849 l 163 849 l 99 1007 l 99 1013 l 183 1013 l 224 856 l 224 849 m 375 849 l 314 849 l 250 1007 l 250 1013 l 335 1013 l 375 856 l 375 849 z "},"ü":{"ha":538,"x_min":67,"x_max":467,"o":"m 379 97 l 372 97 q 323 17 358 44 q 222 -11 288 -11 q 122 14 156 -11 q 78 94 89 39 q 67 253 67 149 l 67 708 l 158 708 l 158 288 q 166 145 158 189 q 194 87 174 101 q 261 72 214 72 q 340 103 315 72 q 369 186 364 133 q 375 346 375 239 l 375 708 l 467 708 l 467 0 l 385 0 l 379 97 m 106 910 l 106 1014 l 194 1014 l 194 910 l 106 910 m 338 910 l 338 1014 l 426 1014 l 426 910 l 338 910 z "},"ǘ":{"ha":538,"x_min":67,"x_max":467,"o":"m 379 97 l 372 97 q 323 17 358 44 q 222 -11 288 -11 q 122 14 156 -11 q 78 94 89 39 q 67 253 67 149 l 67 708 l 158 708 l 158 288 q 166 145 158 189 q 194 87 174 101 q 261 72 214 72 q 340 103 315 72 q 369 186 364 133 q 375 346 375 239 l 375 708 l 467 708 l 467 0 l 385 0 l 379 97 m 108 910 l 108 1014 l 197 1014 l 197 910 l 108 910 m 340 910 l 340 1014 l 429 1014 l 429 910 l 340 910 m 233 1058 l 233 1065 l 281 1254 l 375 1254 l 375 1247 l 303 1058 l 233 1058 z "},"ǚ":{"ha":538,"x_min":67,"x_max":467,"o":"m 379 97 l 372 97 q 323 17 358 44 q 222 -11 288 -11 q 122 14 156 -11 q 78 94 89 39 q 67 253 67 149 l 67 708 l 158 708 l 158 288 q 166 145 158 189 q 194 87 174 101 q 261 72 214 72 q 340 103 315 72 q 369 186 364 133 q 375 346 375 239 l 375 708 l 467 708 l 467 0 l 385 0 l 379 97 m 108 910 l 108 1014 l 197 1014 l 197 910 l 108 910 m 340 910 l 340 1014 l 429 1014 l 429 910 l 340 910 m 221 1068 l 128 1246 l 128 1254 l 193 1254 l 271 1125 l 350 1254 l 415 1254 l 415 1246 l 322 1068 l 221 1068 z "},"ǜ":{"ha":538,"x_min":67,"x_max":467,"o":"m 379 97 l 372 97 q 323 17 358 44 q 222 -11 288 -11 q 122 14 156 -11 q 78 94 89 39 q 67 253 67 149 l 67 708 l 158 708 l 158 288 q 166 145 158 189 q 194 87 174 101 q 261 72 214 72 q 340 103 315 72 q 369 186 364 133 q 375 346 375 239 l 375 708 l 467 708 l 467 0 l 385 0 l 379 97 m 108 910 l 108 1014 l 197 1014 l 197 910 l 108 910 m 340 910 l 340 1014 l 429 1014 l 429 910 l 340 910 m 236 1058 l 164 1247 l 164 1254 l 258 1254 l 306 1065 l 306 1058 l 236 1058 z "},"ǖ":{"ha":538,"x_min":67,"x_max":467,"o":"m 379 97 l 372 97 q 323 17 358 44 q 222 -11 288 -11 q 122 14 156 -11 q 78 94 89 39 q 67 253 67 149 l 67 708 l 158 708 l 158 288 q 166 145 158 189 q 194 87 174 101 q 261 72 214 72 q 340 103 315 72 q 369 186 364 133 q 375 346 375 239 l 375 708 l 467 708 l 467 0 l 385 0 l 379 97 m 108 910 l 108 1014 l 197 1014 l 197 910 l 108 910 m 340 910 l 340 1014 l 429 1014 l 429 910 l 340 910 m 156 1167 l 156 1254 l 389 1254 l 389 1167 l 156 1167 z "},"ụ":{"ha":538,"x_min":67,"x_max":467,"o":"m 379 97 l 372 97 q 323 17 358 44 q 222 -11 288 -11 q 122 14 156 -11 q 78 94 89 39 q 67 253 67 149 l 67 708 l 158 708 l 158 288 q 166 145 158 189 q 194 87 174 101 q 261 72 214 72 q 340 103 315 72 q 369 186 364 133 q 375 346 375 239 l 375 708 l 467 708 l 467 0 l 385 0 l 379 97 m 207 -207 l 207 -86 l 313 -86 l 313 -207 l 207 -207 z "},"ù":{"ha":538,"x_min":67,"x_max":467,"o":"m 379 97 l 372 97 q 323 17 358 44 q 222 -11 288 -11 q 122 14 156 -11 q 78 94 89 39 q 67 253 67 149 l 67 708 l 158 708 l 158 288 q 166 145 158 189 q 194 87 174 101 q 261 72 214 72 q 340 103 315 72 q 369 186 364 133 q 375 346 375 239 l 375 708 l 467 708 l 467 0 l 385 0 l 379 97 m 244 836 l 172 1025 l 172 1032 l 267 1032 l 314 843 l 314 836 l 244 836 z "},"ủ":{"ha":538,"x_min":67,"x_max":467,"o":"m 379 97 l 372 97 q 323 17 358 44 q 222 -11 288 -11 q 122 14 156 -11 q 78 94 89 39 q 67 253 67 149 l 67 708 l 158 708 l 158 288 q 166 145 158 189 q 194 87 174 101 q 261 72 214 72 q 340 103 315 72 q 369 186 364 133 q 375 346 375 239 l 375 708 l 467 708 l 467 0 l 385 0 l 379 97 m 206 869 q 216 909 206 897 q 253 931 226 921 l 268 935 q 315 955 303 944 q 326 990 326 965 q 322 1017 326 1008 q 301 1028 317 1025 q 251 1032 286 1032 q 140 1028 204 1032 l 140 1085 q 264 1097 215 1097 q 367 1076 338 1097 q 397 1004 397 1056 q 388 940 397 961 q 340 906 379 919 l 328 900 q 288 885 299 890 q 274 872 276 879 q 271 850 271 865 l 206 850 l 206 869 z "},"ư":{"ha":538,"x_min":67,"x_max":567,"o":"m 567 840 l 567 800 q 559 717 567 746 q 531 674 551 688 q 467 657 510 660 l 467 0 l 385 0 l 379 97 l 372 97 q 323 17 358 44 q 222 -11 288 -11 q 122 14 156 -11 q 78 94 89 39 q 67 253 67 149 l 67 708 l 158 708 l 158 288 q 166 145 158 189 q 194 87 174 101 q 261 72 214 72 q 340 103 315 72 q 369 186 364 133 q 375 346 375 239 l 375 708 l 436 708 q 489 724 478 708 q 500 786 500 740 l 500 840 l 567 840 z "},"ứ":{"ha":538,"x_min":67,"x_max":567,"o":"m 567 840 l 567 800 q 559 717 567 746 q 531 674 551 688 q 467 657 510 660 l 467 0 l 385 0 l 379 97 l 372 97 q 323 17 358 44 q 222 -11 288 -11 q 122 14 156 -11 q 78 94 89 39 q 67 253 67 149 l 67 708 l 158 708 l 158 288 q 166 145 158 189 q 194 87 174 101 q 261 72 214 72 q 340 103 315 72 q 369 186 364 133 q 375 346 375 239 l 375 708 l 436 708 q 489 724 478 708 q 500 786 500 740 l 500 840 l 567 840 m 231 836 l 231 843 l 278 1032 l 372 1032 l 372 1025 l 300 836 l 231 836 z "},"ự":{"ha":538,"x_min":67,"x_max":567,"o":"m 567 840 l 567 800 q 559 717 567 746 q 531 674 551 688 q 467 657 510 660 l 467 0 l 385 0 l 379 97 l 372 97 q 323 17 358 44 q 222 -11 288 -11 q 122 14 156 -11 q 78 94 89 39 q 67 253 67 149 l 67 708 l 158 708 l 158 288 q 166 145 158 189 q 194 87 174 101 q 261 72 214 72 q 340 103 315 72 q 369 186 364 133 q 375 346 375 239 l 375 708 l 436 708 q 489 724 478 708 q 500 786 500 740 l 500 840 l 567 840 m 207 -207 l 207 -86 l 313 -86 l 313 -207 l 207 -207 z "},"ừ":{"ha":538,"x_min":67,"x_max":567,"o":"m 567 840 l 567 800 q 559 717 567 746 q 531 674 551 688 q 467 657 510 660 l 467 0 l 385 0 l 379 97 l 372 97 q 323 17 358 44 q 222 -11 288 -11 q 122 14 156 -11 q 78 94 89 39 q 67 253 67 149 l 67 708 l 158 708 l 158 288 q 166 145 158 189 q 194 87 174 101 q 261 72 214 72 q 340 103 315 72 q 369 186 364 133 q 375 346 375 239 l 375 708 l 436 708 q 489 724 478 708 q 500 786 500 740 l 500 840 l 567 840 m 233 836 l 161 1025 l 161 1032 l 256 1032 l 303 843 l 303 836 l 233 836 z "},"ử":{"ha":538,"x_min":67,"x_max":567,"o":"m 567 840 l 567 800 q 559 717 567 746 q 531 674 551 688 q 467 657 510 660 l 467 0 l 385 0 l 379 97 l 372 97 q 323 17 358 44 q 222 -11 288 -11 q 122 14 156 -11 q 78 94 89 39 q 67 253 67 149 l 67 708 l 158 708 l 158 288 q 166 145 158 189 q 194 87 174 101 q 261 72 214 72 q 340 103 315 72 q 369 186 364 133 q 375 346 375 239 l 375 708 l 436 708 q 489 724 478 708 q 500 786 500 740 l 500 840 l 567 840 m 206 869 q 216 909 206 897 q 253 931 226 921 l 268 935 q 315 955 303 944 q 326 990 326 965 q 322 1017 326 1008 q 301 1028 317 1025 q 251 1032 286 1032 q 140 1028 204 1032 l 140 1085 q 264 1097 215 1097 q 367 1076 338 1097 q 397 1004 397 1056 q 388 940 397 961 q 340 906 379 919 l 328 900 q 288 885 299 890 q 274 872 276 879 q 271 850 271 865 l 206 850 l 206 869 z "}}}
